ISO-10303-21;
HEADER;
/* Generated by software containing ST-Developer
 * from STEP Tools, Inc. (www.steptools.com) 
 */

FILE_DESCRIPTION(
/* description */ (''),
/* implementation_level */ '2;1');

FILE_NAME(
/* name */ 'autocad_bracket.stp',
/* time_stamp */ '2026-08-22T02:53:07+02:00',
/* author */ (''),
/* organization */ (''),
/* preprocessor_version */ 'ST-DEVELOPER v20.1',
/* originating_system */ 'Autodesk Translation Framework v15.8.0.0',
/* authorisation */ '');

FILE_SCHEMA (('AUTOMOTIVE_DESIGN { 1 0 10303 214 3 1 1 }'));
ENDSEC;

DATA;
#10=MECHANICAL_DESIGN_GEOMETRIC_PRESENTATION_REPRESENTATION('',(#13),#664);
#11=SHAPE_REPRESENTATION_RELATIONSHIP('SRR','None',#671,#12);
#12=ADVANCED_BREP_SHAPE_REPRESENTATION('',(#14),#663);
#13=STYLED_ITEM('',(#680),#14);
#14=MANIFOLD_SOLID_BREP('Body18',#368);
#15=FACE_BOUND('',#55,.T.);
#16=FACE_BOUND('',#67,.T.);
#17=FACE_BOUND('',#68,.T.);
#18=FACE_BOUND('',#69,.T.);
#19=FACE_BOUND('',#71,.T.);
#20=FACE_BOUND('',#72,.T.);
#21=FACE_BOUND('',#73,.T.);
#22=PLANE('',#403);
#23=PLANE('',#404);
#24=PLANE('',#408);
#25=PLANE('',#430);
#26=PLANE('',#431);
#27=FACE_OUTER_BOUND('',#47,.T.);
#28=FACE_OUTER_BOUND('',#48,.T.);
#29=FACE_OUTER_BOUND('',#49,.T.);
#30=FACE_OUTER_BOUND('',#50,.T.);
#31=FACE_OUTER_BOUND('',#51,.T.);
#32=FACE_OUTER_BOUND('',#52,.T.);
#33=FACE_OUTER_BOUND('',#53,.T.);
#34=FACE_OUTER_BOUND('',#54,.T.);
#35=FACE_OUTER_BOUND('',#56,.T.);
#36=FACE_OUTER_BOUND('',#57,.T.);
#37=FACE_OUTER_BOUND('',#58,.T.);
#38=FACE_OUTER_BOUND('',#59,.T.);
#39=FACE_OUTER_BOUND('',#60,.T.);
#40=FACE_OUTER_BOUND('',#61,.T.);
#41=FACE_OUTER_BOUND('',#62,.T.);
#42=FACE_OUTER_BOUND('',#63,.T.);
#43=FACE_OUTER_BOUND('',#64,.T.);
#44=FACE_OUTER_BOUND('',#65,.T.);
#45=FACE_OUTER_BOUND('',#66,.T.);
#46=FACE_OUTER_BOUND('',#70,.T.);
#47=EDGE_LOOP('',(#231,#232,#233,#234));
#48=EDGE_LOOP('',(#235,#236,#237,#238));
#49=EDGE_LOOP('',(#239,#240,#241,#242));
#50=EDGE_LOOP('',(#243,#244,#245,#246));
#51=EDGE_LOOP('',(#247,#248,#249,#250));
#52=EDGE_LOOP('',(#251,#252,#253,#254));
#53=EDGE_LOOP('',(#255,#256,#257,#258));
#54=EDGE_LOOP('',(#259));
#55=EDGE_LOOP('',(#260));
#56=EDGE_LOOP('',(#261,#262,#263,#264));
#57=EDGE_LOOP('',(#265,#266,#267,#268));
#58=EDGE_LOOP('',(#269,#270,#271,#272));
#59=EDGE_LOOP('',(#273,#274,#275,#276));
#60=EDGE_LOOP('',(#277,#278,#279,#280));
#61=EDGE_LOOP('',(#281,#282,#283,#284));
#62=EDGE_LOOP('',(#285,#286,#287,#288));
#63=EDGE_LOOP('',(#289,#290,#291,#292));
#64=EDGE_LOOP('',(#293,#294,#295,#296));
#65=EDGE_LOOP('',(#297,#298,#299,#300));
#66=EDGE_LOOP('',(#301,#302,#303,#304,#305,#306,#307,#308,#309,#310));
#67=EDGE_LOOP('',(#311,#312,#313,#314));
#68=EDGE_LOOP('',(#315));
#69=EDGE_LOOP('',(#316));
#70=EDGE_LOOP('',(#317,#318,#319,#320,#321,#322,#323,#324,#325,#326));
#71=EDGE_LOOP('',(#327,#328,#329,#330));
#72=EDGE_LOOP('',(#331));
#73=EDGE_LOOP('',(#332));
#74=LINE('',#561,#95);
#75=LINE('',#564,#96);
#76=LINE('',#569,#97);
#77=LINE('',#575,#98);
#78=LINE('',#584,#99);
#79=LINE('',#590,#100);
#80=LINE('',#596,#101);
#81=LINE('',#602,#102);
#82=LINE('',#604,#103);
#83=LINE('',#606,#104);
#84=LINE('',#607,#105);
#85=LINE('',#613,#106);
#86=LINE('',#616,#107);
#87=LINE('',#618,#108);
#88=LINE('',#619,#109);
#89=LINE('',#625,#110);
#90=LINE('',#631,#111);
#91=LINE('',#637,#112);
#92=LINE('',#643,#113);
#93=LINE('',#649,#114);
#94=LINE('',#655,#115);
#95=VECTOR('',#438,1.);
#96=VECTOR('',#441,1.);
#97=VECTOR('',#446,1.);
#98=VECTOR('',#453,1.);
#99=VECTOR('',#466,1.);
#100=VECTOR('',#473,0.8);
#101=VECTOR('',#480,2.);
#102=VECTOR('',#487,1.);
#103=VECTOR('',#488,1.);
#104=VECTOR('',#489,1.);
#105=VECTOR('',#490,1.);
#106=VECTOR('',#497,1.);
#107=VECTOR('',#500,1.);
#108=VECTOR('',#501,1.);
#109=VECTOR('',#502,1.);
#110=VECTOR('',#509,1.);
#111=VECTOR('',#516,1.);
#112=VECTOR('',#523,1.);
#113=VECTOR('',#530,1.);
#114=VECTOR('',#537,1.);
#115=VECTOR('',#544,1.);
#116=CIRCLE('',#383,6.2);
#117=CIRCLE('',#384,6.2);
#118=CIRCLE('',#386,0.800000000000001);
#119=CIRCLE('',#387,0.800000000000001);
#120=CIRCLE('',#389,7.8);
#121=CIRCLE('',#390,7.8);
#122=CIRCLE('',#392,0.8);
#123=CIRCLE('',#393,0.8);
#124=CIRCLE('',#395,1.);
#125=CIRCLE('',#396,1.);
#126=CIRCLE('',#398,0.8);
#127=CIRCLE('',#399,0.8);
#128=CIRCLE('',#401,2.);
#129=CIRCLE('',#402,2.);
#130=CIRCLE('',#406,0.799999999999999);
#131=CIRCLE('',#407,0.799999999999999);
#132=CIRCLE('',#410,2.5);
#133=CIRCLE('',#411,2.5);
#134=CIRCLE('',#413,2.5);
#135=CIRCLE('',#414,2.5);
#136=CIRCLE('',#416,3.2);
#137=CIRCLE('',#417,3.2);
#138=CIRCLE('',#419,1.5);
#139=CIRCLE('',#420,1.5);
#140=CIRCLE('',#422,8.5);
#141=CIRCLE('',#423,8.5);
#142=CIRCLE('',#425,3.);
#143=CIRCLE('',#426,3.);
#144=CIRCLE('',#428,3.);
#145=CIRCLE('',#429,3.);
#146=VERTEX_POINT('',#557);
#147=VERTEX_POINT('',#558);
#148=VERTEX_POINT('',#560);
#149=VERTEX_POINT('',#562);
#150=VERTEX_POINT('',#566);
#151=VERTEX_POINT('',#568);
#152=VERTEX_POINT('',#572);
#153=VERTEX_POINT('',#574);
#154=VERTEX_POINT('',#581);
#155=VERTEX_POINT('',#583);
#156=VERTEX_POINT('',#587);
#157=VERTEX_POINT('',#589);
#158=VERTEX_POINT('',#593);
#159=VERTEX_POINT('',#595);
#160=VERTEX_POINT('',#600);
#161=VERTEX_POINT('',#601);
#162=VERTEX_POINT('',#603);
#163=VERTEX_POINT('',#605);
#164=VERTEX_POINT('',#609);
#165=VERTEX_POINT('',#611);
#166=VERTEX_POINT('',#615);
#167=VERTEX_POINT('',#617);
#168=VERTEX_POINT('',#621);
#169=VERTEX_POINT('',#623);
#170=VERTEX_POINT('',#627);
#171=VERTEX_POINT('',#629);
#172=VERTEX_POINT('',#633);
#173=VERTEX_POINT('',#635);
#174=VERTEX_POINT('',#639);
#175=VERTEX_POINT('',#641);
#176=VERTEX_POINT('',#645);
#177=VERTEX_POINT('',#647);
#178=VERTEX_POINT('',#651);
#179=VERTEX_POINT('',#653);
#180=EDGE_CURVE('',#146,#147,#116,.T.);
#181=EDGE_CURVE('',#146,#148,#74,.T.);
#182=EDGE_CURVE('',#149,#148,#117,.T.);
#183=EDGE_CURVE('',#147,#149,#75,.T.);
#184=EDGE_CURVE('',#150,#146,#118,.T.);
#185=EDGE_CURVE('',#150,#151,#76,.T.);
#186=EDGE_CURVE('',#148,#151,#119,.T.);
#187=EDGE_CURVE('',#152,#150,#120,.T.);
#188=EDGE_CURVE('',#152,#153,#77,.T.);
#189=EDGE_CURVE('',#151,#153,#121,.T.);
#190=EDGE_CURVE('',#147,#152,#122,.T.);
#191=EDGE_CURVE('',#153,#149,#123,.T.);
#192=EDGE_CURVE('',#154,#154,#124,.T.);
#193=EDGE_CURVE('',#154,#155,#78,.T.);
#194=EDGE_CURVE('',#155,#155,#125,.T.);
#195=EDGE_CURVE('',#156,#156,#126,.T.);
#196=EDGE_CURVE('',#156,#157,#79,.T.);
#197=EDGE_CURVE('',#157,#157,#127,.T.);
#198=EDGE_CURVE('',#158,#158,#128,.T.);
#199=EDGE_CURVE('',#158,#159,#80,.T.);
#200=EDGE_CURVE('',#159,#159,#129,.T.);
#201=EDGE_CURVE('',#160,#161,#81,.T.);
#202=EDGE_CURVE('',#160,#162,#82,.T.);
#203=EDGE_CURVE('',#163,#162,#83,.T.);
#204=EDGE_CURVE('',#161,#163,#84,.T.);
#205=EDGE_CURVE('',#164,#161,#130,.T.);
#206=EDGE_CURVE('',#165,#163,#131,.T.);
#207=EDGE_CURVE('',#164,#165,#85,.T.);
#208=EDGE_CURVE('',#164,#166,#86,.T.);
#209=EDGE_CURVE('',#167,#165,#87,.T.);
#210=EDGE_CURVE('',#166,#167,#88,.T.);
#211=EDGE_CURVE('',#166,#168,#132,.T.);
#212=EDGE_CURVE('',#169,#167,#133,.T.);
#213=EDGE_CURVE('',#168,#169,#89,.T.);
#214=EDGE_CURVE('',#170,#168,#134,.T.);
#215=EDGE_CURVE('',#171,#169,#135,.T.);
#216=EDGE_CURVE('',#170,#171,#90,.T.);
#217=EDGE_CURVE('',#170,#172,#136,.T.);
#218=EDGE_CURVE('',#173,#171,#137,.T.);
#219=EDGE_CURVE('',#172,#173,#91,.T.);
#220=EDGE_CURVE('',#174,#172,#138,.T.);
#221=EDGE_CURVE('',#175,#173,#139,.T.);
#222=EDGE_CURVE('',#174,#175,#92,.T.);
#223=EDGE_CURVE('',#176,#174,#140,.T.);
#224=EDGE_CURVE('',#177,#175,#141,.T.);
#225=EDGE_CURVE('',#176,#177,#93,.T.);
#226=EDGE_CURVE('',#178,#176,#142,.T.);
#227=EDGE_CURVE('',#179,#177,#143,.T.);
#228=EDGE_CURVE('',#178,#179,#94,.T.);
#229=EDGE_CURVE('',#160,#178,#144,.T.);
#230=EDGE_CURVE('',#162,#179,#145,.T.);
#231=ORIENTED_EDGE('',*,*,#180,.F.);
#232=ORIENTED_EDGE('',*,*,#181,.T.);
#233=ORIENTED_EDGE('',*,*,#182,.F.);
#234=ORIENTED_EDGE('',*,*,#183,.F.);
#235=ORIENTED_EDGE('',*,*,#184,.F.);
#236=ORIENTED_EDGE('',*,*,#185,.T.);
#237=ORIENTED_EDGE('',*,*,#186,.F.);
#238=ORIENTED_EDGE('',*,*,#181,.F.);
#239=ORIENTED_EDGE('',*,*,#187,.F.);
#240=ORIENTED_EDGE('',*,*,#188,.T.);
#241=ORIENTED_EDGE('',*,*,#189,.F.);
#242=ORIENTED_EDGE('',*,*,#185,.F.);
#243=ORIENTED_EDGE('',*,*,#190,.F.);
#244=ORIENTED_EDGE('',*,*,#183,.T.);
#245=ORIENTED_EDGE('',*,*,#191,.F.);
#246=ORIENTED_EDGE('',*,*,#188,.F.);
#247=ORIENTED_EDGE('',*,*,#192,.F.);
#248=ORIENTED_EDGE('',*,*,#193,.T.);
#249=ORIENTED_EDGE('',*,*,#194,.F.);
#250=ORIENTED_EDGE('',*,*,#193,.F.);
#251=ORIENTED_EDGE('',*,*,#195,.F.);
#252=ORIENTED_EDGE('',*,*,#196,.T.);
#253=ORIENTED_EDGE('',*,*,#197,.F.);
#254=ORIENTED_EDGE('',*,*,#196,.F.);
#255=ORIENTED_EDGE('',*,*,#198,.F.);
#256=ORIENTED_EDGE('',*,*,#199,.T.);
#257=ORIENTED_EDGE('',*,*,#200,.F.);
#258=ORIENTED_EDGE('',*,*,#199,.F.);
#259=ORIENTED_EDGE('',*,*,#198,.T.);
#260=ORIENTED_EDGE('',*,*,#194,.T.);
#261=ORIENTED_EDGE('',*,*,#201,.F.);
#262=ORIENTED_EDGE('',*,*,#202,.T.);
#263=ORIENTED_EDGE('',*,*,#203,.F.);
#264=ORIENTED_EDGE('',*,*,#204,.F.);
#265=ORIENTED_EDGE('',*,*,#205,.T.);
#266=ORIENTED_EDGE('',*,*,#204,.T.);
#267=ORIENTED_EDGE('',*,*,#206,.F.);
#268=ORIENTED_EDGE('',*,*,#207,.F.);
#269=ORIENTED_EDGE('',*,*,#208,.F.);
#270=ORIENTED_EDGE('',*,*,#207,.T.);
#271=ORIENTED_EDGE('',*,*,#209,.F.);
#272=ORIENTED_EDGE('',*,*,#210,.F.);
#273=ORIENTED_EDGE('',*,*,#211,.F.);
#274=ORIENTED_EDGE('',*,*,#210,.T.);
#275=ORIENTED_EDGE('',*,*,#212,.F.);
#276=ORIENTED_EDGE('',*,*,#213,.F.);
#277=ORIENTED_EDGE('',*,*,#214,.T.);
#278=ORIENTED_EDGE('',*,*,#213,.T.);
#279=ORIENTED_EDGE('',*,*,#215,.F.);
#280=ORIENTED_EDGE('',*,*,#216,.F.);
#281=ORIENTED_EDGE('',*,*,#217,.F.);
#282=ORIENTED_EDGE('',*,*,#216,.T.);
#283=ORIENTED_EDGE('',*,*,#218,.F.);
#284=ORIENTED_EDGE('',*,*,#219,.F.);
#285=ORIENTED_EDGE('',*,*,#220,.T.);
#286=ORIENTED_EDGE('',*,*,#219,.T.);
#287=ORIENTED_EDGE('',*,*,#221,.F.);
#288=ORIENTED_EDGE('',*,*,#222,.F.);
#289=ORIENTED_EDGE('',*,*,#223,.T.);
#290=ORIENTED_EDGE('',*,*,#222,.T.);
#291=ORIENTED_EDGE('',*,*,#224,.F.);
#292=ORIENTED_EDGE('',*,*,#225,.F.);
#293=ORIENTED_EDGE('',*,*,#226,.T.);
#294=ORIENTED_EDGE('',*,*,#225,.T.);
#295=ORIENTED_EDGE('',*,*,#227,.F.);
#296=ORIENTED_EDGE('',*,*,#228,.F.);
#297=ORIENTED_EDGE('',*,*,#229,.T.);
#298=ORIENTED_EDGE('',*,*,#228,.T.);
#299=ORIENTED_EDGE('',*,*,#230,.F.);
#300=ORIENTED_EDGE('',*,*,#202,.F.);
#301=ORIENTED_EDGE('',*,*,#230,.T.);
#302=ORIENTED_EDGE('',*,*,#227,.T.);
#303=ORIENTED_EDGE('',*,*,#224,.T.);
#304=ORIENTED_EDGE('',*,*,#221,.T.);
#305=ORIENTED_EDGE('',*,*,#218,.T.);
#306=ORIENTED_EDGE('',*,*,#215,.T.);
#307=ORIENTED_EDGE('',*,*,#212,.T.);
#308=ORIENTED_EDGE('',*,*,#209,.T.);
#309=ORIENTED_EDGE('',*,*,#206,.T.);
#310=ORIENTED_EDGE('',*,*,#203,.T.);
#311=ORIENTED_EDGE('',*,*,#182,.T.);
#312=ORIENTED_EDGE('',*,*,#186,.T.);
#313=ORIENTED_EDGE('',*,*,#189,.T.);
#314=ORIENTED_EDGE('',*,*,#191,.T.);
#315=ORIENTED_EDGE('',*,*,#197,.T.);
#316=ORIENTED_EDGE('',*,*,#200,.T.);
#317=ORIENTED_EDGE('',*,*,#229,.F.);
#318=ORIENTED_EDGE('',*,*,#201,.T.);
#319=ORIENTED_EDGE('',*,*,#205,.F.);
#320=ORIENTED_EDGE('',*,*,#208,.T.);
#321=ORIENTED_EDGE('',*,*,#211,.T.);
#322=ORIENTED_EDGE('',*,*,#214,.F.);
#323=ORIENTED_EDGE('',*,*,#217,.T.);
#324=ORIENTED_EDGE('',*,*,#220,.F.);
#325=ORIENTED_EDGE('',*,*,#223,.F.);
#326=ORIENTED_EDGE('',*,*,#226,.F.);
#327=ORIENTED_EDGE('',*,*,#180,.T.);
#328=ORIENTED_EDGE('',*,*,#190,.T.);
#329=ORIENTED_EDGE('',*,*,#187,.T.);
#330=ORIENTED_EDGE('',*,*,#184,.T.);
#331=ORIENTED_EDGE('',*,*,#192,.T.);
#332=ORIENTED_EDGE('',*,*,#195,.T.);
#333=CYLINDRICAL_SURFACE('',#382,6.2);
#334=CYLINDRICAL_SURFACE('',#385,0.800000000000001);
#335=CYLINDRICAL_SURFACE('',#388,7.8);
#336=CYLINDRICAL_SURFACE('',#391,0.8);
#337=CYLINDRICAL_SURFACE('',#394,1.);
#338=CYLINDRICAL_SURFACE('',#397,0.8);
#339=CYLINDRICAL_SURFACE('',#400,2.);
#340=CYLINDRICAL_SURFACE('',#405,0.799999999999999);
#341=CYLINDRICAL_SURFACE('',#409,2.5);
#342=CYLINDRICAL_SURFACE('',#412,2.5);
#343=CYLINDRICAL_SURFACE('',#415,3.2);
#344=CYLINDRICAL_SURFACE('',#418,1.5);
#345=CYLINDRICAL_SURFACE('',#421,8.5);
#346=CYLINDRICAL_SURFACE('',#424,3.);
#347=CYLINDRICAL_SURFACE('',#427,3.);
#348=ADVANCED_FACE('',(#27),#333,.T.);
#349=ADVANCED_FACE('',(#28),#334,.F.);
#350=ADVANCED_FACE('',(#29),#335,.F.);
#351=ADVANCED_FACE('',(#30),#336,.F.);
#352=ADVANCED_FACE('',(#31),#337,.F.);
#353=ADVANCED_FACE('',(#32),#338,.F.);
#354=ADVANCED_FACE('',(#33),#339,.T.);
#355=ADVANCED_FACE('',(#34,#15),#22,.T.);
#356=ADVANCED_FACE('',(#35),#23,.T.);
#357=ADVANCED_FACE('',(#36),#340,.T.);
#358=ADVANCED_FACE('',(#37),#24,.T.);
#359=ADVANCED_FACE('',(#38),#341,.F.);
#360=ADVANCED_FACE('',(#39),#342,.T.);
#361=ADVANCED_FACE('',(#40),#343,.F.);
#362=ADVANCED_FACE('',(#41),#344,.T.);
#363=ADVANCED_FACE('',(#42),#345,.T.);
#364=ADVANCED_FACE('',(#43),#346,.T.);
#365=ADVANCED_FACE('',(#44),#347,.T.);
#366=ADVANCED_FACE('',(#45,#16,#17,#18),#25,.T.);
#367=ADVANCED_FACE('',(#46,#19,#20,#21),#26,.F.);
#368=CLOSED_SHELL('',(#348,#349,#350,#351,#352,#353,#354,#355,#356,#357,
#358,#359,#360,#361,#362,#363,#364,#365,#366,#367));
#369=DERIVED_UNIT_ELEMENT(#371,1.);
#370=DERIVED_UNIT_ELEMENT(#666,-3.);
#371=(
MASS_UNIT()
NAMED_UNIT(*)
SI_UNIT(.KILO.,.GRAM.)
);
#372=DERIVED_UNIT((#369,#370));
#373=MEASURE_REPRESENTATION_ITEM('density measure',
POSITIVE_RATIO_MEASURE(7850.),#372);
#374=PROPERTY_DEFINITION_REPRESENTATION(#379,#376);
#375=PROPERTY_DEFINITION_REPRESENTATION(#380,#377);
#376=REPRESENTATION('material name',(#378),#663);
#377=REPRESENTATION('density',(#373),#663);
#378=DESCRIPTIVE_REPRESENTATION_ITEM('Steel','Steel');
#379=PROPERTY_DEFINITION('material property','material name',#673);
#380=PROPERTY_DEFINITION('material property','density of part',#673);
#381=AXIS2_PLACEMENT_3D('',#555,#432,#433);
#382=AXIS2_PLACEMENT_3D('',#556,#434,#435);
#383=AXIS2_PLACEMENT_3D('',#559,#436,#437);
#384=AXIS2_PLACEMENT_3D('',#563,#439,#440);
#385=AXIS2_PLACEMENT_3D('',#565,#442,#443);
#386=AXIS2_PLACEMENT_3D('',#567,#444,#445);
#387=AXIS2_PLACEMENT_3D('',#570,#447,#448);
#388=AXIS2_PLACEMENT_3D('',#571,#449,#450);
#389=AXIS2_PLACEMENT_3D('',#573,#451,#452);
#390=AXIS2_PLACEMENT_3D('',#576,#454,#455);
#391=AXIS2_PLACEMENT_3D('',#577,#456,#457);
#392=AXIS2_PLACEMENT_3D('',#578,#458,#459);
#393=AXIS2_PLACEMENT_3D('',#579,#460,#461);
#394=AXIS2_PLACEMENT_3D('',#580,#462,#463);
#395=AXIS2_PLACEMENT_3D('',#582,#464,#465);
#396=AXIS2_PLACEMENT_3D('',#585,#467,#468);
#397=AXIS2_PLACEMENT_3D('',#586,#469,#470);
#398=AXIS2_PLACEMENT_3D('',#588,#471,#472);
#399=AXIS2_PLACEMENT_3D('',#591,#474,#475);
#400=AXIS2_PLACEMENT_3D('',#592,#476,#477);
#401=AXIS2_PLACEMENT_3D('',#594,#478,#479);
#402=AXIS2_PLACEMENT_3D('',#597,#481,#482);
#403=AXIS2_PLACEMENT_3D('',#598,#483,#484);
#404=AXIS2_PLACEMENT_3D('',#599,#485,#486);
#405=AXIS2_PLACEMENT_3D('',#608,#491,#492);
#406=AXIS2_PLACEMENT_3D('',#610,#493,#494);
#407=AXIS2_PLACEMENT_3D('',#612,#495,#496);
#408=AXIS2_PLACEMENT_3D('',#614,#498,#499);
#409=AXIS2_PLACEMENT_3D('',#620,#503,#504);
#410=AXIS2_PLACEMENT_3D('',#622,#505,#506);
#411=AXIS2_PLACEMENT_3D('',#624,#507,#508);
#412=AXIS2_PLACEMENT_3D('',#626,#510,#511);
#413=AXIS2_PLACEMENT_3D('',#628,#512,#513);
#414=AXIS2_PLACEMENT_3D('',#630,#514,#515);
#415=AXIS2_PLACEMENT_3D('',#632,#517,#518);
#416=AXIS2_PLACEMENT_3D('',#634,#519,#520);
#417=AXIS2_PLACEMENT_3D('',#636,#521,#522);
#418=AXIS2_PLACEMENT_3D('',#638,#524,#525);
#419=AXIS2_PLACEMENT_3D('',#640,#526,#527);
#420=AXIS2_PLACEMENT_3D('',#642,#528,#529);
#421=AXIS2_PLACEMENT_3D('',#644,#531,#532);
#422=AXIS2_PLACEMENT_3D('',#646,#533,#534);
#423=AXIS2_PLACEMENT_3D('',#648,#535,#536);
#424=AXIS2_PLACEMENT_3D('',#650,#538,#539);
#425=AXIS2_PLACEMENT_3D('',#652,#540,#541);
#426=AXIS2_PLACEMENT_3D('',#654,#542,#543);
#427=AXIS2_PLACEMENT_3D('',#656,#545,#546);
#428=AXIS2_PLACEMENT_3D('',#657,#547,#548);
#429=AXIS2_PLACEMENT_3D('',#658,#549,#550);
#430=AXIS2_PLACEMENT_3D('',#659,#551,#552);
#431=AXIS2_PLACEMENT_3D('',#660,#553,#554);
#432=DIRECTION('axis',(0.,0.,1.));
#433=DIRECTION('refdir',(1.,0.,0.));
#434=DIRECTION('center_axis',(0.,0.,1.));
#435=DIRECTION('ref_axis',(-0.743144825477394,0.669130606358858,0.));
#436=DIRECTION('center_axis',(0.,0.,-1.));
#437=DIRECTION('ref_axis',(-0.743144825477394,0.669130606358858,0.));
#438=DIRECTION('',(0.,0.,1.));
#439=DIRECTION('center_axis',(0.,0.,1.));
#440=DIRECTION('ref_axis',(-0.743144825477394,0.669130606358858,0.));
#441=DIRECTION('',(0.,0.,1.));
#442=DIRECTION('center_axis',(0.,0.,1.));
#443=DIRECTION('ref_axis',(-1.,1.22464679914735E-16,0.));
#444=DIRECTION('center_axis',(0.,0.,1.));
#445=DIRECTION('ref_axis',(-1.,1.22464679914735E-16,0.));
#446=DIRECTION('',(0.,0.,1.));
#447=DIRECTION('center_axis',(0.,0.,-1.));
#448=DIRECTION('ref_axis',(-1.,1.22464679914735E-16,0.));
#449=DIRECTION('center_axis',(0.,0.,1.));
#450=DIRECTION('ref_axis',(-0.743144825477394,0.669130606358858,0.));
#451=DIRECTION('center_axis',(0.,0.,1.));
#452=DIRECTION('ref_axis',(-0.743144825477394,0.669130606358858,0.));
#453=DIRECTION('',(0.,0.,1.));
#454=DIRECTION('center_axis',(0.,0.,-1.));
#455=DIRECTION('ref_axis',(-0.743144825477394,0.669130606358858,0.));
#456=DIRECTION('center_axis',(0.,0.,1.));
#457=DIRECTION('ref_axis',(0.743144825477394,-0.669130606358858,0.));
#458=DIRECTION('center_axis',(0.,0.,1.));
#459=DIRECTION('ref_axis',(0.743144825477394,-0.669130606358858,0.));
#460=DIRECTION('center_axis',(0.,0.,-1.));
#461=DIRECTION('ref_axis',(0.743144825477394,-0.669130606358858,0.));
#462=DIRECTION('center_axis',(0.,0.,1.));
#463=DIRECTION('ref_axis',(1.,0.,0.));
#464=DIRECTION('center_axis',(0.,0.,1.));
#465=DIRECTION('ref_axis',(1.,0.,0.));
#466=DIRECTION('',(0.,0.,1.));
#467=DIRECTION('center_axis',(0.,0.,-1.));
#468=DIRECTION('ref_axis',(1.,0.,0.));
#469=DIRECTION('center_axis',(0.,0.,1.));
#470=DIRECTION('ref_axis',(1.,0.,0.));
#471=DIRECTION('center_axis',(0.,0.,1.));
#472=DIRECTION('ref_axis',(1.,0.,0.));
#473=DIRECTION('',(0.,0.,1.));
#474=DIRECTION('center_axis',(0.,0.,-1.));
#475=DIRECTION('ref_axis',(1.,0.,0.));
#476=DIRECTION('center_axis',(0.,0.,1.));
#477=DIRECTION('ref_axis',(1.,0.,0.));
#478=DIRECTION('center_axis',(0.,0.,1.));
#479=DIRECTION('ref_axis',(1.,0.,0.));
#480=DIRECTION('',(0.,0.,-1.));
#481=DIRECTION('center_axis',(0.,0.,-1.));
#482=DIRECTION('ref_axis',(1.,0.,0.));
#483=DIRECTION('center_axis',(0.,0.,1.));
#484=DIRECTION('ref_axis',(1.,0.,0.));
#485=DIRECTION('center_axis',(0.912293805805534,0.409536337690388,0.));
#486=DIRECTION('ref_axis',(-0.409536337690388,0.912293805805534,0.));
#487=DIRECTION('',(0.409536337690388,-0.912293805805534,0.));
#488=DIRECTION('',(0.,0.,1.));
#489=DIRECTION('',(-0.409536337690388,0.912293805805534,0.));
#490=DIRECTION('',(0.,0.,1.));
#491=DIRECTION('center_axis',(0.,0.,1.));
#492=DIRECTION('ref_axis',(-0.707106781186547,-0.707106781186548,0.));
#493=DIRECTION('center_axis',(0.,0.,1.));
#494=DIRECTION('ref_axis',(-0.707106781186547,-0.707106781186548,0.));
#495=DIRECTION('center_axis',(0.,0.,1.));
#496=DIRECTION('ref_axis',(-0.707106781186547,-0.707106781186548,0.));
#497=DIRECTION('',(0.,0.,1.));
#498=DIRECTION('center_axis',(-0.707106781186548,-0.707106781186548,0.));
#499=DIRECTION('ref_axis',(0.707106781186548,-0.707106781186548,0.));
#500=DIRECTION('',(-0.707106781186548,0.707106781186548,0.));
#501=DIRECTION('',(0.707106781186548,-0.707106781186548,0.));
#502=DIRECTION('',(0.,0.,1.));
#503=DIRECTION('center_axis',(0.,0.,1.));
#504=DIRECTION('ref_axis',(0.0109587154444249,0.999939951474991,0.));
#505=DIRECTION('center_axis',(0.,0.,1.));
#506=DIRECTION('ref_axis',(0.0109587154444249,0.999939951474991,0.));
#507=DIRECTION('center_axis',(0.,0.,-1.));
#508=DIRECTION('ref_axis',(0.0109587154444249,0.999939951474991,0.));
#509=DIRECTION('',(0.,0.,1.));
#510=DIRECTION('center_axis',(0.,0.,1.));
#511=DIRECTION('ref_axis',(-0.264776892962702,-0.964309699709081,0.));
#512=DIRECTION('center_axis',(0.,0.,1.));
#513=DIRECTION('ref_axis',(-0.955202916196516,0.295951666475576,0.));
#514=DIRECTION('center_axis',(0.,0.,1.));
#515=DIRECTION('ref_axis',(-0.955202916196516,0.295951666475576,0.));
#516=DIRECTION('',(0.,0.,1.));
#517=DIRECTION('center_axis',(0.,0.,1.));
#518=DIRECTION('ref_axis',(0.955202916196516,-0.295951666475577,0.));
#519=DIRECTION('center_axis',(0.,0.,1.));
#520=DIRECTION('ref_axis',(0.955202916196516,-0.295951666475577,0.));
#521=DIRECTION('center_axis',(0.,0.,-1.));
#522=DIRECTION('ref_axis',(0.955202916196516,-0.295951666475577,0.));
#523=DIRECTION('',(0.,0.,1.));
#524=DIRECTION('center_axis',(0.,0.,1.));
#525=DIRECTION('ref_axis',(-1.,-1.11022302462516E-16,0.));
#526=DIRECTION('center_axis',(0.,0.,1.));
#527=DIRECTION('ref_axis',(-1.,-1.11022302462516E-16,0.));
#528=DIRECTION('center_axis',(0.,0.,1.));
#529=DIRECTION('ref_axis',(-1.,-1.11022302462516E-16,0.));
#530=DIRECTION('',(0.,0.,1.));
#531=DIRECTION('center_axis',(0.,0.,1.));
#532=DIRECTION('ref_axis',(-0.743144825477394,0.669130606358858,0.));
#533=DIRECTION('center_axis',(0.,0.,1.));
#534=DIRECTION('ref_axis',(-0.743144825477394,0.669130606358858,0.));
#535=DIRECTION('center_axis',(0.,0.,1.));
#536=DIRECTION('ref_axis',(-0.743144825477394,0.669130606358858,0.));
#537=DIRECTION('',(0.,0.,1.));
#538=DIRECTION('center_axis',(0.,0.,1.));
#539=DIRECTION('ref_axis',(0.835288246724662,-0.549812281495821,0.));
#540=DIRECTION('center_axis',(0.,0.,1.));
#541=DIRECTION('ref_axis',(0.835288246724662,-0.549812281495821,0.));
#542=DIRECTION('center_axis',(0.,0.,1.));
#543=DIRECTION('ref_axis',(0.835288246724662,-0.549812281495821,0.));
#544=DIRECTION('',(0.,0.,1.));
#545=DIRECTION('center_axis',(0.,0.,1.));
#546=DIRECTION('ref_axis',(0.912293805805534,0.409536337690388,0.));
#547=DIRECTION('center_axis',(0.,0.,1.));
#548=DIRECTION('ref_axis',(0.912293805805534,0.409536337690388,0.));
#549=DIRECTION('center_axis',(0.,0.,1.));
#550=DIRECTION('ref_axis',(0.912293805805534,0.409536337690388,0.));
#551=DIRECTION('center_axis',(0.,0.,1.));
#552=DIRECTION('ref_axis',(1.,0.,0.));
#553=DIRECTION('center_axis',(0.,0.,1.));
#554=DIRECTION('ref_axis',(1.,0.,0.));
#555=CARTESIAN_POINT('',(0.,0.,0.));
#556=CARTESIAN_POINT('Origin',(0.,0.,0.));
#557=CARTESIAN_POINT('',(-6.2,0.,0.));
#558=CARTESIAN_POINT('',(-4.60749791795984,4.14860975942492,0.));
#559=CARTESIAN_POINT('Origin',(0.,0.,0.));
#560=CARTESIAN_POINT('',(-6.2,0.,1.));
#561=CARTESIAN_POINT('',(-6.2,0.,0.));
#562=CARTESIAN_POINT('',(-4.60749791795984,4.14860975942492,1.));
#563=CARTESIAN_POINT('Origin',(0.,0.,1.));
#564=CARTESIAN_POINT('',(-4.60749791795984,4.14860975942492,0.));
#565=CARTESIAN_POINT('Origin',(-7.,8.57252759403147E-16,0.));
#566=CARTESIAN_POINT('',(-7.8,9.55224503334936E-16,0.));
#567=CARTESIAN_POINT('Origin',(-7.,8.57252759403147E-16,0.));
#568=CARTESIAN_POINT('',(-7.8,8.88178419700125E-16,1.));
#569=CARTESIAN_POINT('',(-7.8,9.55224503334936E-16,0.));
#570=CARTESIAN_POINT('Origin',(-7.,8.57252759403147E-16,1.));
#571=CARTESIAN_POINT('Origin',(0.,0.,0.));
#572=CARTESIAN_POINT('',(-5.79652962744298,5.21921874212758,0.));
#573=CARTESIAN_POINT('Origin',(0.,0.,0.));
#574=CARTESIAN_POINT('',(-5.79652962744298,5.21921874212758,1.));
#575=CARTESIAN_POINT('',(-5.79652962744298,5.21921874212758,0.));
#576=CARTESIAN_POINT('Origin',(0.,0.,1.));
#577=CARTESIAN_POINT('Origin',(-5.20201377834176,4.68391424451201,0.));
#578=CARTESIAN_POINT('Origin',(-5.20201377834176,4.68391424451201,0.));
#579=CARTESIAN_POINT('Origin',(-5.20201377834176,4.68391424451201,1.));
#580=CARTESIAN_POINT('Origin',(0.,0.,0.));
#581=CARTESIAN_POINT('',(-1.,-1.22464679914735E-16,0.));
#582=CARTESIAN_POINT('Origin',(0.,0.,0.));
#583=CARTESIAN_POINT('',(-1.,-1.22464679914735E-16,1.3));
#584=CARTESIAN_POINT('',(-1.,-1.22464679914735E-16,0.));
#585=CARTESIAN_POINT('Origin',(0.,0.,1.3));
#586=CARTESIAN_POINT('Origin',(-1.,-6.354,0.));
#587=CARTESIAN_POINT('',(-1.8,-6.354,0.));
#588=CARTESIAN_POINT('Origin',(-1.,-6.354,0.));
#589=CARTESIAN_POINT('',(-1.8,-6.354,1.));
#590=CARTESIAN_POINT('',(-1.8,-6.354,0.));
#591=CARTESIAN_POINT('Origin',(-1.,-6.354,1.));
#592=CARTESIAN_POINT('Origin',(0.,0.,0.));
#593=CARTESIAN_POINT('',(-2.,-2.44929359829471E-16,1.3));
#594=CARTESIAN_POINT('Origin',(0.,0.,1.3));
#595=CARTESIAN_POINT('',(-2.,2.44929359829471E-16,1.));
#596=CARTESIAN_POINT('',(-2.,-2.44929359829471E-16,0.));
#597=CARTESIAN_POINT('Origin',(0.,0.,1.));
#598=CARTESIAN_POINT('Origin',(0.,0.,1.3));
#599=CARTESIAN_POINT('Origin',(7.09379607532335,-6.03633196052662,0.));
#600=CARTESIAN_POINT('',(3.66131435763891,1.60995365906996,0.));
#601=CARTESIAN_POINT('',(7.09379607532335,-6.03633196052662,0.));
#602=CARTESIAN_POINT('',(3.66131435763891,1.60995365906996,0.));
#603=CARTESIAN_POINT('',(3.66131435763891,1.60995365906996,1.));
#604=CARTESIAN_POINT('',(3.66131435763891,1.60995365906996,0.));
#605=CARTESIAN_POINT('',(7.09379607532335,-6.03633196052662,1.));
#606=CARTESIAN_POINT('',(3.66131435763891,1.60995365906996,1.));
#607=CARTESIAN_POINT('',(7.09379607532335,-6.03633196052662,0.));
#608=CARTESIAN_POINT('Origin',(6.36396103067893,-6.36396103067893,0.));
#609=CARTESIAN_POINT('',(5.79827560572969,-6.92964645562817,0.));
#610=CARTESIAN_POINT('Origin',(6.36396103067893,-6.36396103067893,0.));
#611=CARTESIAN_POINT('',(5.79827560572969,-6.92964645562817,1.));
#612=CARTESIAN_POINT('Origin',(6.36396103067893,-6.36396103067893,1.));
#613=CARTESIAN_POINT('',(5.79827560572969,-6.92964645562817,0.));
#614=CARTESIAN_POINT('Origin',(3.8893934353171,-5.02076428521558,0.));
#615=CARTESIAN_POINT('',(3.8893934353171,-5.02076428521558,0.));
#616=CARTESIAN_POINT('',(5.79827560572969,-6.92964645562817,0.));
#617=CARTESIAN_POINT('',(3.8893934353171,-5.02076428521558,1.));
#618=CARTESIAN_POINT('',(5.79827560572969,-6.92964645562817,1.));
#619=CARTESIAN_POINT('',(3.8893934353171,-5.02076428521558,0.));
#620=CARTESIAN_POINT('Origin',(3.86199664670604,-7.52061416390306,0.));
#621=CARTESIAN_POINT('',(1.43099832335302,-6.93730708195152,0.));
#622=CARTESIAN_POINT('Origin',(3.86199664670604,-7.52061416390306,0.));
#623=CARTESIAN_POINT('',(1.43099832335302,-6.93730708195153,1.));
#624=CARTESIAN_POINT('Origin',(3.86199664670604,-7.52061416390306,1.));
#625=CARTESIAN_POINT('',(1.43099832335302,-6.93730708195152,0.));
#626=CARTESIAN_POINT('Origin',(-1.,-6.354,0.));
#627=CARTESIAN_POINT('',(-3.38800729049129,-5.61412083381106,0.));
#628=CARTESIAN_POINT('Origin',(-1.,-6.354,0.));
#629=CARTESIAN_POINT('',(-3.38800729049129,-5.61412083381106,1.));
#630=CARTESIAN_POINT('Origin',(-1.,-6.354,1.));
#631=CARTESIAN_POINT('',(-3.38800729049129,-5.61412083381106,0.));
#632=CARTESIAN_POINT('Origin',(-6.44465662232014,-4.66707550108921,0.));
#633=CARTESIAN_POINT('',(-6.8227627518043,-1.48949218119869,0.));
#634=CARTESIAN_POINT('Origin',(-6.44465662232014,-4.66707550108921,0.));
#635=CARTESIAN_POINT('',(-6.8227627518043,-1.48949218119869,1.));
#636=CARTESIAN_POINT('Origin',(-6.44465662232014,-4.66707550108921,1.));
#637=CARTESIAN_POINT('',(-6.8227627518043,-1.48949218119869,0.));
#638=CARTESIAN_POINT('Origin',(-7.,0.,0.));
#639=CARTESIAN_POINT('',(-8.5,-1.66533453693773E-16,0.));
#640=CARTESIAN_POINT('Origin',(-7.,0.,0.));
#641=CARTESIAN_POINT('',(-8.5,-2.22044604925031E-16,1.));
#642=CARTESIAN_POINT('Origin',(-7.,0.,1.));
#643=CARTESIAN_POINT('',(-8.5,-1.66533453693773E-16,0.));
#644=CARTESIAN_POINT('Origin',(0.,0.,0.));
#645=CARTESIAN_POINT('',(-6.31673101655785,5.6876101540503,0.));
#646=CARTESIAN_POINT('Origin',(0.,0.,0.));
#647=CARTESIAN_POINT('',(-6.31673101655785,5.6876101540503,1.));
#648=CARTESIAN_POINT('Origin',(0.,0.,1.));
#649=CARTESIAN_POINT('',(-6.31673101655785,5.6876101540503,0.));
#650=CARTESIAN_POINT('Origin',(-4.08729654012567,3.68021833497372,0.));
#651=CARTESIAN_POINT('',(-1.58143179995168,2.03078149048626,0.));
#652=CARTESIAN_POINT('Origin',(-4.08729654012567,3.68021833497372,0.));
#653=CARTESIAN_POINT('',(-1.58143179995168,2.03078149048626,1.));
#654=CARTESIAN_POINT('Origin',(-4.08729654012567,3.68021833497372,1.));
#655=CARTESIAN_POINT('',(-1.58143179995168,2.03078149048626,0.));
#656=CARTESIAN_POINT('Origin',(0.924432940222305,0.381344645998793,0.));
#657=CARTESIAN_POINT('Origin',(0.924432940222305,0.381344645998793,0.));
#658=CARTESIAN_POINT('Origin',(0.924432940222305,0.381344645998793,1.));
#659=CARTESIAN_POINT('Origin',(-0.668019484660537,-1.08689083251314,1.));
#660=CARTESIAN_POINT('Origin',(-0.668019484660537,-1.08689083251314,0.));
#661=UNCERTAINTY_MEASURE_WITH_UNIT(LENGTH_MEASURE(0.001),#665,
'DISTANCE_ACCURACY_VALUE',
'Maximum model space distance between geometric entities at asserted c
onnectivities');
#662=UNCERTAINTY_MEASURE_WITH_UNIT(LENGTH_MEASURE(0.001),#665,
'DISTANCE_ACCURACY_VALUE',
'Maximum model space distance between geometric entities at asserted c
onnectivities');
#663=(
GEOMETRIC_REPRESENTATION_CONTEXT(3)
GLOBAL_UNCERTAINTY_ASSIGNED_CONTEXT((#661))
GLOBAL_UNIT_ASSIGNED_CONTEXT((#665,#667,#668))
REPRESENTATION_CONTEXT('','3D')
);
#664=(
GEOMETRIC_REPRESENTATION_CONTEXT(3)
GLOBAL_UNCERTAINTY_ASSIGNED_CONTEXT((#662))
GLOBAL_UNIT_ASSIGNED_CONTEXT((#665,#667,#668))
REPRESENTATION_CONTEXT('','3D')
);
#665=(
LENGTH_UNIT()
NAMED_UNIT(*)
SI_UNIT(.CENTI.,.METRE.)
);
#666=(
LENGTH_UNIT()
NAMED_UNIT(*)
SI_UNIT($,.METRE.)
);
#667=(
NAMED_UNIT(*)
PLANE_ANGLE_UNIT()
SI_UNIT($,.RADIAN.)
);
#668=(
NAMED_UNIT(*)
SI_UNIT($,.STERADIAN.)
SOLID_ANGLE_UNIT()
);
#669=SHAPE_DEFINITION_REPRESENTATION(#670,#671);
#670=PRODUCT_DEFINITION_SHAPE('',$,#673);
#671=SHAPE_REPRESENTATION('',(#381),#663);
#672=PRODUCT_DEFINITION_CONTEXT('part definition',#677,'design');
#673=PRODUCT_DEFINITION('(Unsaved)','(Unsaved)',#674,#672);
#674=PRODUCT_DEFINITION_FORMATION('',$,#679);
#675=PRODUCT_RELATED_PRODUCT_CATEGORY('(Unsaved)','(Unsaved)',(#679));
#676=APPLICATION_PROTOCOL_DEFINITION('international standard',
'automotive_design',2009,#677);
#677=APPLICATION_CONTEXT(
'Core Data for Automotive Mechanical Design Process');
#678=PRODUCT_CONTEXT('part definition',#677,'mechanical');
#679=PRODUCT('(Unsaved)','(Unsaved)',$,(#678));
#680=PRESENTATION_STYLE_ASSIGNMENT((#681));
#681=SURFACE_STYLE_USAGE(.BOTH.,#682);
#682=SURFACE_SIDE_STYLE('',(#683));
#683=SURFACE_STYLE_FILL_AREA(#684);
#684=FILL_AREA_STYLE('Steel - Satin',(#685));
#685=FILL_AREA_STYLE_COLOUR('Steel - Satin',#686);
#686=COLOUR_RGB('Steel - Satin',0.627450980392157,0.627450980392157,0.627450980392157);
ENDSEC;
END-ISO-10303-21;
