ISO-10303-21;
HEADER;
/* Generated by software containing ST-Developer
 * from STEP Tools, Inc. (www.steptools.com) 
 */

FILE_DESCRIPTION(
/* description */ (''),
/* implementation_level */ '2;1');

FILE_NAME(
/* name */ 'base_boss.stp',
/* time_stamp */ '2026-08-22T02:57:13+02:00',
/* author */ (''),
/* organization */ (''),
/* preprocessor_version */ 'ST-DEVELOPER v20.1',
/* originating_system */ 'Autodesk Translation Framework v15.8.0.0',
/* authorisation */ '');

FILE_SCHEMA (('AUTOMOTIVE_DESIGN { 1 0 10303 214 3 1 1 }'));
ENDSEC;

DATA;
#10=MECHANICAL_DESIGN_GEOMETRIC_PRESENTATION_REPRESENTATION('',(#13),#909);
#11=SHAPE_REPRESENTATION_RELATIONSHIP('SRR','None',#916,#12);
#12=ADVANCED_BREP_SHAPE_REPRESENTATION('',(#14),#908);
#13=STYLED_ITEM('',(#925),#14);
#14=MANIFOLD_SOLID_BREP('Body19',#507);
#15=FACE_BOUND('',#73,.T.);
#16=FACE_BOUND('',#90,.T.);
#17=FACE_BOUND('',#93,.T.);
#18=FACE_BOUND('',#95,.T.);
#19=B_SPLINE_CURVE_WITH_KNOTS('',3,(#733,#734,#735,#736,#737,#738,#739,
#740,#741,#742,#743,#744,#745,#746,#747,#748,#749,#750,#751,#752,#753,#754,
#755,#756,#757,#758,#759,#760,#761,#762,#763,#764,#765,#766,#767),
 .UNSPECIFIED.,.F.,.F.,(4,2,2,2,2,2,2,2,3,2,2,2,2,2,2,2,4),(-2.88063304129505,
-2.66866919343568,-2.38615352404886,-2.08205416260279,-1.77795480115672,
-1.16975607826459,-0.584878039132294,-0.292439019566148,0.,0.29755284610847,
0.595105692216941,1.19021138443388,1.78831916042949,2.08737304842729,2.38642693642509,
2.66894260581192,2.88090645364413),.UNSPECIFIED.);
#20=B_SPLINE_CURVE_WITH_KNOTS('',3,(#784,#785,#786,#787,#788,#789,#790,
#791,#792,#793,#794,#795,#796,#797,#798,#799,#800,#801,#802),
 .UNSPECIFIED.,.F.,.F.,(4,2,2,2,3,2,2,2,4),(3.66336326420964,3.70069130768078,
3.98373119615083,4.26672515772338,4.54971911929593,4.83323053493399,5.11674195057205,
5.39926405861987,5.43610221179975),.UNSPECIFIED.);
#21=B_SPLINE_CURVE_WITH_KNOTS('',3,(#825,#826,#827,#828,#829,#830,#831,
#832,#833,#834,#835,#836,#837,#838,#839,#840,#841,#842),.UNSPECIFIED.,.F.,
 .F.,(4,2,2,2,2,2,2,2,4),(1.38847614078742,1.4253142939673,1.70783640201512,
1.99134781765318,2.27485923329124,2.55785319486379,2.84084715643634,3.12388704490639,
3.16121508837753),.UNSPECIFIED.);
#22=CIRCLE('',#526,0.5);
#23=CIRCLE('',#527,0.5);
#24=CIRCLE('',#529,1.5);
#25=CIRCLE('',#530,1.5);
#26=CIRCLE('',#531,1.5);
#27=CIRCLE('',#535,3.);
#28=CIRCLE('',#536,3.);
#29=CIRCLE('',#538,0.75);
#30=CIRCLE('',#540,0.75);
#31=CIRCLE('',#542,3.);
#32=CIRCLE('',#543,3.);
#33=CIRCLE('',#545,0.75);
#34=CIRCLE('',#547,0.75);
#35=CYLINDRICAL_SURFACE('',#525,0.5);
#36=CYLINDRICAL_SURFACE('',#528,1.5);
#37=CYLINDRICAL_SURFACE('',#534,3.);
#38=CYLINDRICAL_SURFACE('',#541,3.);
#39=CYLINDRICAL_SURFACE('',#548,0.75);
#40=FACE_OUTER_BOUND('',#66,.T.);
#41=FACE_OUTER_BOUND('',#67,.T.);
#42=FACE_OUTER_BOUND('',#68,.T.);
#43=FACE_OUTER_BOUND('',#69,.T.);
#44=FACE_OUTER_BOUND('',#70,.T.);
#45=FACE_OUTER_BOUND('',#71,.T.);
#46=FACE_OUTER_BOUND('',#72,.T.);
#47=FACE_OUTER_BOUND('',#74,.T.);
#48=FACE_OUTER_BOUND('',#75,.T.);
#49=FACE_OUTER_BOUND('',#76,.T.);
#50=FACE_OUTER_BOUND('',#77,.T.);
#51=FACE_OUTER_BOUND('',#78,.T.);
#52=FACE_OUTER_BOUND('',#79,.T.);
#53=FACE_OUTER_BOUND('',#80,.T.);
#54=FACE_OUTER_BOUND('',#81,.T.);
#55=FACE_OUTER_BOUND('',#82,.T.);
#56=FACE_OUTER_BOUND('',#83,.T.);
#57=FACE_OUTER_BOUND('',#84,.T.);
#58=FACE_OUTER_BOUND('',#85,.T.);
#59=FACE_OUTER_BOUND('',#86,.T.);
#60=FACE_OUTER_BOUND('',#87,.T.);
#61=FACE_OUTER_BOUND('',#88,.T.);
#62=FACE_OUTER_BOUND('',#89,.T.);
#63=FACE_OUTER_BOUND('',#91,.T.);
#64=FACE_OUTER_BOUND('',#92,.T.);
#65=FACE_OUTER_BOUND('',#94,.T.);
#66=EDGE_LOOP('',(#320,#321,#322,#323));
#67=EDGE_LOOP('',(#324,#325,#326,#327));
#68=EDGE_LOOP('',(#328,#329,#330,#331));
#69=EDGE_LOOP('',(#332,#333,#334,#335));
#70=EDGE_LOOP('',(#336,#337,#338,#339));
#71=EDGE_LOOP('',(#340,#341,#342,#343,#344,#345));
#72=EDGE_LOOP('',(#346));
#73=EDGE_LOOP('',(#347));
#74=EDGE_LOOP('',(#348,#349,#350,#351));
#75=EDGE_LOOP('',(#352,#353,#354,#355,#356,#357,#358,#359));
#76=EDGE_LOOP('',(#360,#361,#362,#363,#364));
#77=EDGE_LOOP('',(#365,#366,#367,#368,#369));
#78=EDGE_LOOP('',(#370,#371,#372,#373,#374,#375));
#79=EDGE_LOOP('',(#376,#377,#378,#379,#380));
#80=EDGE_LOOP('',(#381,#382,#383,#384,#385));
#81=EDGE_LOOP('',(#386,#387,#388,#389,#390,#391,#392,#393));
#82=EDGE_LOOP('',(#394,#395,#396,#397));
#83=EDGE_LOOP('',(#398,#399,#400,#401));
#84=EDGE_LOOP('',(#402,#403,#404,#405));
#85=EDGE_LOOP('',(#406,#407,#408,#409));
#86=EDGE_LOOP('',(#410,#411,#412,#413));
#87=EDGE_LOOP('',(#414,#415,#416,#417));
#88=EDGE_LOOP('',(#418,#419,#420,#421));
#89=EDGE_LOOP('',(#422,#423,#424,#425));
#90=EDGE_LOOP('',(#426));
#91=EDGE_LOOP('',(#427,#428,#429,#430,#431));
#92=EDGE_LOOP('',(#432,#433,#434,#435,#436,#437,#438,#439,#440,#441));
#93=EDGE_LOOP('',(#442,#443,#444,#445));
#94=EDGE_LOOP('',(#446,#447,#448,#449,#450,#451,#452,#453,#454,#455));
#95=EDGE_LOOP('',(#456,#457,#458,#459));
#96=LINE('',#698,#150);
#97=LINE('',#700,#151);
#98=LINE('',#702,#152);
#99=LINE('',#703,#153);
#100=LINE('',#706,#154);
#101=LINE('',#708,#155);
#102=LINE('',#709,#156);
#103=LINE('',#712,#157);
#104=LINE('',#714,#158);
#105=LINE('',#715,#159);
#106=LINE('',#717,#160);
#107=LINE('',#718,#161);
#108=LINE('',#723,#162);
#109=LINE('',#729,#163);
#110=LINE('',#772,#164);
#111=LINE('',#774,#165);
#112=LINE('',#775,#166);
#113=LINE('',#778,#167);
#114=LINE('',#782,#168);
#115=LINE('',#804,#169);
#116=LINE('',#808,#170);
#117=LINE('',#810,#171);
#118=LINE('',#812,#172);
#119=LINE('',#818,#173);
#120=LINE('',#820,#174);
#121=LINE('',#821,#175);
#122=LINE('',#844,#176);
#123=LINE('',#848,#177);
#124=LINE('',#851,#178);
#125=LINE('',#854,#179);
#126=LINE('',#856,#180);
#127=LINE('',#858,#181);
#128=LINE('',#864,#182);
#129=LINE('',#866,#183);
#130=LINE('',#867,#184);
#131=LINE('',#869,#185);
#132=LINE('',#870,#186);
#133=LINE('',#872,#187);
#134=LINE('',#874,#188);
#135=LINE('',#876,#189);
#136=LINE('',#878,#190);
#137=LINE('',#881,#191);
#138=LINE('',#883,#192);
#139=LINE('',#884,#193);
#140=LINE('',#887,#194);
#141=LINE('',#888,#195);
#142=LINE('',#891,#196);
#143=LINE('',#893,#197);
#144=LINE('',#894,#198);
#145=LINE('',#897,#199);
#146=LINE('',#899,#200);
#147=LINE('',#900,#201);
#148=LINE('',#902,#202);
#149=LINE('',#903,#203);
#150=VECTOR('',#564,1.);
#151=VECTOR('',#565,1.);
#152=VECTOR('',#566,1.);
#153=VECTOR('',#567,1.);
#154=VECTOR('',#570,1.);
#155=VECTOR('',#571,1.);
#156=VECTOR('',#572,1.);
#157=VECTOR('',#575,1.);
#158=VECTOR('',#576,1.);
#159=VECTOR('',#577,1.);
#160=VECTOR('',#580,1.);
#161=VECTOR('',#581,1.);
#162=VECTOR('',#586,0.5);
#163=VECTOR('',#593,1.5);
#164=VECTOR('',#602,1.);
#165=VECTOR('',#603,1.);
#166=VECTOR('',#604,1.);
#167=VECTOR('',#607,1.);
#168=VECTOR('',#610,1.);
#169=VECTOR('',#611,1.);
#170=VECTOR('',#616,1.);
#171=VECTOR('',#617,1.);
#172=VECTOR('',#618,1.);
#173=VECTOR('',#625,1.);
#174=VECTOR('',#626,1.);
#175=VECTOR('',#627,1.);
#176=VECTOR('',#630,1.);
#177=VECTOR('',#633,1.);
#178=VECTOR('',#636,1.);
#179=VECTOR('',#639,1.);
#180=VECTOR('',#640,1.);
#181=VECTOR('',#641,1.);
#182=VECTOR('',#648,1.);
#183=VECTOR('',#649,1.);
#184=VECTOR('',#650,1.);
#185=VECTOR('',#653,1.);
#186=VECTOR('',#654,1.);
#187=VECTOR('',#657,1.);
#188=VECTOR('',#660,1.);
#189=VECTOR('',#663,1.);
#190=VECTOR('',#666,1.);
#191=VECTOR('',#669,1.);
#192=VECTOR('',#670,1.);
#193=VECTOR('',#671,1.);
#194=VECTOR('',#674,1.);
#195=VECTOR('',#675,1.);
#196=VECTOR('',#678,1.);
#197=VECTOR('',#679,1.);
#198=VECTOR('',#680,1.);
#199=VECTOR('',#683,1.);
#200=VECTOR('',#684,1.);
#201=VECTOR('',#685,1.);
#202=VECTOR('',#688,1.);
#203=VECTOR('',#689,1.);
#204=VERTEX_POINT('',#696);
#205=VERTEX_POINT('',#697);
#206=VERTEX_POINT('',#699);
#207=VERTEX_POINT('',#701);
#208=VERTEX_POINT('',#705);
#209=VERTEX_POINT('',#707);
#210=VERTEX_POINT('',#711);
#211=VERTEX_POINT('',#713);
#212=VERTEX_POINT('',#720);
#213=VERTEX_POINT('',#722);
#214=VERTEX_POINT('',#726);
#215=VERTEX_POINT('',#728);
#216=VERTEX_POINT('',#730);
#217=VERTEX_POINT('',#732);
#218=VERTEX_POINT('',#771);
#219=VERTEX_POINT('',#773);
#220=VERTEX_POINT('',#777);
#221=VERTEX_POINT('',#779);
#222=VERTEX_POINT('',#781);
#223=VERTEX_POINT('',#783);
#224=VERTEX_POINT('',#803);
#225=VERTEX_POINT('',#807);
#226=VERTEX_POINT('',#809);
#227=VERTEX_POINT('',#811);
#228=VERTEX_POINT('',#815);
#229=VERTEX_POINT('',#817);
#230=VERTEX_POINT('',#819);
#231=VERTEX_POINT('',#823);
#232=VERTEX_POINT('',#824);
#233=VERTEX_POINT('',#843);
#234=VERTEX_POINT('',#845);
#235=VERTEX_POINT('',#847);
#236=VERTEX_POINT('',#849);
#237=VERTEX_POINT('',#853);
#238=VERTEX_POINT('',#855);
#239=VERTEX_POINT('',#857);
#240=VERTEX_POINT('',#861);
#241=VERTEX_POINT('',#863);
#242=VERTEX_POINT('',#865);
#243=VERTEX_POINT('',#880);
#244=VERTEX_POINT('',#882);
#245=VERTEX_POINT('',#886);
#246=VERTEX_POINT('',#890);
#247=VERTEX_POINT('',#892);
#248=VERTEX_POINT('',#896);
#249=VERTEX_POINT('',#898);
#250=EDGE_CURVE('',#204,#205,#96,.T.);
#251=EDGE_CURVE('',#204,#206,#97,.T.);
#252=EDGE_CURVE('',#207,#206,#98,.T.);
#253=EDGE_CURVE('',#205,#207,#99,.T.);
#254=EDGE_CURVE('',#208,#204,#100,.T.);
#255=EDGE_CURVE('',#208,#209,#101,.T.);
#256=EDGE_CURVE('',#206,#209,#102,.T.);
#257=EDGE_CURVE('',#210,#208,#103,.T.);
#258=EDGE_CURVE('',#210,#211,#104,.T.);
#259=EDGE_CURVE('',#209,#211,#105,.T.);
#260=EDGE_CURVE('',#205,#210,#106,.T.);
#261=EDGE_CURVE('',#211,#207,#107,.T.);
#262=EDGE_CURVE('',#212,#212,#22,.T.);
#263=EDGE_CURVE('',#212,#213,#108,.T.);
#264=EDGE_CURVE('',#213,#213,#23,.T.);
#265=EDGE_CURVE('',#214,#214,#24,.T.);
#266=EDGE_CURVE('',#214,#215,#109,.T.);
#267=EDGE_CURVE('',#216,#215,#25,.T.);
#268=EDGE_CURVE('',#217,#216,#19,.T.);
#269=EDGE_CURVE('',#215,#217,#26,.T.);
#270=EDGE_CURVE('',#218,#217,#110,.T.);
#271=EDGE_CURVE('',#218,#219,#111,.T.);
#272=EDGE_CURVE('',#219,#215,#112,.T.);
#273=EDGE_CURVE('',#216,#220,#113,.T.);
#274=EDGE_CURVE('',#220,#221,#27,.T.);
#275=EDGE_CURVE('',#221,#222,#114,.T.);
#276=EDGE_CURVE('',#223,#222,#20,.F.);
#277=EDGE_CURVE('',#223,#224,#115,.T.);
#278=EDGE_CURVE('',#224,#218,#28,.T.);
#279=EDGE_CURVE('',#225,#221,#116,.T.);
#280=EDGE_CURVE('',#226,#225,#117,.T.);
#281=EDGE_CURVE('',#226,#227,#118,.T.);
#282=EDGE_CURVE('',#222,#227,#29,.T.);
#283=EDGE_CURVE('',#228,#223,#30,.T.);
#284=EDGE_CURVE('',#228,#229,#119,.T.);
#285=EDGE_CURVE('',#230,#229,#120,.T.);
#286=EDGE_CURVE('',#230,#224,#121,.T.);
#287=EDGE_CURVE('',#231,#232,#21,.F.);
#288=EDGE_CURVE('',#231,#233,#122,.T.);
#289=EDGE_CURVE('',#233,#234,#31,.T.);
#290=EDGE_CURVE('',#234,#235,#123,.T.);
#291=EDGE_CURVE('',#235,#236,#32,.T.);
#292=EDGE_CURVE('',#236,#232,#124,.T.);
#293=EDGE_CURVE('',#236,#237,#125,.T.);
#294=EDGE_CURVE('',#237,#238,#126,.T.);
#295=EDGE_CURVE('',#238,#239,#127,.T.);
#296=EDGE_CURVE('',#232,#239,#33,.T.);
#297=EDGE_CURVE('',#240,#231,#34,.T.);
#298=EDGE_CURVE('',#240,#241,#128,.T.);
#299=EDGE_CURVE('',#241,#242,#129,.T.);
#300=EDGE_CURVE('',#233,#242,#130,.T.);
#301=EDGE_CURVE('',#227,#240,#131,.T.);
#302=EDGE_CURVE('',#239,#228,#132,.T.);
#303=EDGE_CURVE('',#229,#238,#133,.T.);
#304=EDGE_CURVE('',#241,#226,#134,.T.);
#305=EDGE_CURVE('',#242,#225,#135,.T.);
#306=EDGE_CURVE('',#237,#230,#136,.T.);
#307=EDGE_CURVE('',#243,#234,#137,.T.);
#308=EDGE_CURVE('',#244,#243,#138,.T.);
#309=EDGE_CURVE('',#244,#235,#139,.T.);
#310=EDGE_CURVE('',#215,#245,#140,.T.);
#311=EDGE_CURVE('',#220,#245,#141,.T.);
#312=EDGE_CURVE('',#246,#244,#142,.T.);
#313=EDGE_CURVE('',#247,#243,#143,.T.);
#314=EDGE_CURVE('',#246,#247,#144,.T.);
#315=EDGE_CURVE('',#248,#246,#145,.T.);
#316=EDGE_CURVE('',#249,#247,#146,.T.);
#317=EDGE_CURVE('',#248,#249,#147,.T.);
#318=EDGE_CURVE('',#219,#248,#148,.T.);
#319=EDGE_CURVE('',#245,#249,#149,.T.);
#320=ORIENTED_EDGE('',*,*,#250,.F.);
#321=ORIENTED_EDGE('',*,*,#251,.T.);
#322=ORIENTED_EDGE('',*,*,#252,.F.);
#323=ORIENTED_EDGE('',*,*,#253,.F.);
#324=ORIENTED_EDGE('',*,*,#254,.F.);
#325=ORIENTED_EDGE('',*,*,#255,.T.);
#326=ORIENTED_EDGE('',*,*,#256,.F.);
#327=ORIENTED_EDGE('',*,*,#251,.F.);
#328=ORIENTED_EDGE('',*,*,#257,.F.);
#329=ORIENTED_EDGE('',*,*,#258,.T.);
#330=ORIENTED_EDGE('',*,*,#259,.F.);
#331=ORIENTED_EDGE('',*,*,#255,.F.);
#332=ORIENTED_EDGE('',*,*,#260,.F.);
#333=ORIENTED_EDGE('',*,*,#253,.T.);
#334=ORIENTED_EDGE('',*,*,#261,.F.);
#335=ORIENTED_EDGE('',*,*,#258,.F.);
#336=ORIENTED_EDGE('',*,*,#262,.F.);
#337=ORIENTED_EDGE('',*,*,#263,.T.);
#338=ORIENTED_EDGE('',*,*,#264,.F.);
#339=ORIENTED_EDGE('',*,*,#263,.F.);
#340=ORIENTED_EDGE('',*,*,#265,.F.);
#341=ORIENTED_EDGE('',*,*,#266,.T.);
#342=ORIENTED_EDGE('',*,*,#267,.F.);
#343=ORIENTED_EDGE('',*,*,#268,.F.);
#344=ORIENTED_EDGE('',*,*,#269,.F.);
#345=ORIENTED_EDGE('',*,*,#266,.F.);
#346=ORIENTED_EDGE('',*,*,#265,.T.);
#347=ORIENTED_EDGE('',*,*,#264,.T.);
#348=ORIENTED_EDGE('',*,*,#269,.T.);
#349=ORIENTED_EDGE('',*,*,#270,.F.);
#350=ORIENTED_EDGE('',*,*,#271,.T.);
#351=ORIENTED_EDGE('',*,*,#272,.T.);
#352=ORIENTED_EDGE('',*,*,#268,.T.);
#353=ORIENTED_EDGE('',*,*,#273,.T.);
#354=ORIENTED_EDGE('',*,*,#274,.T.);
#355=ORIENTED_EDGE('',*,*,#275,.T.);
#356=ORIENTED_EDGE('',*,*,#276,.F.);
#357=ORIENTED_EDGE('',*,*,#277,.T.);
#358=ORIENTED_EDGE('',*,*,#278,.T.);
#359=ORIENTED_EDGE('',*,*,#270,.T.);
#360=ORIENTED_EDGE('',*,*,#275,.F.);
#361=ORIENTED_EDGE('',*,*,#279,.F.);
#362=ORIENTED_EDGE('',*,*,#280,.F.);
#363=ORIENTED_EDGE('',*,*,#281,.T.);
#364=ORIENTED_EDGE('',*,*,#282,.F.);
#365=ORIENTED_EDGE('',*,*,#277,.F.);
#366=ORIENTED_EDGE('',*,*,#283,.F.);
#367=ORIENTED_EDGE('',*,*,#284,.T.);
#368=ORIENTED_EDGE('',*,*,#285,.F.);
#369=ORIENTED_EDGE('',*,*,#286,.T.);
#370=ORIENTED_EDGE('',*,*,#287,.F.);
#371=ORIENTED_EDGE('',*,*,#288,.T.);
#372=ORIENTED_EDGE('',*,*,#289,.T.);
#373=ORIENTED_EDGE('',*,*,#290,.T.);
#374=ORIENTED_EDGE('',*,*,#291,.T.);
#375=ORIENTED_EDGE('',*,*,#292,.T.);
#376=ORIENTED_EDGE('',*,*,#292,.F.);
#377=ORIENTED_EDGE('',*,*,#293,.T.);
#378=ORIENTED_EDGE('',*,*,#294,.T.);
#379=ORIENTED_EDGE('',*,*,#295,.T.);
#380=ORIENTED_EDGE('',*,*,#296,.F.);
#381=ORIENTED_EDGE('',*,*,#288,.F.);
#382=ORIENTED_EDGE('',*,*,#297,.F.);
#383=ORIENTED_EDGE('',*,*,#298,.T.);
#384=ORIENTED_EDGE('',*,*,#299,.T.);
#385=ORIENTED_EDGE('',*,*,#300,.F.);
#386=ORIENTED_EDGE('',*,*,#283,.T.);
#387=ORIENTED_EDGE('',*,*,#276,.T.);
#388=ORIENTED_EDGE('',*,*,#282,.T.);
#389=ORIENTED_EDGE('',*,*,#301,.T.);
#390=ORIENTED_EDGE('',*,*,#297,.T.);
#391=ORIENTED_EDGE('',*,*,#287,.T.);
#392=ORIENTED_EDGE('',*,*,#296,.T.);
#393=ORIENTED_EDGE('',*,*,#302,.T.);
#394=ORIENTED_EDGE('',*,*,#302,.F.);
#395=ORIENTED_EDGE('',*,*,#295,.F.);
#396=ORIENTED_EDGE('',*,*,#303,.F.);
#397=ORIENTED_EDGE('',*,*,#284,.F.);
#398=ORIENTED_EDGE('',*,*,#301,.F.);
#399=ORIENTED_EDGE('',*,*,#281,.F.);
#400=ORIENTED_EDGE('',*,*,#304,.F.);
#401=ORIENTED_EDGE('',*,*,#298,.F.);
#402=ORIENTED_EDGE('',*,*,#304,.T.);
#403=ORIENTED_EDGE('',*,*,#280,.T.);
#404=ORIENTED_EDGE('',*,*,#305,.F.);
#405=ORIENTED_EDGE('',*,*,#299,.F.);
#406=ORIENTED_EDGE('',*,*,#303,.T.);
#407=ORIENTED_EDGE('',*,*,#294,.F.);
#408=ORIENTED_EDGE('',*,*,#306,.T.);
#409=ORIENTED_EDGE('',*,*,#285,.T.);
#410=ORIENTED_EDGE('',*,*,#290,.F.);
#411=ORIENTED_EDGE('',*,*,#307,.F.);
#412=ORIENTED_EDGE('',*,*,#308,.F.);
#413=ORIENTED_EDGE('',*,*,#309,.T.);
#414=ORIENTED_EDGE('',*,*,#267,.T.);
#415=ORIENTED_EDGE('',*,*,#310,.T.);
#416=ORIENTED_EDGE('',*,*,#311,.F.);
#417=ORIENTED_EDGE('',*,*,#273,.F.);
#418=ORIENTED_EDGE('',*,*,#312,.T.);
#419=ORIENTED_EDGE('',*,*,#308,.T.);
#420=ORIENTED_EDGE('',*,*,#313,.F.);
#421=ORIENTED_EDGE('',*,*,#314,.F.);
#422=ORIENTED_EDGE('',*,*,#315,.T.);
#423=ORIENTED_EDGE('',*,*,#314,.T.);
#424=ORIENTED_EDGE('',*,*,#316,.F.);
#425=ORIENTED_EDGE('',*,*,#317,.F.);
#426=ORIENTED_EDGE('',*,*,#262,.T.);
#427=ORIENTED_EDGE('',*,*,#318,.T.);
#428=ORIENTED_EDGE('',*,*,#317,.T.);
#429=ORIENTED_EDGE('',*,*,#319,.F.);
#430=ORIENTED_EDGE('',*,*,#310,.F.);
#431=ORIENTED_EDGE('',*,*,#272,.F.);
#432=ORIENTED_EDGE('',*,*,#319,.T.);
#433=ORIENTED_EDGE('',*,*,#316,.T.);
#434=ORIENTED_EDGE('',*,*,#313,.T.);
#435=ORIENTED_EDGE('',*,*,#307,.T.);
#436=ORIENTED_EDGE('',*,*,#289,.F.);
#437=ORIENTED_EDGE('',*,*,#300,.T.);
#438=ORIENTED_EDGE('',*,*,#305,.T.);
#439=ORIENTED_EDGE('',*,*,#279,.T.);
#440=ORIENTED_EDGE('',*,*,#274,.F.);
#441=ORIENTED_EDGE('',*,*,#311,.T.);
#442=ORIENTED_EDGE('',*,*,#252,.T.);
#443=ORIENTED_EDGE('',*,*,#256,.T.);
#444=ORIENTED_EDGE('',*,*,#259,.T.);
#445=ORIENTED_EDGE('',*,*,#261,.T.);
#446=ORIENTED_EDGE('',*,*,#318,.F.);
#447=ORIENTED_EDGE('',*,*,#271,.F.);
#448=ORIENTED_EDGE('',*,*,#278,.F.);
#449=ORIENTED_EDGE('',*,*,#286,.F.);
#450=ORIENTED_EDGE('',*,*,#306,.F.);
#451=ORIENTED_EDGE('',*,*,#293,.F.);
#452=ORIENTED_EDGE('',*,*,#291,.F.);
#453=ORIENTED_EDGE('',*,*,#309,.F.);
#454=ORIENTED_EDGE('',*,*,#312,.F.);
#455=ORIENTED_EDGE('',*,*,#315,.F.);
#456=ORIENTED_EDGE('',*,*,#250,.T.);
#457=ORIENTED_EDGE('',*,*,#260,.T.);
#458=ORIENTED_EDGE('',*,*,#257,.T.);
#459=ORIENTED_EDGE('',*,*,#254,.T.);
#460=PLANE('',#521);
#461=PLANE('',#522);
#462=PLANE('',#523);
#463=PLANE('',#524);
#464=PLANE('',#532);
#465=PLANE('',#533);
#466=PLANE('',#537);
#467=PLANE('',#539);
#468=PLANE('',#544);
#469=PLANE('',#546);
#470=PLANE('',#549);
#471=PLANE('',#550);
#472=PLANE('',#551);
#473=PLANE('',#552);
#474=PLANE('',#553);
#475=PLANE('',#554);
#476=PLANE('',#555);
#477=PLANE('',#556);
#478=PLANE('',#557);
#479=PLANE('',#558);
#480=PLANE('',#559);
#481=ADVANCED_FACE('',(#40),#460,.F.);
#482=ADVANCED_FACE('',(#41),#461,.F.);
#483=ADVANCED_FACE('',(#42),#462,.F.);
#484=ADVANCED_FACE('',(#43),#463,.F.);
#485=ADVANCED_FACE('',(#44),#35,.F.);
#486=ADVANCED_FACE('',(#45),#36,.T.);
#487=ADVANCED_FACE('',(#46,#15),#464,.T.);
#488=ADVANCED_FACE('',(#47),#465,.T.);
#489=ADVANCED_FACE('',(#48),#37,.F.);
#490=ADVANCED_FACE('',(#49),#466,.T.);
#491=ADVANCED_FACE('',(#50),#467,.T.);
#492=ADVANCED_FACE('',(#51),#38,.F.);
#493=ADVANCED_FACE('',(#52),#468,.T.);
#494=ADVANCED_FACE('',(#53),#469,.T.);
#495=ADVANCED_FACE('',(#54),#39,.F.);
#496=ADVANCED_FACE('',(#55),#470,.F.);
#497=ADVANCED_FACE('',(#56),#471,.F.);
#498=ADVANCED_FACE('',(#57),#472,.T.);
#499=ADVANCED_FACE('',(#58),#473,.T.);
#500=ADVANCED_FACE('',(#59),#474,.T.);
#501=ADVANCED_FACE('',(#60),#475,.T.);
#502=ADVANCED_FACE('',(#61),#476,.T.);
#503=ADVANCED_FACE('',(#62,#16),#477,.T.);
#504=ADVANCED_FACE('',(#63),#478,.T.);
#505=ADVANCED_FACE('',(#64,#17),#479,.T.);
#506=ADVANCED_FACE('',(#65,#18),#480,.F.);
#507=CLOSED_SHELL('',(#481,#482,#483,#484,#485,#486,#487,#488,#489,#490,
#491,#492,#493,#494,#495,#496,#497,#498,#499,#500,#501,#502,#503,#504,#505,
#506));
#508=DERIVED_UNIT_ELEMENT(#510,1.);
#509=DERIVED_UNIT_ELEMENT(#911,-3.);
#510=(
MASS_UNIT()
NAMED_UNIT(*)
SI_UNIT(.KILO.,.GRAM.)
);
#511=DERIVED_UNIT((#508,#509));
#512=MEASURE_REPRESENTATION_ITEM('density measure',
POSITIVE_RATIO_MEASURE(7850.),#511);
#513=PROPERTY_DEFINITION_REPRESENTATION(#518,#515);
#514=PROPERTY_DEFINITION_REPRESENTATION(#519,#516);
#515=REPRESENTATION('material name',(#517),#908);
#516=REPRESENTATION('density',(#512),#908);
#517=DESCRIPTIVE_REPRESENTATION_ITEM('Steel','Steel');
#518=PROPERTY_DEFINITION('material property','material name',#918);
#519=PROPERTY_DEFINITION('material property','density of part',#918);
#520=AXIS2_PLACEMENT_3D('',#694,#560,#561);
#521=AXIS2_PLACEMENT_3D('',#695,#562,#563);
#522=AXIS2_PLACEMENT_3D('',#704,#568,#569);
#523=AXIS2_PLACEMENT_3D('',#710,#573,#574);
#524=AXIS2_PLACEMENT_3D('',#716,#578,#579);
#525=AXIS2_PLACEMENT_3D('',#719,#582,#583);
#526=AXIS2_PLACEMENT_3D('',#721,#584,#585);
#527=AXIS2_PLACEMENT_3D('',#724,#587,#588);
#528=AXIS2_PLACEMENT_3D('',#725,#589,#590);
#529=AXIS2_PLACEMENT_3D('',#727,#591,#592);
#530=AXIS2_PLACEMENT_3D('',#731,#594,#595);
#531=AXIS2_PLACEMENT_3D('',#768,#596,#597);
#532=AXIS2_PLACEMENT_3D('',#769,#598,#599);
#533=AXIS2_PLACEMENT_3D('',#770,#600,#601);
#534=AXIS2_PLACEMENT_3D('',#776,#605,#606);
#535=AXIS2_PLACEMENT_3D('',#780,#608,#609);
#536=AXIS2_PLACEMENT_3D('',#805,#612,#613);
#537=AXIS2_PLACEMENT_3D('',#806,#614,#615);
#538=AXIS2_PLACEMENT_3D('',#813,#619,#620);
#539=AXIS2_PLACEMENT_3D('',#814,#621,#622);
#540=AXIS2_PLACEMENT_3D('',#816,#623,#624);
#541=AXIS2_PLACEMENT_3D('',#822,#628,#629);
#542=AXIS2_PLACEMENT_3D('',#846,#631,#632);
#543=AXIS2_PLACEMENT_3D('',#850,#634,#635);
#544=AXIS2_PLACEMENT_3D('',#852,#637,#638);
#545=AXIS2_PLACEMENT_3D('',#859,#642,#643);
#546=AXIS2_PLACEMENT_3D('',#860,#644,#645);
#547=AXIS2_PLACEMENT_3D('',#862,#646,#647);
#548=AXIS2_PLACEMENT_3D('',#868,#651,#652);
#549=AXIS2_PLACEMENT_3D('',#871,#655,#656);
#550=AXIS2_PLACEMENT_3D('',#873,#658,#659);
#551=AXIS2_PLACEMENT_3D('',#875,#661,#662);
#552=AXIS2_PLACEMENT_3D('',#877,#664,#665);
#553=AXIS2_PLACEMENT_3D('',#879,#667,#668);
#554=AXIS2_PLACEMENT_3D('',#885,#672,#673);
#555=AXIS2_PLACEMENT_3D('',#889,#676,#677);
#556=AXIS2_PLACEMENT_3D('',#895,#681,#682);
#557=AXIS2_PLACEMENT_3D('',#901,#686,#687);
#558=AXIS2_PLACEMENT_3D('',#904,#690,#691);
#559=AXIS2_PLACEMENT_3D('',#905,#692,#693);
#560=DIRECTION('axis',(0.,0.,1.));
#561=DIRECTION('refdir',(1.,0.,0.));
#562=DIRECTION('center_axis',(0.,1.,0.));
#563=DIRECTION('ref_axis',(-1.,0.,0.));
#564=DIRECTION('',(-1.,0.,0.));
#565=DIRECTION('',(0.,0.,1.));
#566=DIRECTION('',(1.,0.,0.));
#567=DIRECTION('',(0.,0.,1.));
#568=DIRECTION('center_axis',(1.,0.,0.));
#569=DIRECTION('ref_axis',(0.,1.,0.));
#570=DIRECTION('',(0.,1.,0.));
#571=DIRECTION('',(0.,0.,1.));
#572=DIRECTION('',(0.,-1.,0.));
#573=DIRECTION('center_axis',(0.,-1.,0.));
#574=DIRECTION('ref_axis',(1.,0.,0.));
#575=DIRECTION('',(1.,0.,0.));
#576=DIRECTION('',(0.,0.,1.));
#577=DIRECTION('',(-1.,0.,0.));
#578=DIRECTION('center_axis',(-1.,0.,0.));
#579=DIRECTION('ref_axis',(0.,-1.,0.));
#580=DIRECTION('',(0.,-1.,0.));
#581=DIRECTION('',(0.,1.,0.));
#582=DIRECTION('center_axis',(0.,1.,0.));
#583=DIRECTION('ref_axis',(1.,0.,0.));
#584=DIRECTION('center_axis',(0.,1.,0.));
#585=DIRECTION('ref_axis',(1.,0.,0.));
#586=DIRECTION('',(0.,1.,0.));
#587=DIRECTION('center_axis',(0.,-1.,0.));
#588=DIRECTION('ref_axis',(1.,0.,0.));
#589=DIRECTION('center_axis',(0.,1.,0.));
#590=DIRECTION('ref_axis',(1.,0.,0.));
#591=DIRECTION('center_axis',(0.,1.,0.));
#592=DIRECTION('ref_axis',(1.,0.,0.));
#593=DIRECTION('',(0.,-1.,0.));
#594=DIRECTION('center_axis',(0.,-1.,0.));
#595=DIRECTION('ref_axis',(1.,0.,0.));
#596=DIRECTION('center_axis',(0.,-1.,0.));
#597=DIRECTION('ref_axis',(1.,0.,0.));
#598=DIRECTION('center_axis',(0.,1.,0.));
#599=DIRECTION('ref_axis',(1.,0.,0.));
#600=DIRECTION('center_axis',(0.,1.,0.));
#601=DIRECTION('ref_axis',(-1.,0.,0.));
#602=DIRECTION('',(0.,0.,1.));
#603=DIRECTION('',(-1.,0.,0.));
#604=DIRECTION('',(0.,0.,1.));
#605=DIRECTION('center_axis',(0.,0.,-1.));
#606=DIRECTION('ref_axis',(0.707106781186547,-0.707106781186547,0.));
#607=DIRECTION('',(0.,0.,1.));
#608=DIRECTION('center_axis',(0.,0.,1.));
#609=DIRECTION('ref_axis',(0.707106781186547,-0.707106781186547,0.));
#610=DIRECTION('',(0.,0.,-1.));
#611=DIRECTION('',(0.,0.,-1.));
#612=DIRECTION('center_axis',(0.,0.,-1.));
#613=DIRECTION('ref_axis',(0.707106781186547,-0.707106781186547,0.));
#614=DIRECTION('center_axis',(-1.,0.,0.));
#615=DIRECTION('ref_axis',(0.,-1.,0.));
#616=DIRECTION('',(0.,-1.,0.));
#617=DIRECTION('',(0.,0.,1.));
#618=DIRECTION('',(0.,-1.,0.));
#619=DIRECTION('center_axis',(-1.,0.,0.));
#620=DIRECTION('ref_axis',(0.,-0.707106781186547,-0.707106781186547));
#621=DIRECTION('center_axis',(-1.,0.,0.));
#622=DIRECTION('ref_axis',(0.,-1.,0.));
#623=DIRECTION('center_axis',(-1.,0.,0.));
#624=DIRECTION('ref_axis',(0.,-0.707106781186547,-0.707106781186547));
#625=DIRECTION('',(0.,1.,0.));
#626=DIRECTION('',(0.,0.,1.));
#627=DIRECTION('',(0.,-1.,0.));
#628=DIRECTION('center_axis',(0.,0.,1.));
#629=DIRECTION('ref_axis',(-0.707106781186547,-0.707106781186547,0.));
#630=DIRECTION('',(0.,0.,1.));
#631=DIRECTION('center_axis',(0.,0.,1.));
#632=DIRECTION('ref_axis',(-0.707106781186547,-0.707106781186547,0.));
#633=DIRECTION('',(0.,0.,-1.));
#634=DIRECTION('center_axis',(0.,0.,-1.));
#635=DIRECTION('ref_axis',(-0.707106781186547,-0.707106781186547,0.));
#636=DIRECTION('',(0.,0.,1.));
#637=DIRECTION('center_axis',(1.,0.,0.));
#638=DIRECTION('ref_axis',(0.,1.,0.));
#639=DIRECTION('',(0.,1.,0.));
#640=DIRECTION('',(0.,0.,1.));
#641=DIRECTION('',(0.,-1.,0.));
#642=DIRECTION('center_axis',(1.,0.,0.));
#643=DIRECTION('ref_axis',(0.,-0.707106781186547,0.707106781186547));
#644=DIRECTION('center_axis',(1.,0.,0.));
#645=DIRECTION('ref_axis',(0.,1.,0.));
#646=DIRECTION('center_axis',(1.,0.,0.));
#647=DIRECTION('ref_axis',(0.,-0.707106781186547,0.707106781186547));
#648=DIRECTION('',(0.,1.,0.));
#649=DIRECTION('',(0.,0.,1.));
#650=DIRECTION('',(0.,1.,0.));
#651=DIRECTION('center_axis',(1.,0.,0.));
#652=DIRECTION('ref_axis',(0.,-0.707106781186547,-0.707106781186547));
#653=DIRECTION('',(1.,0.,0.));
#654=DIRECTION('',(-1.,0.,0.));
#655=DIRECTION('center_axis',(0.,0.,-1.));
#656=DIRECTION('ref_axis',(-1.,0.,0.));
#657=DIRECTION('',(1.,0.,0.));
#658=DIRECTION('center_axis',(0.,0.,1.));
#659=DIRECTION('ref_axis',(1.,0.,0.));
#660=DIRECTION('',(-1.,0.,0.));
#661=DIRECTION('center_axis',(0.,1.,0.));
#662=DIRECTION('ref_axis',(-1.,0.,0.));
#663=DIRECTION('',(-1.,0.,0.));
#664=DIRECTION('center_axis',(0.,1.,0.));
#665=DIRECTION('ref_axis',(-1.,0.,0.));
#666=DIRECTION('',(-1.,0.,0.));
#667=DIRECTION('center_axis',(0.,1.,0.));
#668=DIRECTION('ref_axis',(-1.,0.,0.));
#669=DIRECTION('',(-1.,0.,0.));
#670=DIRECTION('',(0.,0.,1.));
#671=DIRECTION('',(-1.,0.,0.));
#672=DIRECTION('center_axis',(0.,1.,0.));
#673=DIRECTION('ref_axis',(-1.,0.,0.));
#674=DIRECTION('',(0.,0.,1.));
#675=DIRECTION('',(-1.,0.,0.));
#676=DIRECTION('center_axis',(1.,0.,0.));
#677=DIRECTION('ref_axis',(0.,1.,0.));
#678=DIRECTION('',(0.,1.,0.));
#679=DIRECTION('',(0.,1.,0.));
#680=DIRECTION('',(0.,0.,1.));
#681=DIRECTION('center_axis',(0.,-1.,0.));
#682=DIRECTION('ref_axis',(1.,0.,0.));
#683=DIRECTION('',(1.,0.,0.));
#684=DIRECTION('',(1.,0.,0.));
#685=DIRECTION('',(0.,0.,1.));
#686=DIRECTION('center_axis',(-1.,0.,0.));
#687=DIRECTION('ref_axis',(0.,-1.,0.));
#688=DIRECTION('',(0.,-1.,0.));
#689=DIRECTION('',(0.,-1.,0.));
#690=DIRECTION('center_axis',(0.,0.,1.));
#691=DIRECTION('ref_axis',(1.,0.,0.));
#692=DIRECTION('center_axis',(0.,0.,1.));
#693=DIRECTION('ref_axis',(1.,0.,0.));
#694=CARTESIAN_POINT('',(0.,0.,0.));
#695=CARTESIAN_POINT('Origin',(5.5,1.5,0.));
#696=CARTESIAN_POINT('',(5.5,1.5,0.));
#697=CARTESIAN_POINT('',(4.,1.5,0.));
#698=CARTESIAN_POINT('',(5.125,1.5,0.));
#699=CARTESIAN_POINT('',(5.5,1.5,4.));
#700=CARTESIAN_POINT('',(5.5,1.5,0.));
#701=CARTESIAN_POINT('',(4.,1.5,4.));
#702=CARTESIAN_POINT('',(5.125,1.5,4.));
#703=CARTESIAN_POINT('',(4.,1.5,0.));
#704=CARTESIAN_POINT('Origin',(5.5,1.2,0.));
#705=CARTESIAN_POINT('',(5.5,1.2,0.));
#706=CARTESIAN_POINT('',(5.5,0.975,0.));
#707=CARTESIAN_POINT('',(5.5,1.2,4.));
#708=CARTESIAN_POINT('',(5.5,1.2,0.));
#709=CARTESIAN_POINT('',(5.5,0.975,4.));
#710=CARTESIAN_POINT('Origin',(4.,1.2,0.));
#711=CARTESIAN_POINT('',(4.,1.2,0.));
#712=CARTESIAN_POINT('',(4.375,1.2,0.));
#713=CARTESIAN_POINT('',(4.,1.2,4.));
#714=CARTESIAN_POINT('',(4.,1.2,0.));
#715=CARTESIAN_POINT('',(4.375,1.2,4.));
#716=CARTESIAN_POINT('Origin',(4.,1.5,0.));
#717=CARTESIAN_POINT('',(4.,1.125,0.));
#718=CARTESIAN_POINT('',(4.,1.125,4.));
#719=CARTESIAN_POINT('Origin',(1.5,0.,2.));
#720=CARTESIAN_POINT('',(1.,0.,2.));
#721=CARTESIAN_POINT('Origin',(1.5,0.,2.));
#722=CARTESIAN_POINT('',(1.,3.,2.));
#723=CARTESIAN_POINT('',(1.,0.,2.));
#724=CARTESIAN_POINT('Origin',(1.5,3.,2.));
#725=CARTESIAN_POINT('Origin',(1.5,1.5,2.));
#726=CARTESIAN_POINT('',(0.,3.,2.));
#727=CARTESIAN_POINT('Origin',(1.5,3.,2.));
#728=CARTESIAN_POINT('',(0.,1.5,2.));
#729=CARTESIAN_POINT('',(0.,1.5,2.));
#730=CARTESIAN_POINT('',(1.,1.5,3.41421356237309));
#731=CARTESIAN_POINT('Origin',(1.5,1.5,2.));
#732=CARTESIAN_POINT('',(1.,1.5,0.585786437626905));
#733=CARTESIAN_POINT('Ctrl Pts',(1.,1.5,0.585786437626905));
#734=CARTESIAN_POINT('Ctrl Pts',(1.070328929912,1.5,0.560921405999722));
#735=CARTESIAN_POINT('Ctrl Pts',(1.14235405038472,1.50250612430801,0.54140734309351));
#736=CARTESIAN_POINT('Ctrl Pts',(1.31069856546452,1.51457458698465,0.508771108929777));
#737=CARTESIAN_POINT('Ctrl Pts',(1.40714526444065,1.52626479348426,0.5));
#738=CARTESIAN_POINT('Ctrl Pts',(1.59994867135025,1.55885451741942,0.5));
#739=CARTESIAN_POINT('Ctrl Pts',(1.70173429337968,1.58138578617086,0.510135370297889));
#740=CARTESIAN_POINT('Ctrl Pts',(1.90146571302786,1.63676764552115,0.551131951782947));
#741=CARTESIAN_POINT('Ctrl Pts',(1.99941888189969,1.66960875618961,0.581970053135014));
#742=CARTESIAN_POINT('Ctrl Pts',(2.27816346876749,1.77858331784706,0.701780437832485));
#743=CARTESIAN_POINT('Ctrl Pts',(2.443589668718,1.86572927513341,0.819187143131817));
#744=CARTESIAN_POINT('Ctrl Pts',(2.69870467215153,2.02290881425264,1.08066382737623));
#745=CARTESIAN_POINT('Ctrl Pts',(2.80940004601226,2.10512086168632,1.24245696800656));
#746=CARTESIAN_POINT('Ctrl Pts',(2.92239741381802,2.19636543644891,1.51380548316981));
#747=CARTESIAN_POINT('Ctrl Pts',(2.95154856919233,2.22137744053451,1.60907011381379));
#748=CARTESIAN_POINT('Ctrl Pts',(2.99036074207122,2.25520007402665,1.80341852093376));
#749=CARTESIAN_POINT('Ctrl Pts',(3.,2.26393202250021,1.90252032681128));
#750=CARTESIAN_POINT('Ctrl Pts',(3.,2.26393202250021,2.));
#751=CARTESIAN_POINT('Ctrl Pts',(3.,2.26393202250021,2.09918428203616));
#752=CARTESIAN_POINT('Ctrl Pts',(2.99002398546268,2.25489198133123,2.19989747301497));
#753=CARTESIAN_POINT('Ctrl Pts',(2.9499605798839,2.22000894518643,2.39717099502192));
#754=CARTESIAN_POINT('Ctrl Pts',(2.91989567972088,2.19424991265868,2.49375073029266));
#755=CARTESIAN_POINT('Ctrl Pts',(2.80345241859769,2.10052309144563,2.76849711451686));
#756=CARTESIAN_POINT('Ctrl Pts',(2.68948602434673,2.01637543890796,2.93183431921292));
#757=CARTESIAN_POINT('Ctrl Pts',(2.43118444137219,1.85903517037612,3.19013590218746));
#758=CARTESIAN_POINT('Ctrl Pts',(2.267258847819,1.77368260782278,3.30423209901995));
#759=CARTESIAN_POINT('Ctrl Pts',(1.99191623093568,1.66701745394554,3.42054403026234));
#760=CARTESIAN_POINT('Ctrl Pts',(1.89528773548104,1.63488595703421,3.45045713345039));
#761=CARTESIAN_POINT('Ctrl Pts',(1.69847826623689,1.58065988273874,3.49019618430128));
#762=CARTESIAN_POINT('Ctrl Pts',(1.59829037004673,1.55857421333896,3.5));
#763=CARTESIAN_POINT('Ctrl Pts',(1.40714526444065,1.52626479348426,3.5));
#764=CARTESIAN_POINT('Ctrl Pts',(1.31069856546452,1.51457458698465,3.49122889107022));
#765=CARTESIAN_POINT('Ctrl Pts',(1.14235405039397,1.50250612430867,3.45859265690828));
#766=CARTESIAN_POINT('Ctrl Pts',(1.07032892989391,1.5,3.43907859399388));
#767=CARTESIAN_POINT('Ctrl Pts',(1.,1.5,3.4142135623731));
#768=CARTESIAN_POINT('Origin',(1.5,1.5,2.));
#769=CARTESIAN_POINT('Origin',(1.5,3.,2.));
#770=CARTESIAN_POINT('Origin',(9.5,1.5,0.));
#771=CARTESIAN_POINT('',(1.,1.5,0.));
#772=CARTESIAN_POINT('',(1.,1.5,0.));
#773=CARTESIAN_POINT('',(0.,1.5,0.));
#774=CARTESIAN_POINT('',(9.5,1.5,0.));
#775=CARTESIAN_POINT('',(0.,1.5,0.));
#776=CARTESIAN_POINT('Origin',(1.,4.5,0.));
#777=CARTESIAN_POINT('',(1.,1.5,4.));
#778=CARTESIAN_POINT('',(1.,1.5,0.));
#779=CARTESIAN_POINT('',(4.,4.5,4.));
#780=CARTESIAN_POINT('Origin',(1.,4.5,4.));
#781=CARTESIAN_POINT('',(4.,4.5,2.70710678118655));
#782=CARTESIAN_POINT('',(4.,4.5,0.));
#783=CARTESIAN_POINT('',(4.,4.5,1.29289321881345));
#784=CARTESIAN_POINT('Ctrl Pts',(4.,4.5,2.70710678118655));
#785=CARTESIAN_POINT('Ctrl Pts',(4.,4.48757055737739,2.70271230960414));
#786=CARTESIAN_POINT('Ctrl Pts',(3.99992264380342,4.47524594047906,2.69798588799455));
#787=CARTESIAN_POINT('Ctrl Pts',(3.9986340966784,4.37062046577464,2.65466061762478));
#788=CARTESIAN_POINT('Ctrl Pts',(3.99312134395637,4.28623662717792,2.59689679895774));
#789=CARTESIAN_POINT('Ctrl Pts',(3.98062725165037,4.1531140023559,2.46377417413572));
#790=CARTESIAN_POINT('Ctrl Pts',(3.97284871369776,4.09544025780719,2.37953464710629));
#791=CARTESIAN_POINT('Ctrl Pts',(3.96142196958332,4.0188783900402,2.19482342091099));
#792=CARTESIAN_POINT('Ctrl Pts',(3.95803989154981,4.,2.09433132052418));
#793=CARTESIAN_POINT('Ctrl Pts',(3.95803989154981,4.,2.));
#794=CARTESIAN_POINT('Ctrl Pts',(3.95803989154981,4.,1.90549619478731));
#795=CARTESIAN_POINT('Ctrl Pts',(3.96143478592631,4.01894684857481,1.80483270004589));
#796=CARTESIAN_POINT('Ctrl Pts',(3.97289465972821,4.09576561031901,1.61986005294951));
#797=CARTESIAN_POINT('Ctrl Pts',(3.98069177740083,4.15362776088026,1.53553034865616));
#798=CARTESIAN_POINT('Ctrl Pts',(3.99317030156223,4.28693330922009,1.40258959122164));
#799=CARTESIAN_POINT('Ctrl Pts',(3.99865614837385,4.37122675539395,1.34501439599527));
#800=CARTESIAN_POINT('Ctrl Pts',(3.9999246418537,4.47556604154612,1.30189141303503));
#801=CARTESIAN_POINT('Ctrl Pts',(4.,4.48773192287238,1.29723063907798));
#802=CARTESIAN_POINT('Ctrl Pts',(4.,4.5,1.29289321881345));
#803=CARTESIAN_POINT('',(4.,4.5,0.));
#804=CARTESIAN_POINT('',(4.,4.5,0.));
#805=CARTESIAN_POINT('Origin',(1.,4.5,0.));
#806=CARTESIAN_POINT('Origin',(4.,7.,0.));
#807=CARTESIAN_POINT('',(4.,7.,4.));
#808=CARTESIAN_POINT('',(4.,7.,4.));
#809=CARTESIAN_POINT('',(4.,7.,2.75));
#810=CARTESIAN_POINT('',(4.,7.,0.));
#811=CARTESIAN_POINT('',(4.,4.75,2.75));
#812=CARTESIAN_POINT('',(4.,5.5,2.75));
#813=CARTESIAN_POINT('Origin',(4.,4.75,2.));
#814=CARTESIAN_POINT('Origin',(4.,7.,0.));
#815=CARTESIAN_POINT('',(4.,4.75,1.25));
#816=CARTESIAN_POINT('Origin',(4.,4.75,2.));
#817=CARTESIAN_POINT('',(4.,7.,1.25));
#818=CARTESIAN_POINT('',(4.,5.5,1.25));
#819=CARTESIAN_POINT('',(4.,7.,0.));
#820=CARTESIAN_POINT('',(4.,7.,0.));
#821=CARTESIAN_POINT('',(4.,7.,0.));
#822=CARTESIAN_POINT('Origin',(8.5,4.5,0.));
#823=CARTESIAN_POINT('',(5.5,4.5,2.70710678118655));
#824=CARTESIAN_POINT('',(5.5,4.5,1.29289321881345));
#825=CARTESIAN_POINT('Ctrl Pts',(5.5,4.5,1.29289321881345));
#826=CARTESIAN_POINT('Ctrl Pts',(5.5,4.48773192287238,1.29723063907798));
#827=CARTESIAN_POINT('Ctrl Pts',(5.5000753581463,4.47556604154612,1.30189141303503));
#828=CARTESIAN_POINT('Ctrl Pts',(5.50134385162615,4.37122675539394,1.34501439599527));
#829=CARTESIAN_POINT('Ctrl Pts',(5.50682969843777,4.28693330922009,1.40258959122164));
#830=CARTESIAN_POINT('Ctrl Pts',(5.51930822259917,4.15362776088026,1.53553034865616));
#831=CARTESIAN_POINT('Ctrl Pts',(5.52710534027179,4.09576561031901,1.61986005294951));
#832=CARTESIAN_POINT('Ctrl Pts',(5.53856521407369,4.01894684857481,1.80483270004589));
#833=CARTESIAN_POINT('Ctrl Pts',(5.54196010845019,4.,1.90549619478731));
#834=CARTESIAN_POINT('Ctrl Pts',(5.54196010845019,4.,2.09433132052418));
#835=CARTESIAN_POINT('Ctrl Pts',(5.53857803041668,4.0188783900402,2.19482342091099));
#836=CARTESIAN_POINT('Ctrl Pts',(5.52715128630224,4.09544025780719,2.37953464710629));
#837=CARTESIAN_POINT('Ctrl Pts',(5.51937274834963,4.1531140023559,2.46377417413572));
#838=CARTESIAN_POINT('Ctrl Pts',(5.50687865604363,4.28623662717792,2.59689679895774));
#839=CARTESIAN_POINT('Ctrl Pts',(5.5013659033216,4.37062046577464,2.65466061762478));
#840=CARTESIAN_POINT('Ctrl Pts',(5.50007735619658,4.47524594047906,2.69798588799455));
#841=CARTESIAN_POINT('Ctrl Pts',(5.5,4.48757055737739,2.70271230960414));
#842=CARTESIAN_POINT('Ctrl Pts',(5.5,4.5,2.70710678118655));
#843=CARTESIAN_POINT('',(5.5,4.5,4.));
#844=CARTESIAN_POINT('',(5.5,4.5,0.));
#845=CARTESIAN_POINT('',(8.5,1.5,4.));
#846=CARTESIAN_POINT('Origin',(8.5,4.5,4.));
#847=CARTESIAN_POINT('',(8.5,1.5,0.));
#848=CARTESIAN_POINT('',(8.5,1.5,0.));
#849=CARTESIAN_POINT('',(5.5,4.5,0.));
#850=CARTESIAN_POINT('Origin',(8.5,4.5,0.));
#851=CARTESIAN_POINT('',(5.5,4.5,0.));
#852=CARTESIAN_POINT('Origin',(5.5,1.5,0.));
#853=CARTESIAN_POINT('',(5.5,7.,0.));
#854=CARTESIAN_POINT('',(5.5,1.5,0.));
#855=CARTESIAN_POINT('',(5.5,7.,1.25));
#856=CARTESIAN_POINT('',(5.5,7.,0.));
#857=CARTESIAN_POINT('',(5.5,4.75,1.25));
#858=CARTESIAN_POINT('',(5.5,2.75,1.25));
#859=CARTESIAN_POINT('Origin',(5.5,4.75,2.));
#860=CARTESIAN_POINT('Origin',(5.5,1.5,0.));
#861=CARTESIAN_POINT('',(5.5,4.75,2.75));
#862=CARTESIAN_POINT('Origin',(5.5,4.75,2.));
#863=CARTESIAN_POINT('',(5.5,7.,2.75));
#864=CARTESIAN_POINT('',(5.5,2.75,2.75));
#865=CARTESIAN_POINT('',(5.5,7.,4.));
#866=CARTESIAN_POINT('',(5.5,7.,0.));
#867=CARTESIAN_POINT('',(5.5,1.5,4.));
#868=CARTESIAN_POINT('Origin',(5.125,4.75,2.));
#869=CARTESIAN_POINT('',(4.375,4.75,2.75));
#870=CARTESIAN_POINT('',(5.125,4.75,1.25));
#871=CARTESIAN_POINT('Origin',(5.5,4.,1.25));
#872=CARTESIAN_POINT('',(5.5,7.,1.25));
#873=CARTESIAN_POINT('Origin',(4.,4.,2.75));
#874=CARTESIAN_POINT('',(4.75,7.,2.75));
#875=CARTESIAN_POINT('Origin',(5.5,7.,0.));
#876=CARTESIAN_POINT('',(5.5,7.,4.));
#877=CARTESIAN_POINT('Origin',(5.5,7.,0.));
#878=CARTESIAN_POINT('',(5.5,7.,0.));
#879=CARTESIAN_POINT('Origin',(9.5,1.5,0.));
#880=CARTESIAN_POINT('',(9.5,1.5,4.));
#881=CARTESIAN_POINT('',(9.5,1.5,4.));
#882=CARTESIAN_POINT('',(9.5,1.5,0.));
#883=CARTESIAN_POINT('',(9.5,1.5,0.));
#884=CARTESIAN_POINT('',(9.5,1.5,0.));
#885=CARTESIAN_POINT('Origin',(9.5,1.5,0.));
#886=CARTESIAN_POINT('',(0.,1.5,4.));
#887=CARTESIAN_POINT('',(0.,1.5,0.));
#888=CARTESIAN_POINT('',(9.5,1.5,4.));
#889=CARTESIAN_POINT('Origin',(9.5,0.,0.));
#890=CARTESIAN_POINT('',(9.5,0.,0.));
#891=CARTESIAN_POINT('',(9.5,0.,0.));
#892=CARTESIAN_POINT('',(9.5,0.,4.));
#893=CARTESIAN_POINT('',(9.5,0.,4.));
#894=CARTESIAN_POINT('',(9.5,0.,0.));
#895=CARTESIAN_POINT('Origin',(0.,0.,0.));
#896=CARTESIAN_POINT('',(0.,0.,0.));
#897=CARTESIAN_POINT('',(0.,0.,0.));
#898=CARTESIAN_POINT('',(0.,0.,4.));
#899=CARTESIAN_POINT('',(0.,0.,4.));
#900=CARTESIAN_POINT('',(0.,0.,0.));
#901=CARTESIAN_POINT('Origin',(0.,1.5,0.));
#902=CARTESIAN_POINT('',(0.,1.5,0.));
#903=CARTESIAN_POINT('',(0.,1.5,4.));
#904=CARTESIAN_POINT('Origin',(4.75,0.75,4.));
#905=CARTESIAN_POINT('Origin',(4.75,0.75,0.));
#906=UNCERTAINTY_MEASURE_WITH_UNIT(LENGTH_MEASURE(0.001),#910,
'DISTANCE_ACCURACY_VALUE',
'Maximum model space distance between geometric entities at asserted c
onnectivities');
#907=UNCERTAINTY_MEASURE_WITH_UNIT(LENGTH_MEASURE(0.001),#910,
'DISTANCE_ACCURACY_VALUE',
'Maximum model space distance between geometric entities at asserted c
onnectivities');
#908=(
GEOMETRIC_REPRESENTATION_CONTEXT(3)
GLOBAL_UNCERTAINTY_ASSIGNED_CONTEXT((#906))
GLOBAL_UNIT_ASSIGNED_CONTEXT((#910,#912,#913))
REPRESENTATION_CONTEXT('','3D')
);
#909=(
GEOMETRIC_REPRESENTATION_CONTEXT(3)
GLOBAL_UNCERTAINTY_ASSIGNED_CONTEXT((#907))
GLOBAL_UNIT_ASSIGNED_CONTEXT((#910,#912,#913))
REPRESENTATION_CONTEXT('','3D')
);
#910=(
LENGTH_UNIT()
NAMED_UNIT(*)
SI_UNIT(.CENTI.,.METRE.)
);
#911=(
LENGTH_UNIT()
NAMED_UNIT(*)
SI_UNIT($,.METRE.)
);
#912=(
NAMED_UNIT(*)
PLANE_ANGLE_UNIT()
SI_UNIT($,.RADIAN.)
);
#913=(
NAMED_UNIT(*)
SI_UNIT($,.STERADIAN.)
SOLID_ANGLE_UNIT()
);
#914=SHAPE_DEFINITION_REPRESENTATION(#915,#916);
#915=PRODUCT_DEFINITION_SHAPE('',$,#918);
#916=SHAPE_REPRESENTATION('',(#520),#908);
#917=PRODUCT_DEFINITION_CONTEXT('part definition',#922,'design');
#918=PRODUCT_DEFINITION('(Unsaved)','(Unsaved)',#919,#917);
#919=PRODUCT_DEFINITION_FORMATION('',$,#924);
#920=PRODUCT_RELATED_PRODUCT_CATEGORY('(Unsaved)','(Unsaved)',(#924));
#921=APPLICATION_PROTOCOL_DEFINITION('international standard',
'automotive_design',2009,#922);
#922=APPLICATION_CONTEXT(
'Core Data for Automotive Mechanical Design Process');
#923=PRODUCT_CONTEXT('part definition',#922,'mechanical');
#924=PRODUCT('(Unsaved)','(Unsaved)',$,(#923));
#925=PRESENTATION_STYLE_ASSIGNMENT((#926));
#926=SURFACE_STYLE_USAGE(.BOTH.,#927);
#927=SURFACE_SIDE_STYLE('',(#928));
#928=SURFACE_STYLE_FILL_AREA(#929);
#929=FILL_AREA_STYLE('Steel - Satin',(#930));
#930=FILL_AREA_STYLE_COLOUR('Steel - Satin',#931);
#931=COLOUR_RGB('Steel - Satin',0.627450980392157,0.627450980392157,0.627450980392157);
ENDSEC;
END-ISO-10303-21;
