ISO-10303-21;
HEADER;
/* Generated by software containing ST-Developer
 * from STEP Tools, Inc. (www.steptools.com) 
 */

FILE_DESCRIPTION(
/* description */ (''),
/* implementation_level */ '2;1');

FILE_NAME(
/* name */ 'rocker_arm.stp',
/* time_stamp */ '2026-08-22T04:12:07+02:00',
/* author */ (''),
/* organization */ (''),
/* preprocessor_version */ 'ST-DEVELOPER v20.1',
/* originating_system */ 'Autodesk Translation Framework v15.8.0.0',
/* authorisation */ '');

FILE_SCHEMA (('AUTOMOTIVE_DESIGN { 1 0 10303 214 3 1 1 }'));
ENDSEC;

DATA;
#10=MECHANICAL_DESIGN_GEOMETRIC_PRESENTATION_REPRESENTATION('',(#13),#648);
#11=SHAPE_REPRESENTATION_RELATIONSHIP('SRR','None',#655,#12);
#12=ADVANCED_BREP_SHAPE_REPRESENTATION('',(#14),#647);
#13=STYLED_ITEM('',(#664),#14);
#14=MANIFOLD_SOLID_BREP('Body25',#354);
#15=FACE_BOUND('',#56,.T.);
#16=FACE_BOUND('',#58,.T.);
#17=FACE_BOUND('',#60,.T.);
#18=FACE_BOUND('',#62,.T.);
#19=FACE_BOUND('',#66,.T.);
#20=FACE_BOUND('',#68,.T.);
#21=FACE_BOUND('',#76,.T.);
#22=PLANE('',#377);
#23=PLANE('',#379);
#24=PLANE('',#381);
#25=PLANE('',#383);
#26=PLANE('',#385);
#27=PLANE('',#391);
#28=PLANE('',#397);
#29=PLANE('',#399);
#30=PLANE('',#401);
#31=PLANE('',#407);
#32=FACE_OUTER_BOUND('',#52,.T.);
#33=FACE_OUTER_BOUND('',#53,.T.);
#34=FACE_OUTER_BOUND('',#54,.T.);
#35=FACE_OUTER_BOUND('',#55,.T.);
#36=FACE_OUTER_BOUND('',#57,.T.);
#37=FACE_OUTER_BOUND('',#59,.T.);
#38=FACE_OUTER_BOUND('',#61,.T.);
#39=FACE_OUTER_BOUND('',#63,.T.);
#40=FACE_OUTER_BOUND('',#64,.T.);
#41=FACE_OUTER_BOUND('',#65,.T.);
#42=FACE_OUTER_BOUND('',#67,.T.);
#43=FACE_OUTER_BOUND('',#69,.T.);
#44=FACE_OUTER_BOUND('',#70,.T.);
#45=FACE_OUTER_BOUND('',#71,.T.);
#46=FACE_OUTER_BOUND('',#72,.T.);
#47=FACE_OUTER_BOUND('',#73,.T.);
#48=FACE_OUTER_BOUND('',#74,.T.);
#49=FACE_OUTER_BOUND('',#75,.T.);
#50=FACE_OUTER_BOUND('',#77,.T.);
#51=FACE_OUTER_BOUND('',#78,.T.);
#52=EDGE_LOOP('',(#226,#227,#228,#229));
#53=EDGE_LOOP('',(#230,#231,#232,#233));
#54=EDGE_LOOP('',(#234,#235,#236,#237));
#55=EDGE_LOOP('',(#238));
#56=EDGE_LOOP('',(#239));
#57=EDGE_LOOP('',(#240));
#58=EDGE_LOOP('',(#241));
#59=EDGE_LOOP('',(#242));
#60=EDGE_LOOP('',(#243));
#61=EDGE_LOOP('',(#244));
#62=EDGE_LOOP('',(#245));
#63=EDGE_LOOP('',(#246,#247,#248,#249,#250));
#64=EDGE_LOOP('',(#251,#252,#253,#254,#255));
#65=EDGE_LOOP('',(#256));
#66=EDGE_LOOP('',(#257));
#67=EDGE_LOOP('',(#258));
#68=EDGE_LOOP('',(#259));
#69=EDGE_LOOP('',(#260,#261,#262,#263,#264));
#70=EDGE_LOOP('',(#265,#266,#267,#268,#269));
#71=EDGE_LOOP('',(#270,#271,#272,#273));
#72=EDGE_LOOP('',(#274,#275,#276,#277));
#73=EDGE_LOOP('',(#278,#279,#280,#281,#282,#283,#284,#285,#286,#287,#288,
#289));
#74=EDGE_LOOP('',(#290,#291,#292,#293));
#75=EDGE_LOOP('',(#294,#295,#296,#297,#298,#299,#300,#301,#302,#303));
#76=EDGE_LOOP('',(#304,#305,#306,#307));
#77=EDGE_LOOP('',(#308,#309,#310,#311));
#78=EDGE_LOOP('',(#312,#313,#314,#315,#316,#317,#318,#319,#320,#321,#322,
#323));
#79=LINE('',#548,#96);
#80=LINE('',#554,#97);
#81=LINE('',#560,#98);
#82=LINE('',#625,#99);
#83=LINE('',#626,#100);
#84=LINE('',#628,#101);
#85=LINE('',#629,#102);
#86=LINE('',#631,#103);
#87=LINE('',#632,#104);
#88=LINE('',#633,#105);
#89=LINE('',#635,#106);
#90=LINE('',#637,#107);
#91=LINE('',#638,#108);
#92=LINE('',#639,#109);
#93=LINE('',#641,#110);
#94=LINE('',#643,#111);
#95=LINE('',#644,#112);
#96=VECTOR('',#426,2.);
#97=VECTOR('',#433,0.5);
#98=VECTOR('',#440,0.5);
#99=VECTOR('',#517,1.);
#100=VECTOR('',#518,1.);
#101=VECTOR('',#521,1.);
#102=VECTOR('',#522,1.);
#103=VECTOR('',#525,1.);
#104=VECTOR('',#526,1.);
#105=VECTOR('',#527,1.);
#106=VECTOR('',#530,1.);
#107=VECTOR('',#533,4.);
#108=VECTOR('',#534,4.);
#109=VECTOR('',#535,1.);
#110=VECTOR('',#538,1.);
#111=VECTOR('',#541,1.);
#112=VECTOR('',#542,1.);
#113=CIRCLE('',#369,2.);
#114=CIRCLE('',#370,2.);
#115=CIRCLE('',#372,0.5);
#116=CIRCLE('',#373,0.5);
#117=CIRCLE('',#375,0.5);
#118=CIRCLE('',#376,0.5);
#119=CIRCLE('',#378,1.);
#120=CIRCLE('',#380,1.);
#121=CIRCLE('',#382,1.);
#122=CIRCLE('',#384,1.);
#123=CIRCLE('',#386,1.);
#124=CIRCLE('',#387,1.);
#125=CIRCLE('',#388,10.);
#126=CIRCLE('',#389,4.);
#127=CIRCLE('',#390,3.5);
#128=CIRCLE('',#392,1.);
#129=CIRCLE('',#393,1.);
#130=CIRCLE('',#394,3.5);
#131=CIRCLE('',#395,4.);
#132=CIRCLE('',#396,10.);
#133=CIRCLE('',#398,4.);
#134=CIRCLE('',#400,4.);
#135=CIRCLE('',#402,1.);
#136=CIRCLE('',#403,1.);
#137=CIRCLE('',#404,10.);
#138=CIRCLE('',#405,4.);
#139=CIRCLE('',#406,3.5);
#140=CIRCLE('',#408,1.);
#141=CIRCLE('',#409,1.);
#142=CIRCLE('',#410,3.5);
#143=CIRCLE('',#411,4.);
#144=CIRCLE('',#412,10.);
#145=VERTEX_POINT('',#545);
#146=VERTEX_POINT('',#547);
#147=VERTEX_POINT('',#551);
#148=VERTEX_POINT('',#553);
#149=VERTEX_POINT('',#557);
#150=VERTEX_POINT('',#559);
#151=VERTEX_POINT('',#563);
#152=VERTEX_POINT('',#566);
#153=VERTEX_POINT('',#569);
#154=VERTEX_POINT('',#572);
#155=VERTEX_POINT('',#575);
#156=VERTEX_POINT('',#576);
#157=VERTEX_POINT('',#578);
#158=VERTEX_POINT('',#580);
#159=VERTEX_POINT('',#582);
#160=VERTEX_POINT('',#586);
#161=VERTEX_POINT('',#587);
#162=VERTEX_POINT('',#589);
#163=VERTEX_POINT('',#591);
#164=VERTEX_POINT('',#593);
#165=VERTEX_POINT('',#597);
#166=VERTEX_POINT('',#600);
#167=VERTEX_POINT('',#603);
#168=VERTEX_POINT('',#604);
#169=VERTEX_POINT('',#606);
#170=VERTEX_POINT('',#608);
#171=VERTEX_POINT('',#610);
#172=VERTEX_POINT('',#614);
#173=VERTEX_POINT('',#615);
#174=VERTEX_POINT('',#617);
#175=VERTEX_POINT('',#619);
#176=VERTEX_POINT('',#621);
#177=EDGE_CURVE('',#145,#145,#113,.T.);
#178=EDGE_CURVE('',#145,#146,#79,.T.);
#179=EDGE_CURVE('',#146,#146,#114,.T.);
#180=EDGE_CURVE('',#147,#147,#115,.T.);
#181=EDGE_CURVE('',#147,#148,#80,.T.);
#182=EDGE_CURVE('',#148,#148,#116,.T.);
#183=EDGE_CURVE('',#149,#149,#117,.T.);
#184=EDGE_CURVE('',#149,#150,#81,.T.);
#185=EDGE_CURVE('',#150,#150,#118,.T.);
#186=EDGE_CURVE('',#151,#151,#119,.T.);
#187=EDGE_CURVE('',#152,#152,#120,.T.);
#188=EDGE_CURVE('',#153,#153,#121,.T.);
#189=EDGE_CURVE('',#154,#154,#122,.T.);
#190=EDGE_CURVE('',#155,#156,#123,.T.);
#191=EDGE_CURVE('',#156,#157,#124,.T.);
#192=EDGE_CURVE('',#157,#158,#125,.T.);
#193=EDGE_CURVE('',#158,#159,#126,.T.);
#194=EDGE_CURVE('',#159,#155,#127,.T.);
#195=EDGE_CURVE('',#160,#161,#128,.T.);
#196=EDGE_CURVE('',#161,#162,#129,.T.);
#197=EDGE_CURVE('',#162,#163,#130,.T.);
#198=EDGE_CURVE('',#163,#164,#131,.T.);
#199=EDGE_CURVE('',#164,#160,#132,.T.);
#200=EDGE_CURVE('',#165,#165,#133,.T.);
#201=EDGE_CURVE('',#166,#166,#134,.T.);
#202=EDGE_CURVE('',#167,#168,#135,.T.);
#203=EDGE_CURVE('',#168,#169,#136,.T.);
#204=EDGE_CURVE('',#169,#170,#137,.T.);
#205=EDGE_CURVE('',#170,#171,#138,.T.);
#206=EDGE_CURVE('',#171,#167,#139,.T.);
#207=EDGE_CURVE('',#172,#173,#140,.T.);
#208=EDGE_CURVE('',#173,#174,#141,.T.);
#209=EDGE_CURVE('',#174,#175,#142,.T.);
#210=EDGE_CURVE('',#175,#176,#143,.T.);
#211=EDGE_CURVE('',#176,#172,#144,.T.);
#212=EDGE_CURVE('',#167,#174,#82,.T.);
#213=EDGE_CURVE('',#175,#171,#83,.T.);
#214=EDGE_CURVE('',#164,#158,#84,.T.);
#215=EDGE_CURVE('',#160,#157,#85,.T.);
#216=EDGE_CURVE('',#154,#156,#86,.T.);
#217=EDGE_CURVE('',#162,#155,#87,.T.);
#218=EDGE_CURVE('',#161,#153,#88,.T.);
#219=EDGE_CURVE('',#163,#159,#89,.T.);
#220=EDGE_CURVE('',#166,#158,#90,.T.);
#221=EDGE_CURVE('',#164,#165,#91,.T.);
#222=EDGE_CURVE('',#176,#170,#92,.T.);
#223=EDGE_CURVE('',#172,#169,#93,.T.);
#224=EDGE_CURVE('',#152,#168,#94,.T.);
#225=EDGE_CURVE('',#173,#151,#95,.T.);
#226=ORIENTED_EDGE('',*,*,#177,.F.);
#227=ORIENTED_EDGE('',*,*,#178,.T.);
#228=ORIENTED_EDGE('',*,*,#179,.F.);
#229=ORIENTED_EDGE('',*,*,#178,.F.);
#230=ORIENTED_EDGE('',*,*,#180,.F.);
#231=ORIENTED_EDGE('',*,*,#181,.T.);
#232=ORIENTED_EDGE('',*,*,#182,.F.);
#233=ORIENTED_EDGE('',*,*,#181,.F.);
#234=ORIENTED_EDGE('',*,*,#183,.F.);
#235=ORIENTED_EDGE('',*,*,#184,.T.);
#236=ORIENTED_EDGE('',*,*,#185,.F.);
#237=ORIENTED_EDGE('',*,*,#184,.F.);
#238=ORIENTED_EDGE('',*,*,#186,.T.);
#239=ORIENTED_EDGE('',*,*,#183,.T.);
#240=ORIENTED_EDGE('',*,*,#187,.T.);
#241=ORIENTED_EDGE('',*,*,#185,.T.);
#242=ORIENTED_EDGE('',*,*,#188,.T.);
#243=ORIENTED_EDGE('',*,*,#180,.T.);
#244=ORIENTED_EDGE('',*,*,#189,.T.);
#245=ORIENTED_EDGE('',*,*,#182,.T.);
#246=ORIENTED_EDGE('',*,*,#190,.T.);
#247=ORIENTED_EDGE('',*,*,#191,.T.);
#248=ORIENTED_EDGE('',*,*,#192,.T.);
#249=ORIENTED_EDGE('',*,*,#193,.T.);
#250=ORIENTED_EDGE('',*,*,#194,.T.);
#251=ORIENTED_EDGE('',*,*,#195,.T.);
#252=ORIENTED_EDGE('',*,*,#196,.T.);
#253=ORIENTED_EDGE('',*,*,#197,.T.);
#254=ORIENTED_EDGE('',*,*,#198,.T.);
#255=ORIENTED_EDGE('',*,*,#199,.T.);
#256=ORIENTED_EDGE('',*,*,#200,.T.);
#257=ORIENTED_EDGE('',*,*,#177,.T.);
#258=ORIENTED_EDGE('',*,*,#201,.T.);
#259=ORIENTED_EDGE('',*,*,#179,.T.);
#260=ORIENTED_EDGE('',*,*,#202,.T.);
#261=ORIENTED_EDGE('',*,*,#203,.T.);
#262=ORIENTED_EDGE('',*,*,#204,.T.);
#263=ORIENTED_EDGE('',*,*,#205,.T.);
#264=ORIENTED_EDGE('',*,*,#206,.T.);
#265=ORIENTED_EDGE('',*,*,#207,.T.);
#266=ORIENTED_EDGE('',*,*,#208,.T.);
#267=ORIENTED_EDGE('',*,*,#209,.T.);
#268=ORIENTED_EDGE('',*,*,#210,.T.);
#269=ORIENTED_EDGE('',*,*,#211,.T.);
#270=ORIENTED_EDGE('',*,*,#212,.F.);
#271=ORIENTED_EDGE('',*,*,#206,.F.);
#272=ORIENTED_EDGE('',*,*,#213,.F.);
#273=ORIENTED_EDGE('',*,*,#209,.F.);
#274=ORIENTED_EDGE('',*,*,#214,.T.);
#275=ORIENTED_EDGE('',*,*,#192,.F.);
#276=ORIENTED_EDGE('',*,*,#215,.F.);
#277=ORIENTED_EDGE('',*,*,#199,.F.);
#278=ORIENTED_EDGE('',*,*,#189,.F.);
#279=ORIENTED_EDGE('',*,*,#216,.T.);
#280=ORIENTED_EDGE('',*,*,#190,.F.);
#281=ORIENTED_EDGE('',*,*,#217,.F.);
#282=ORIENTED_EDGE('',*,*,#196,.F.);
#283=ORIENTED_EDGE('',*,*,#218,.T.);
#284=ORIENTED_EDGE('',*,*,#188,.F.);
#285=ORIENTED_EDGE('',*,*,#218,.F.);
#286=ORIENTED_EDGE('',*,*,#195,.F.);
#287=ORIENTED_EDGE('',*,*,#215,.T.);
#288=ORIENTED_EDGE('',*,*,#191,.F.);
#289=ORIENTED_EDGE('',*,*,#216,.F.);
#290=ORIENTED_EDGE('',*,*,#217,.T.);
#291=ORIENTED_EDGE('',*,*,#194,.F.);
#292=ORIENTED_EDGE('',*,*,#219,.F.);
#293=ORIENTED_EDGE('',*,*,#197,.F.);
#294=ORIENTED_EDGE('',*,*,#201,.F.);
#295=ORIENTED_EDGE('',*,*,#220,.T.);
#296=ORIENTED_EDGE('',*,*,#214,.F.);
#297=ORIENTED_EDGE('',*,*,#221,.T.);
#298=ORIENTED_EDGE('',*,*,#200,.F.);
#299=ORIENTED_EDGE('',*,*,#221,.F.);
#300=ORIENTED_EDGE('',*,*,#198,.F.);
#301=ORIENTED_EDGE('',*,*,#219,.T.);
#302=ORIENTED_EDGE('',*,*,#193,.F.);
#303=ORIENTED_EDGE('',*,*,#220,.F.);
#304=ORIENTED_EDGE('',*,*,#222,.F.);
#305=ORIENTED_EDGE('',*,*,#210,.F.);
#306=ORIENTED_EDGE('',*,*,#213,.T.);
#307=ORIENTED_EDGE('',*,*,#205,.F.);
#308=ORIENTED_EDGE('',*,*,#222,.T.);
#309=ORIENTED_EDGE('',*,*,#204,.F.);
#310=ORIENTED_EDGE('',*,*,#223,.F.);
#311=ORIENTED_EDGE('',*,*,#211,.F.);
#312=ORIENTED_EDGE('',*,*,#187,.F.);
#313=ORIENTED_EDGE('',*,*,#224,.T.);
#314=ORIENTED_EDGE('',*,*,#202,.F.);
#315=ORIENTED_EDGE('',*,*,#212,.T.);
#316=ORIENTED_EDGE('',*,*,#208,.F.);
#317=ORIENTED_EDGE('',*,*,#225,.T.);
#318=ORIENTED_EDGE('',*,*,#186,.F.);
#319=ORIENTED_EDGE('',*,*,#225,.F.);
#320=ORIENTED_EDGE('',*,*,#207,.F.);
#321=ORIENTED_EDGE('',*,*,#223,.T.);
#322=ORIENTED_EDGE('',*,*,#203,.F.);
#323=ORIENTED_EDGE('',*,*,#224,.F.);
#324=CYLINDRICAL_SURFACE('',#368,2.);
#325=CYLINDRICAL_SURFACE('',#371,0.5);
#326=CYLINDRICAL_SURFACE('',#374,0.5);
#327=CYLINDRICAL_SURFACE('',#413,3.5);
#328=CYLINDRICAL_SURFACE('',#414,10.);
#329=CYLINDRICAL_SURFACE('',#415,1.);
#330=CYLINDRICAL_SURFACE('',#416,3.5);
#331=CYLINDRICAL_SURFACE('',#417,4.);
#332=CYLINDRICAL_SURFACE('',#418,10.);
#333=CYLINDRICAL_SURFACE('',#419,1.);
#334=ADVANCED_FACE('',(#32),#324,.F.);
#335=ADVANCED_FACE('',(#33),#325,.F.);
#336=ADVANCED_FACE('',(#34),#326,.F.);
#337=ADVANCED_FACE('',(#35,#15),#22,.F.);
#338=ADVANCED_FACE('',(#36,#16),#23,.T.);
#339=ADVANCED_FACE('',(#37,#17),#24,.F.);
#340=ADVANCED_FACE('',(#38,#18),#25,.T.);
#341=ADVANCED_FACE('',(#39),#26,.T.);
#342=ADVANCED_FACE('',(#40),#27,.F.);
#343=ADVANCED_FACE('',(#41,#19),#28,.F.);
#344=ADVANCED_FACE('',(#42,#20),#29,.T.);
#345=ADVANCED_FACE('',(#43),#30,.T.);
#346=ADVANCED_FACE('',(#44),#31,.F.);
#347=ADVANCED_FACE('',(#45),#327,.F.);
#348=ADVANCED_FACE('',(#46),#328,.T.);
#349=ADVANCED_FACE('',(#47),#329,.T.);
#350=ADVANCED_FACE('',(#48),#330,.F.);
#351=ADVANCED_FACE('',(#49,#21),#331,.T.);
#352=ADVANCED_FACE('',(#50),#332,.T.);
#353=ADVANCED_FACE('',(#51),#333,.T.);
#354=CLOSED_SHELL('',(#334,#335,#336,#337,#338,#339,#340,#341,#342,#343,
#344,#345,#346,#347,#348,#349,#350,#351,#352,#353));
#355=DERIVED_UNIT_ELEMENT(#357,1.);
#356=DERIVED_UNIT_ELEMENT(#650,-3.);
#357=(
MASS_UNIT()
NAMED_UNIT(*)
SI_UNIT(.KILO.,.GRAM.)
);
#358=DERIVED_UNIT((#355,#356));
#359=MEASURE_REPRESENTATION_ITEM('density measure',
POSITIVE_RATIO_MEASURE(7850.),#358);
#360=PROPERTY_DEFINITION_REPRESENTATION(#365,#362);
#361=PROPERTY_DEFINITION_REPRESENTATION(#366,#363);
#362=REPRESENTATION('material name',(#364),#647);
#363=REPRESENTATION('density',(#359),#647);
#364=DESCRIPTIVE_REPRESENTATION_ITEM('Steel','Steel');
#365=PROPERTY_DEFINITION('material property','material name',#657);
#366=PROPERTY_DEFINITION('material property','density of part',#657);
#367=AXIS2_PLACEMENT_3D('',#543,#420,#421);
#368=AXIS2_PLACEMENT_3D('',#544,#422,#423);
#369=AXIS2_PLACEMENT_3D('',#546,#424,#425);
#370=AXIS2_PLACEMENT_3D('',#549,#427,#428);
#371=AXIS2_PLACEMENT_3D('',#550,#429,#430);
#372=AXIS2_PLACEMENT_3D('',#552,#431,#432);
#373=AXIS2_PLACEMENT_3D('',#555,#434,#435);
#374=AXIS2_PLACEMENT_3D('',#556,#436,#437);
#375=AXIS2_PLACEMENT_3D('',#558,#438,#439);
#376=AXIS2_PLACEMENT_3D('',#561,#441,#442);
#377=AXIS2_PLACEMENT_3D('',#562,#443,#444);
#378=AXIS2_PLACEMENT_3D('',#564,#445,#446);
#379=AXIS2_PLACEMENT_3D('',#565,#447,#448);
#380=AXIS2_PLACEMENT_3D('',#567,#449,#450);
#381=AXIS2_PLACEMENT_3D('',#568,#451,#452);
#382=AXIS2_PLACEMENT_3D('',#570,#453,#454);
#383=AXIS2_PLACEMENT_3D('',#571,#455,#456);
#384=AXIS2_PLACEMENT_3D('',#573,#457,#458);
#385=AXIS2_PLACEMENT_3D('',#574,#459,#460);
#386=AXIS2_PLACEMENT_3D('',#577,#461,#462);
#387=AXIS2_PLACEMENT_3D('',#579,#463,#464);
#388=AXIS2_PLACEMENT_3D('',#581,#465,#466);
#389=AXIS2_PLACEMENT_3D('',#583,#467,#468);
#390=AXIS2_PLACEMENT_3D('',#584,#469,#470);
#391=AXIS2_PLACEMENT_3D('',#585,#471,#472);
#392=AXIS2_PLACEMENT_3D('',#588,#473,#474);
#393=AXIS2_PLACEMENT_3D('',#590,#475,#476);
#394=AXIS2_PLACEMENT_3D('',#592,#477,#478);
#395=AXIS2_PLACEMENT_3D('',#594,#479,#480);
#396=AXIS2_PLACEMENT_3D('',#595,#481,#482);
#397=AXIS2_PLACEMENT_3D('',#596,#483,#484);
#398=AXIS2_PLACEMENT_3D('',#598,#485,#486);
#399=AXIS2_PLACEMENT_3D('',#599,#487,#488);
#400=AXIS2_PLACEMENT_3D('',#601,#489,#490);
#401=AXIS2_PLACEMENT_3D('',#602,#491,#492);
#402=AXIS2_PLACEMENT_3D('',#605,#493,#494);
#403=AXIS2_PLACEMENT_3D('',#607,#495,#496);
#404=AXIS2_PLACEMENT_3D('',#609,#497,#498);
#405=AXIS2_PLACEMENT_3D('',#611,#499,#500);
#406=AXIS2_PLACEMENT_3D('',#612,#501,#502);
#407=AXIS2_PLACEMENT_3D('',#613,#503,#504);
#408=AXIS2_PLACEMENT_3D('',#616,#505,#506);
#409=AXIS2_PLACEMENT_3D('',#618,#507,#508);
#410=AXIS2_PLACEMENT_3D('',#620,#509,#510);
#411=AXIS2_PLACEMENT_3D('',#622,#511,#512);
#412=AXIS2_PLACEMENT_3D('',#623,#513,#514);
#413=AXIS2_PLACEMENT_3D('',#624,#515,#516);
#414=AXIS2_PLACEMENT_3D('',#627,#519,#520);
#415=AXIS2_PLACEMENT_3D('',#630,#523,#524);
#416=AXIS2_PLACEMENT_3D('',#634,#528,#529);
#417=AXIS2_PLACEMENT_3D('',#636,#531,#532);
#418=AXIS2_PLACEMENT_3D('',#640,#536,#537);
#419=AXIS2_PLACEMENT_3D('',#642,#539,#540);
#420=DIRECTION('axis',(0.,0.,1.));
#421=DIRECTION('refdir',(1.,0.,0.));
#422=DIRECTION('center_axis',(0.,0.,1.));
#423=DIRECTION('ref_axis',(1.,0.,0.));
#424=DIRECTION('center_axis',(0.,0.,1.));
#425=DIRECTION('ref_axis',(1.,0.,0.));
#426=DIRECTION('',(0.,0.,1.));
#427=DIRECTION('center_axis',(0.,0.,-1.));
#428=DIRECTION('ref_axis',(1.,0.,0.));
#429=DIRECTION('center_axis',(0.,0.,1.));
#430=DIRECTION('ref_axis',(1.,0.,0.));
#431=DIRECTION('center_axis',(0.,0.,1.));
#432=DIRECTION('ref_axis',(1.,0.,0.));
#433=DIRECTION('',(0.,0.,1.));
#434=DIRECTION('center_axis',(0.,0.,-1.));
#435=DIRECTION('ref_axis',(1.,0.,0.));
#436=DIRECTION('center_axis',(0.,0.,1.));
#437=DIRECTION('ref_axis',(1.,0.,0.));
#438=DIRECTION('center_axis',(0.,0.,1.));
#439=DIRECTION('ref_axis',(1.,0.,0.));
#440=DIRECTION('',(0.,0.,1.));
#441=DIRECTION('center_axis',(0.,0.,-1.));
#442=DIRECTION('ref_axis',(1.,0.,0.));
#443=DIRECTION('center_axis',(0.,0.,1.));
#444=DIRECTION('ref_axis',(1.,0.,0.));
#445=DIRECTION('center_axis',(0.,0.,-1.));
#446=DIRECTION('ref_axis',(1.,0.,0.));
#447=DIRECTION('center_axis',(0.,0.,1.));
#448=DIRECTION('ref_axis',(1.,0.,0.));
#449=DIRECTION('center_axis',(0.,0.,1.));
#450=DIRECTION('ref_axis',(1.,0.,0.));
#451=DIRECTION('center_axis',(0.,0.,1.));
#452=DIRECTION('ref_axis',(1.,0.,0.));
#453=DIRECTION('center_axis',(0.,0.,-1.));
#454=DIRECTION('ref_axis',(1.,0.,0.));
#455=DIRECTION('center_axis',(0.,0.,1.));
#456=DIRECTION('ref_axis',(1.,0.,0.));
#457=DIRECTION('center_axis',(0.,0.,1.));
#458=DIRECTION('ref_axis',(1.,0.,0.));
#459=DIRECTION('center_axis',(0.,0.,1.));
#460=DIRECTION('ref_axis',(1.,0.,0.));
#461=DIRECTION('center_axis',(0.,0.,-1.));
#462=DIRECTION('ref_axis',(1.,0.,0.));
#463=DIRECTION('center_axis',(0.,0.,-1.));
#464=DIRECTION('ref_axis',(1.,0.,0.));
#465=DIRECTION('center_axis',(0.,0.,1.));
#466=DIRECTION('ref_axis',(-0.533333333333333,0.845905169363301,0.));
#467=DIRECTION('center_axis',(0.,0.,-1.));
#468=DIRECTION('ref_axis',(1.,0.,0.));
#469=DIRECTION('center_axis',(0.,0.,-1.));
#470=DIRECTION('ref_axis',(-0.877373539874062,0.479807952756994,0.));
#471=DIRECTION('center_axis',(0.,0.,1.));
#472=DIRECTION('ref_axis',(1.,0.,0.));
#473=DIRECTION('center_axis',(0.,0.,1.));
#474=DIRECTION('ref_axis',(1.,0.,0.));
#475=DIRECTION('center_axis',(0.,0.,1.));
#476=DIRECTION('ref_axis',(1.,0.,0.));
#477=DIRECTION('center_axis',(0.,0.,1.));
#478=DIRECTION('ref_axis',(-0.877373539874062,0.479807952756994,0.));
#479=DIRECTION('center_axis',(0.,0.,1.));
#480=DIRECTION('ref_axis',(1.,0.,0.));
#481=DIRECTION('center_axis',(0.,0.,-1.));
#482=DIRECTION('ref_axis',(-0.533333333333333,0.845905169363301,0.));
#483=DIRECTION('center_axis',(0.,0.,1.));
#484=DIRECTION('ref_axis',(1.,0.,0.));
#485=DIRECTION('center_axis',(0.,0.,-1.));
#486=DIRECTION('ref_axis',(1.,0.,0.));
#487=DIRECTION('center_axis',(0.,0.,1.));
#488=DIRECTION('ref_axis',(1.,0.,0.));
#489=DIRECTION('center_axis',(0.,0.,1.));
#490=DIRECTION('ref_axis',(1.,0.,0.));
#491=DIRECTION('center_axis',(0.,0.,1.));
#492=DIRECTION('ref_axis',(1.,0.,0.));
#493=DIRECTION('center_axis',(0.,0.,-1.));
#494=DIRECTION('ref_axis',(1.,0.,0.));
#495=DIRECTION('center_axis',(0.,0.,-1.));
#496=DIRECTION('ref_axis',(1.,0.,0.));
#497=DIRECTION('center_axis',(0.,0.,1.));
#498=DIRECTION('ref_axis',(0.533333333333333,-0.845905169363301,0.));
#499=DIRECTION('center_axis',(0.,0.,-1.));
#500=DIRECTION('ref_axis',(1.,0.,0.));
#501=DIRECTION('center_axis',(0.,0.,-1.));
#502=DIRECTION('ref_axis',(0.877373539874062,-0.479807952756994,0.));
#503=DIRECTION('center_axis',(0.,0.,1.));
#504=DIRECTION('ref_axis',(1.,0.,0.));
#505=DIRECTION('center_axis',(0.,0.,1.));
#506=DIRECTION('ref_axis',(1.,0.,0.));
#507=DIRECTION('center_axis',(0.,0.,1.));
#508=DIRECTION('ref_axis',(1.,0.,0.));
#509=DIRECTION('center_axis',(0.,0.,1.));
#510=DIRECTION('ref_axis',(0.877373539874062,-0.479807952756994,0.));
#511=DIRECTION('center_axis',(0.,0.,1.));
#512=DIRECTION('ref_axis',(1.,0.,0.));
#513=DIRECTION('center_axis',(0.,0.,-1.));
#514=DIRECTION('ref_axis',(0.533333333333333,-0.845905169363301,0.));
#515=DIRECTION('center_axis',(0.,0.,1.));
#516=DIRECTION('ref_axis',(0.877373539874062,-0.479807952756994,0.));
#517=DIRECTION('',(0.,0.,-1.));
#518=DIRECTION('',(0.,0.,1.));
#519=DIRECTION('center_axis',(0.,0.,1.));
#520=DIRECTION('ref_axis',(-0.533333333333333,0.845905169363301,0.));
#521=DIRECTION('',(0.,0.,1.));
#522=DIRECTION('',(0.,0.,1.));
#523=DIRECTION('center_axis',(0.,0.,1.));
#524=DIRECTION('ref_axis',(0.877373539874062,-0.479807952756994,0.));
#525=DIRECTION('',(0.,0.,-1.));
#526=DIRECTION('',(0.,0.,1.));
#527=DIRECTION('',(0.,0.,-1.));
#528=DIRECTION('center_axis',(0.,0.,1.));
#529=DIRECTION('ref_axis',(-0.877373539874062,0.479807952756994,0.));
#530=DIRECTION('',(0.,0.,1.));
#531=DIRECTION('center_axis',(0.,0.,1.));
#532=DIRECTION('ref_axis',(1.,0.,0.));
#533=DIRECTION('',(0.,0.,-1.));
#534=DIRECTION('',(0.,0.,-1.));
#535=DIRECTION('',(0.,0.,1.));
#536=DIRECTION('center_axis',(0.,0.,1.));
#537=DIRECTION('ref_axis',(0.533333333333333,-0.845905169363301,0.));
#538=DIRECTION('',(0.,0.,1.));
#539=DIRECTION('center_axis',(0.,0.,1.));
#540=DIRECTION('ref_axis',(-0.877373539874062,0.479807952756994,0.));
#541=DIRECTION('',(0.,0.,-1.));
#542=DIRECTION('',(0.,0.,-1.));
#543=CARTESIAN_POINT('',(0.,0.,0.));
#544=CARTESIAN_POINT('Origin',(0.,0.,0.));
#545=CARTESIAN_POINT('',(-2.,-2.44929359829471E-16,-1.));
#546=CARTESIAN_POINT('Origin',(0.,0.,-1.));
#547=CARTESIAN_POINT('',(-2.,2.44929359829471E-16,1.));
#548=CARTESIAN_POINT('',(-2.,-2.44929359829471E-16,0.));
#549=CARTESIAN_POINT('Origin',(0.,0.,1.));
#550=CARTESIAN_POINT('Origin',(1.2,7.61314652426971,0.));
#551=CARTESIAN_POINT('',(0.7,7.61314652426971,-1.));
#552=CARTESIAN_POINT('Origin',(1.2,7.61314652426971,-1.));
#553=CARTESIAN_POINT('',(0.7,7.61314652426971,1.));
#554=CARTESIAN_POINT('',(0.7,7.61314652426971,0.));
#555=CARTESIAN_POINT('Origin',(1.2,7.61314652426971,1.));
#556=CARTESIAN_POINT('Origin',(-1.2,-7.61314652426971,0.));
#557=CARTESIAN_POINT('',(-1.7,-7.61314652426971,-1.));
#558=CARTESIAN_POINT('Origin',(-1.2,-7.61314652426971,-1.));
#559=CARTESIAN_POINT('',(-1.7,-7.61314652426971,1.));
#560=CARTESIAN_POINT('',(-1.7,-7.61314652426971,0.));
#561=CARTESIAN_POINT('Origin',(-1.2,-7.61314652426971,1.));
#562=CARTESIAN_POINT('Origin',(-1.2,-7.61314652426971,-1.));
#563=CARTESIAN_POINT('',(-0.322626460125938,-8.09295447702671,-1.));
#564=CARTESIAN_POINT('Origin',(-1.2,-7.61314652426971,-1.));
#565=CARTESIAN_POINT('Origin',(-1.2,-7.61314652426971,1.));
#566=CARTESIAN_POINT('',(-0.322626460125938,-8.09295447702671,1.));
#567=CARTESIAN_POINT('Origin',(-1.2,-7.61314652426971,1.));
#568=CARTESIAN_POINT('Origin',(1.2,7.61314652426971,-1.));
#569=CARTESIAN_POINT('',(0.322626460125938,8.09295447702671,-1.));
#570=CARTESIAN_POINT('Origin',(1.2,7.61314652426971,-1.));
#571=CARTESIAN_POINT('Origin',(1.2,7.61314652426971,1.));
#572=CARTESIAN_POINT('',(0.322626460125938,8.09295447702671,1.));
#573=CARTESIAN_POINT('Origin',(1.2,7.61314652426971,1.));
#574=CARTESIAN_POINT('Origin',(0.,0.,0.5));
#575=CARTESIAN_POINT('',(2.07737353987406,7.13333857151272,0.5));
#576=CARTESIAN_POINT('',(0.322626460125938,8.09295447702671,0.5));
#577=CARTESIAN_POINT('Origin',(1.2,7.61314652426971,0.5));
#578=CARTESIAN_POINT('',(0.666666666666667,8.45905169363301,0.5));
#579=CARTESIAN_POINT('Origin',(1.2,7.61314652426971,0.5));
#580=CARTESIAN_POINT('',(-4.,0.,0.5));
#581=CARTESIAN_POINT('Origin',(6.,0.,0.5));
#582=CARTESIAN_POINT('',(2.74569649569775,2.90880572632706,0.5));
#583=CARTESIAN_POINT('Origin',(0.,0.,0.5));
#584=CARTESIAN_POINT('Origin',(5.14818092943328,5.45401073686324,0.5));
#585=CARTESIAN_POINT('Origin',(0.,0.,-0.5));
#586=CARTESIAN_POINT('',(0.666666666666667,8.45905169363301,-0.5));
#587=CARTESIAN_POINT('',(0.322626460125938,8.09295447702671,-0.5));
#588=CARTESIAN_POINT('Origin',(1.2,7.61314652426971,-0.5));
#589=CARTESIAN_POINT('',(2.07737353987406,7.13333857151272,-0.5));
#590=CARTESIAN_POINT('Origin',(1.2,7.61314652426971,-0.5));
#591=CARTESIAN_POINT('',(2.74569649569775,2.90880572632706,-0.5));
#592=CARTESIAN_POINT('Origin',(5.14818092943328,5.45401073686324,-0.5));
#593=CARTESIAN_POINT('',(-4.,0.,-0.5));
#594=CARTESIAN_POINT('Origin',(0.,0.,-0.5));
#595=CARTESIAN_POINT('Origin',(6.,0.,-0.5));
#596=CARTESIAN_POINT('Origin',(0.,0.,-1.));
#597=CARTESIAN_POINT('',(-4.,-4.89858719658941E-16,-1.));
#598=CARTESIAN_POINT('Origin',(0.,0.,-1.));
#599=CARTESIAN_POINT('Origin',(0.,0.,1.));
#600=CARTESIAN_POINT('',(-4.,-4.89858719658941E-16,1.));
#601=CARTESIAN_POINT('Origin',(0.,0.,1.));
#602=CARTESIAN_POINT('Origin',(0.,0.,0.5));
#603=CARTESIAN_POINT('',(-2.07737353987406,-7.13333857151272,0.5));
#604=CARTESIAN_POINT('',(-0.322626460125938,-8.09295447702671,0.5));
#605=CARTESIAN_POINT('Origin',(-1.2,-7.61314652426971,0.5));
#606=CARTESIAN_POINT('',(-0.666666666666667,-8.45905169363301,0.5));
#607=CARTESIAN_POINT('Origin',(-1.2,-7.61314652426971,0.5));
#608=CARTESIAN_POINT('',(4.,0.,0.5));
#609=CARTESIAN_POINT('Origin',(-6.,0.,0.5));
#610=CARTESIAN_POINT('',(-2.74569649569775,-2.90880572632706,0.5));
#611=CARTESIAN_POINT('Origin',(0.,0.,0.5));
#612=CARTESIAN_POINT('Origin',(-5.14818092943328,-5.45401073686324,0.5));
#613=CARTESIAN_POINT('Origin',(0.,0.,-0.5));
#614=CARTESIAN_POINT('',(-0.666666666666667,-8.45905169363301,-0.5));
#615=CARTESIAN_POINT('',(-0.322626460125938,-8.09295447702671,-0.5));
#616=CARTESIAN_POINT('Origin',(-1.2,-7.61314652426971,-0.5));
#617=CARTESIAN_POINT('',(-2.07737353987406,-7.13333857151272,-0.5));
#618=CARTESIAN_POINT('Origin',(-1.2,-7.61314652426971,-0.5));
#619=CARTESIAN_POINT('',(-2.74569649569775,-2.90880572632706,-0.5));
#620=CARTESIAN_POINT('Origin',(-5.14818092943328,-5.45401073686324,-0.5));
#621=CARTESIAN_POINT('',(4.,0.,-0.5));
#622=CARTESIAN_POINT('Origin',(0.,0.,-0.5));
#623=CARTESIAN_POINT('Origin',(-6.,0.,-0.5));
#624=CARTESIAN_POINT('Origin',(-5.14818092943328,-5.45401073686324,0.));
#625=CARTESIAN_POINT('',(-2.07737353987406,-7.13333857151272,0.));
#626=CARTESIAN_POINT('',(-2.74569649569775,-2.90880572632706,0.));
#627=CARTESIAN_POINT('Origin',(6.,0.,0.));
#628=CARTESIAN_POINT('',(-4.,0.,0.));
#629=CARTESIAN_POINT('',(0.666666666666667,8.45905169363301,0.));
#630=CARTESIAN_POINT('Origin',(1.2,7.61314652426971,0.));
#631=CARTESIAN_POINT('',(0.322626460125938,8.09295447702671,0.));
#632=CARTESIAN_POINT('',(2.07737353987406,7.13333857151272,0.));
#633=CARTESIAN_POINT('',(0.322626460125938,8.09295447702671,0.));
#634=CARTESIAN_POINT('Origin',(5.14818092943328,5.45401073686324,0.));
#635=CARTESIAN_POINT('',(2.74569649569775,2.90880572632706,0.));
#636=CARTESIAN_POINT('Origin',(0.,0.,0.));
#637=CARTESIAN_POINT('',(-4.,-4.89858719658941E-16,0.));
#638=CARTESIAN_POINT('',(-4.,-4.89858719658941E-16,0.));
#639=CARTESIAN_POINT('',(4.,0.,0.));
#640=CARTESIAN_POINT('Origin',(-6.,0.,0.));
#641=CARTESIAN_POINT('',(-0.666666666666667,-8.45905169363301,0.));
#642=CARTESIAN_POINT('Origin',(-1.2,-7.61314652426971,0.));
#643=CARTESIAN_POINT('',(-0.322626460125938,-8.09295447702671,0.));
#644=CARTESIAN_POINT('',(-0.322626460125938,-8.09295447702671,0.));
#645=UNCERTAINTY_MEASURE_WITH_UNIT(LENGTH_MEASURE(0.001),#649,
'DISTANCE_ACCURACY_VALUE',
'Maximum model space distance between geometric entities at asserted c
onnectivities');
#646=UNCERTAINTY_MEASURE_WITH_UNIT(LENGTH_MEASURE(0.001),#649,
'DISTANCE_ACCURACY_VALUE',
'Maximum model space distance between geometric entities at asserted c
onnectivities');
#647=(
GEOMETRIC_REPRESENTATION_CONTEXT(3)
GLOBAL_UNCERTAINTY_ASSIGNED_CONTEXT((#645))
GLOBAL_UNIT_ASSIGNED_CONTEXT((#649,#651,#652))
REPRESENTATION_CONTEXT('','3D')
);
#648=(
GEOMETRIC_REPRESENTATION_CONTEXT(3)
GLOBAL_UNCERTAINTY_ASSIGNED_CONTEXT((#646))
GLOBAL_UNIT_ASSIGNED_CONTEXT((#649,#651,#652))
REPRESENTATION_CONTEXT('','3D')
);
#649=(
LENGTH_UNIT()
NAMED_UNIT(*)
SI_UNIT(.CENTI.,.METRE.)
);
#650=(
LENGTH_UNIT()
NAMED_UNIT(*)
SI_UNIT($,.METRE.)
);
#651=(
NAMED_UNIT(*)
PLANE_ANGLE_UNIT()
SI_UNIT($,.RADIAN.)
);
#652=(
NAMED_UNIT(*)
SI_UNIT($,.STERADIAN.)
SOLID_ANGLE_UNIT()
);
#653=SHAPE_DEFINITION_REPRESENTATION(#654,#655);
#654=PRODUCT_DEFINITION_SHAPE('',$,#657);
#655=SHAPE_REPRESENTATION('',(#367),#647);
#656=PRODUCT_DEFINITION_CONTEXT('part definition',#661,'design');
#657=PRODUCT_DEFINITION('(Unsaved)','(Unsaved)',#658,#656);
#658=PRODUCT_DEFINITION_FORMATION('',$,#663);
#659=PRODUCT_RELATED_PRODUCT_CATEGORY('(Unsaved)','(Unsaved)',(#663));
#660=APPLICATION_PROTOCOL_DEFINITION('international standard',
'automotive_design',2009,#661);
#661=APPLICATION_CONTEXT(
'Core Data for Automotive Mechanical Design Process');
#662=PRODUCT_CONTEXT('part definition',#661,'mechanical');
#663=PRODUCT('(Unsaved)','(Unsaved)',$,(#662));
#664=PRESENTATION_STYLE_ASSIGNMENT((#665));
#665=SURFACE_STYLE_USAGE(.BOTH.,#666);
#666=SURFACE_SIDE_STYLE('',(#667));
#667=SURFACE_STYLE_FILL_AREA(#668);
#668=FILL_AREA_STYLE('Steel - Satin',(#669));
#669=FILL_AREA_STYLE_COLOUR('Steel - Satin',#670);
#670=COLOUR_RGB('Steel - Satin',0.627450980392157,0.627450980392157,0.627450980392157);
ENDSEC;
END-ISO-10303-21;
