ISO-10303-21;
HEADER;
/* Generated by software containing ST-Developer
 * from STEP Tools, Inc. (www.steptools.com) 
 */

FILE_DESCRIPTION(
/* description */ (''),
/* implementation_level */ '2;1');

FILE_NAME(
/* name */ 'step_bracket.stp',
/* time_stamp */ '2026-08-22T03:38:36+02:00',
/* author */ (''),
/* organization */ (''),
/* preprocessor_version */ 'ST-DEVELOPER v20.1',
/* originating_system */ 'Autodesk Translation Framework v15.8.0.0',
/* authorisation */ '');

FILE_SCHEMA (('AUTOMOTIVE_DESIGN { 1 0 10303 214 3 1 1 }'));
ENDSEC;

DATA;
#10=MECHANICAL_DESIGN_GEOMETRIC_PRESENTATION_REPRESENTATION('',(#13),#719);
#11=SHAPE_REPRESENTATION_RELATIONSHIP('SRR','None',#726,#12);
#12=ADVANCED_BREP_SHAPE_REPRESENTATION('',(#14),#718);
#13=STYLED_ITEM('',(#735),#14);
#14=MANIFOLD_SOLID_BREP('Body23',#436);
#15=FACE_BOUND('',#54,.T.);
#16=CIRCLE('',#452,1.);
#17=CIRCLE('',#453,1.);
#18=CIRCLE('',#457,2.);
#19=CIRCLE('',#458,1.5);
#20=CIRCLE('',#465,1.5);
#21=CIRCLE('',#470,2.);
#22=CIRCLE('',#471,1.5);
#23=CIRCLE('',#472,1.5);
#24=CYLINDRICAL_SURFACE('',#451,1.);
#25=CYLINDRICAL_SURFACE('',#473,1.5);
#26=CYLINDRICAL_SURFACE('',#476,2.);
#27=FACE_OUTER_BOUND('',#49,.T.);
#28=FACE_OUTER_BOUND('',#50,.T.);
#29=FACE_OUTER_BOUND('',#51,.T.);
#30=FACE_OUTER_BOUND('',#52,.T.);
#31=FACE_OUTER_BOUND('',#53,.T.);
#32=FACE_OUTER_BOUND('',#55,.T.);
#33=FACE_OUTER_BOUND('',#56,.T.);
#34=FACE_OUTER_BOUND('',#57,.T.);
#35=FACE_OUTER_BOUND('',#58,.T.);
#36=FACE_OUTER_BOUND('',#59,.T.);
#37=FACE_OUTER_BOUND('',#60,.T.);
#38=FACE_OUTER_BOUND('',#61,.T.);
#39=FACE_OUTER_BOUND('',#62,.T.);
#40=FACE_OUTER_BOUND('',#63,.T.);
#41=FACE_OUTER_BOUND('',#64,.T.);
#42=FACE_OUTER_BOUND('',#65,.T.);
#43=FACE_OUTER_BOUND('',#66,.T.);
#44=FACE_OUTER_BOUND('',#67,.T.);
#45=FACE_OUTER_BOUND('',#68,.T.);
#46=FACE_OUTER_BOUND('',#69,.T.);
#47=FACE_OUTER_BOUND('',#70,.T.);
#48=FACE_OUTER_BOUND('',#71,.T.);
#49=EDGE_LOOP('',(#275,#276,#277,#278));
#50=EDGE_LOOP('',(#279,#280,#281,#282,#283));
#51=EDGE_LOOP('',(#284,#285,#286,#287));
#52=EDGE_LOOP('',(#288,#289,#290,#291));
#53=EDGE_LOOP('',(#292,#293,#294,#295,#296,#297,#298,#299,#300));
#54=EDGE_LOOP('',(#301));
#55=EDGE_LOOP('',(#302,#303,#304,#305,#306));
#56=EDGE_LOOP('',(#307,#308,#309,#310));
#57=EDGE_LOOP('',(#311,#312,#313,#314));
#58=EDGE_LOOP('',(#315,#316,#317,#318,#319));
#59=EDGE_LOOP('',(#320,#321,#322,#323,#324,#325,#326,#327,#328,#329,#330));
#60=EDGE_LOOP('',(#331,#332,#333));
#61=EDGE_LOOP('',(#334,#335,#336,#337));
#62=EDGE_LOOP('',(#338,#339,#340,#341));
#63=EDGE_LOOP('',(#342,#343,#344,#345));
#64=EDGE_LOOP('',(#346,#347,#348,#349,#350,#351,#352,#353,#354,#355,#356,
#357,#358));
#65=EDGE_LOOP('',(#359,#360,#361,#362,#363,#364));
#66=EDGE_LOOP('',(#365,#366,#367,#368,#369,#370,#371,#372,#373,#374));
#67=EDGE_LOOP('',(#375,#376,#377,#378));
#68=EDGE_LOOP('',(#379,#380,#381,#382));
#69=EDGE_LOOP('',(#383,#384,#385,#386));
#70=EDGE_LOOP('',(#387,#388,#389,#390));
#71=EDGE_LOOP('',(#391,#392,#393,#394));
#72=LINE('',#598,#124);
#73=LINE('',#600,#125);
#74=LINE('',#602,#126);
#75=LINE('',#603,#127);
#76=LINE('',#608,#128);
#77=LINE('',#611,#129);
#78=LINE('',#614,#130);
#79=LINE('',#616,#131);
#80=LINE('',#617,#132);
#81=LINE('',#619,#133);
#82=LINE('',#622,#134);
#83=LINE('',#624,#135);
#84=LINE('',#626,#136);
#85=LINE('',#628,#137);
#86=LINE('',#630,#138);
#87=LINE('',#632,#139);
#88=LINE('',#635,#140);
#89=LINE('',#640,#141);
#90=LINE('',#641,#142);
#91=LINE('',#645,#143);
#92=LINE('',#647,#144);
#93=LINE('',#649,#145);
#94=LINE('',#650,#146);
#95=LINE('',#653,#147);
#96=LINE('',#655,#148);
#97=LINE('',#656,#149);
#98=LINE('',#659,#150);
#99=LINE('',#661,#151);
#100=LINE('',#663,#152);
#101=LINE('',#664,#153);
#102=LINE('',#667,#154);
#103=LINE('',#669,#155);
#104=LINE('',#671,#156);
#105=LINE('',#672,#157);
#106=LINE('',#674,#158);
#107=LINE('',#676,#159);
#108=LINE('',#677,#160);
#109=LINE('',#683,#161);
#110=LINE('',#684,#162);
#111=LINE('',#685,#163);
#112=LINE('',#687,#164);
#113=LINE('',#690,#165);
#114=LINE('',#691,#166);
#115=LINE('',#694,#167);
#116=LINE('',#698,#168);
#117=LINE('',#699,#169);
#118=LINE('',#703,#170);
#119=LINE('',#705,#171);
#120=LINE('',#707,#172);
#121=LINE('',#708,#173);
#122=LINE('',#710,#174);
#123=LINE('',#712,#175);
#124=VECTOR('',#484,1.);
#125=VECTOR('',#485,1.);
#126=VECTOR('',#486,1.);
#127=VECTOR('',#487,1.);
#128=VECTOR('',#492,1.);
#129=VECTOR('',#495,1.);
#130=VECTOR('',#498,1.);
#131=VECTOR('',#499,1.);
#132=VECTOR('',#500,1.);
#133=VECTOR('',#503,1.);
#134=VECTOR('',#506,1.);
#135=VECTOR('',#507,1.);
#136=VECTOR('',#508,1.);
#137=VECTOR('',#509,1.);
#138=VECTOR('',#510,1.);
#139=VECTOR('',#511,1.);
#140=VECTOR('',#514,1.);
#141=VECTOR('',#519,1.);
#142=VECTOR('',#520,1.);
#143=VECTOR('',#523,1.);
#144=VECTOR('',#524,1.);
#145=VECTOR('',#525,1.);
#146=VECTOR('',#526,1.);
#147=VECTOR('',#529,1.);
#148=VECTOR('',#530,1.);
#149=VECTOR('',#531,1.);
#150=VECTOR('',#534,1.);
#151=VECTOR('',#535,1.);
#152=VECTOR('',#536,1.);
#153=VECTOR('',#537,1.);
#154=VECTOR('',#540,1.);
#155=VECTOR('',#541,1.);
#156=VECTOR('',#542,1.);
#157=VECTOR('',#543,1.);
#158=VECTOR('',#544,1.);
#159=VECTOR('',#545,1.);
#160=VECTOR('',#546,1.);
#161=VECTOR('',#553,1.);
#162=VECTOR('',#554,1.);
#163=VECTOR('',#555,1.);
#164=VECTOR('',#558,1.);
#165=VECTOR('',#561,1.);
#166=VECTOR('',#562,1.);
#167=VECTOR('',#565,1.);
#168=VECTOR('',#568,1.);
#169=VECTOR('',#569,1.);
#170=VECTOR('',#574,1.);
#171=VECTOR('',#577,1.5);
#172=VECTOR('',#580,1.);
#173=VECTOR('',#581,1.);
#174=VECTOR('',#584,1.);
#175=VECTOR('',#587,1.);
#176=VERTEX_POINT('',#596);
#177=VERTEX_POINT('',#597);
#178=VERTEX_POINT('',#599);
#179=VERTEX_POINT('',#601);
#180=VERTEX_POINT('',#605);
#181=VERTEX_POINT('',#606);
#182=VERTEX_POINT('',#609);
#183=VERTEX_POINT('',#613);
#184=VERTEX_POINT('',#615);
#185=VERTEX_POINT('',#621);
#186=VERTEX_POINT('',#623);
#187=VERTEX_POINT('',#625);
#188=VERTEX_POINT('',#627);
#189=VERTEX_POINT('',#629);
#190=VERTEX_POINT('',#631);
#191=VERTEX_POINT('',#633);
#192=VERTEX_POINT('',#636);
#193=VERTEX_POINT('',#639);
#194=VERTEX_POINT('',#643);
#195=VERTEX_POINT('',#644);
#196=VERTEX_POINT('',#646);
#197=VERTEX_POINT('',#648);
#198=VERTEX_POINT('',#652);
#199=VERTEX_POINT('',#654);
#200=VERTEX_POINT('',#658);
#201=VERTEX_POINT('',#660);
#202=VERTEX_POINT('',#662);
#203=VERTEX_POINT('',#666);
#204=VERTEX_POINT('',#668);
#205=VERTEX_POINT('',#670);
#206=VERTEX_POINT('',#673);
#207=VERTEX_POINT('',#675);
#208=VERTEX_POINT('',#681);
#209=VERTEX_POINT('',#682);
#210=VERTEX_POINT('',#689);
#211=VERTEX_POINT('',#693);
#212=VERTEX_POINT('',#695);
#213=VERTEX_POINT('',#697);
#214=VERTEX_POINT('',#700);
#215=EDGE_CURVE('',#176,#177,#72,.T.);
#216=EDGE_CURVE('',#176,#178,#73,.T.);
#217=EDGE_CURVE('',#179,#178,#74,.T.);
#218=EDGE_CURVE('',#177,#179,#75,.T.);
#219=EDGE_CURVE('',#180,#181,#16,.T.);
#220=EDGE_CURVE('',#177,#181,#76,.T.);
#221=EDGE_CURVE('',#182,#179,#17,.T.);
#222=EDGE_CURVE('',#180,#182,#77,.T.);
#223=EDGE_CURVE('',#183,#180,#78,.T.);
#224=EDGE_CURVE('',#184,#182,#79,.T.);
#225=EDGE_CURVE('',#183,#184,#80,.T.);
#226=EDGE_CURVE('',#178,#184,#81,.T.);
#227=EDGE_CURVE('',#181,#185,#82,.T.);
#228=EDGE_CURVE('',#185,#186,#83,.T.);
#229=EDGE_CURVE('',#186,#187,#84,.T.);
#230=EDGE_CURVE('',#187,#188,#85,.T.);
#231=EDGE_CURVE('',#188,#189,#86,.T.);
#232=EDGE_CURVE('',#189,#190,#87,.T.);
#233=EDGE_CURVE('',#190,#191,#18,.T.);
#234=EDGE_CURVE('',#191,#177,#88,.T.);
#235=EDGE_CURVE('',#192,#192,#19,.T.);
#236=EDGE_CURVE('',#183,#193,#89,.T.);
#237=EDGE_CURVE('',#193,#185,#90,.T.);
#238=EDGE_CURVE('',#194,#195,#91,.T.);
#239=EDGE_CURVE('',#194,#196,#92,.T.);
#240=EDGE_CURVE('',#197,#196,#93,.T.);
#241=EDGE_CURVE('',#195,#197,#94,.T.);
#242=EDGE_CURVE('',#198,#194,#95,.T.);
#243=EDGE_CURVE('',#199,#198,#96,.T.);
#244=EDGE_CURVE('',#196,#199,#97,.T.);
#245=EDGE_CURVE('',#200,#197,#98,.T.);
#246=EDGE_CURVE('',#201,#200,#99,.T.);
#247=EDGE_CURVE('',#202,#201,#100,.T.);
#248=EDGE_CURVE('',#202,#195,#101,.T.);
#249=EDGE_CURVE('',#199,#203,#102,.T.);
#250=EDGE_CURVE('',#203,#204,#103,.T.);
#251=EDGE_CURVE('',#204,#205,#104,.T.);
#252=EDGE_CURVE('',#205,#187,#105,.T.);
#253=EDGE_CURVE('',#206,#186,#106,.T.);
#254=EDGE_CURVE('',#207,#206,#107,.T.);
#255=EDGE_CURVE('',#207,#200,#108,.T.);
#256=EDGE_CURVE('',#207,#201,#20,.T.);
#257=EDGE_CURVE('',#208,#209,#109,.T.);
#258=EDGE_CURVE('',#204,#209,#110,.T.);
#259=EDGE_CURVE('',#208,#203,#111,.T.);
#260=EDGE_CURVE('',#198,#208,#112,.T.);
#261=EDGE_CURVE('',#210,#209,#113,.T.);
#262=EDGE_CURVE('',#205,#210,#114,.T.);
#263=EDGE_CURVE('',#211,#176,#115,.T.);
#264=EDGE_CURVE('',#212,#211,#21,.T.);
#265=EDGE_CURVE('',#213,#212,#116,.T.);
#266=EDGE_CURVE('',#202,#213,#117,.T.);
#267=EDGE_CURVE('',#201,#214,#22,.T.);
#268=EDGE_CURVE('',#214,#207,#23,.T.);
#269=EDGE_CURVE('',#193,#206,#118,.T.);
#270=EDGE_CURVE('',#214,#192,#119,.T.);
#271=EDGE_CURVE('',#213,#189,#120,.T.);
#272=EDGE_CURVE('',#210,#188,#121,.T.);
#273=EDGE_CURVE('',#212,#190,#122,.T.);
#274=EDGE_CURVE('',#211,#191,#123,.T.);
#275=ORIENTED_EDGE('',*,*,#215,.F.);
#276=ORIENTED_EDGE('',*,*,#216,.T.);
#277=ORIENTED_EDGE('',*,*,#217,.F.);
#278=ORIENTED_EDGE('',*,*,#218,.F.);
#279=ORIENTED_EDGE('',*,*,#219,.T.);
#280=ORIENTED_EDGE('',*,*,#220,.F.);
#281=ORIENTED_EDGE('',*,*,#218,.T.);
#282=ORIENTED_EDGE('',*,*,#221,.F.);
#283=ORIENTED_EDGE('',*,*,#222,.F.);
#284=ORIENTED_EDGE('',*,*,#223,.T.);
#285=ORIENTED_EDGE('',*,*,#222,.T.);
#286=ORIENTED_EDGE('',*,*,#224,.F.);
#287=ORIENTED_EDGE('',*,*,#225,.F.);
#288=ORIENTED_EDGE('',*,*,#226,.T.);
#289=ORIENTED_EDGE('',*,*,#224,.T.);
#290=ORIENTED_EDGE('',*,*,#221,.T.);
#291=ORIENTED_EDGE('',*,*,#217,.T.);
#292=ORIENTED_EDGE('',*,*,#220,.T.);
#293=ORIENTED_EDGE('',*,*,#227,.T.);
#294=ORIENTED_EDGE('',*,*,#228,.T.);
#295=ORIENTED_EDGE('',*,*,#229,.T.);
#296=ORIENTED_EDGE('',*,*,#230,.T.);
#297=ORIENTED_EDGE('',*,*,#231,.T.);
#298=ORIENTED_EDGE('',*,*,#232,.T.);
#299=ORIENTED_EDGE('',*,*,#233,.T.);
#300=ORIENTED_EDGE('',*,*,#234,.T.);
#301=ORIENTED_EDGE('',*,*,#235,.T.);
#302=ORIENTED_EDGE('',*,*,#236,.T.);
#303=ORIENTED_EDGE('',*,*,#237,.T.);
#304=ORIENTED_EDGE('',*,*,#227,.F.);
#305=ORIENTED_EDGE('',*,*,#219,.F.);
#306=ORIENTED_EDGE('',*,*,#223,.F.);
#307=ORIENTED_EDGE('',*,*,#238,.F.);
#308=ORIENTED_EDGE('',*,*,#239,.T.);
#309=ORIENTED_EDGE('',*,*,#240,.F.);
#310=ORIENTED_EDGE('',*,*,#241,.F.);
#311=ORIENTED_EDGE('',*,*,#242,.F.);
#312=ORIENTED_EDGE('',*,*,#243,.F.);
#313=ORIENTED_EDGE('',*,*,#244,.F.);
#314=ORIENTED_EDGE('',*,*,#239,.F.);
#315=ORIENTED_EDGE('',*,*,#241,.T.);
#316=ORIENTED_EDGE('',*,*,#245,.F.);
#317=ORIENTED_EDGE('',*,*,#246,.F.);
#318=ORIENTED_EDGE('',*,*,#247,.F.);
#319=ORIENTED_EDGE('',*,*,#248,.T.);
#320=ORIENTED_EDGE('',*,*,#240,.T.);
#321=ORIENTED_EDGE('',*,*,#244,.T.);
#322=ORIENTED_EDGE('',*,*,#249,.T.);
#323=ORIENTED_EDGE('',*,*,#250,.T.);
#324=ORIENTED_EDGE('',*,*,#251,.T.);
#325=ORIENTED_EDGE('',*,*,#252,.T.);
#326=ORIENTED_EDGE('',*,*,#229,.F.);
#327=ORIENTED_EDGE('',*,*,#253,.F.);
#328=ORIENTED_EDGE('',*,*,#254,.F.);
#329=ORIENTED_EDGE('',*,*,#255,.T.);
#330=ORIENTED_EDGE('',*,*,#245,.T.);
#331=ORIENTED_EDGE('',*,*,#256,.T.);
#332=ORIENTED_EDGE('',*,*,#246,.T.);
#333=ORIENTED_EDGE('',*,*,#255,.F.);
#334=ORIENTED_EDGE('',*,*,#257,.T.);
#335=ORIENTED_EDGE('',*,*,#258,.F.);
#336=ORIENTED_EDGE('',*,*,#250,.F.);
#337=ORIENTED_EDGE('',*,*,#259,.F.);
#338=ORIENTED_EDGE('',*,*,#243,.T.);
#339=ORIENTED_EDGE('',*,*,#260,.T.);
#340=ORIENTED_EDGE('',*,*,#259,.T.);
#341=ORIENTED_EDGE('',*,*,#249,.F.);
#342=ORIENTED_EDGE('',*,*,#258,.T.);
#343=ORIENTED_EDGE('',*,*,#261,.F.);
#344=ORIENTED_EDGE('',*,*,#262,.F.);
#345=ORIENTED_EDGE('',*,*,#251,.F.);
#346=ORIENTED_EDGE('',*,*,#263,.F.);
#347=ORIENTED_EDGE('',*,*,#264,.F.);
#348=ORIENTED_EDGE('',*,*,#265,.F.);
#349=ORIENTED_EDGE('',*,*,#266,.F.);
#350=ORIENTED_EDGE('',*,*,#247,.T.);
#351=ORIENTED_EDGE('',*,*,#267,.T.);
#352=ORIENTED_EDGE('',*,*,#268,.T.);
#353=ORIENTED_EDGE('',*,*,#254,.T.);
#354=ORIENTED_EDGE('',*,*,#269,.F.);
#355=ORIENTED_EDGE('',*,*,#236,.F.);
#356=ORIENTED_EDGE('',*,*,#225,.T.);
#357=ORIENTED_EDGE('',*,*,#226,.F.);
#358=ORIENTED_EDGE('',*,*,#216,.F.);
#359=ORIENTED_EDGE('',*,*,#267,.F.);
#360=ORIENTED_EDGE('',*,*,#256,.F.);
#361=ORIENTED_EDGE('',*,*,#268,.F.);
#362=ORIENTED_EDGE('',*,*,#270,.T.);
#363=ORIENTED_EDGE('',*,*,#235,.F.);
#364=ORIENTED_EDGE('',*,*,#270,.F.);
#365=ORIENTED_EDGE('',*,*,#238,.T.);
#366=ORIENTED_EDGE('',*,*,#248,.F.);
#367=ORIENTED_EDGE('',*,*,#266,.T.);
#368=ORIENTED_EDGE('',*,*,#271,.T.);
#369=ORIENTED_EDGE('',*,*,#231,.F.);
#370=ORIENTED_EDGE('',*,*,#272,.F.);
#371=ORIENTED_EDGE('',*,*,#261,.T.);
#372=ORIENTED_EDGE('',*,*,#257,.F.);
#373=ORIENTED_EDGE('',*,*,#260,.F.);
#374=ORIENTED_EDGE('',*,*,#242,.T.);
#375=ORIENTED_EDGE('',*,*,#265,.T.);
#376=ORIENTED_EDGE('',*,*,#273,.T.);
#377=ORIENTED_EDGE('',*,*,#232,.F.);
#378=ORIENTED_EDGE('',*,*,#271,.F.);
#379=ORIENTED_EDGE('',*,*,#264,.T.);
#380=ORIENTED_EDGE('',*,*,#274,.T.);
#381=ORIENTED_EDGE('',*,*,#233,.F.);
#382=ORIENTED_EDGE('',*,*,#273,.F.);
#383=ORIENTED_EDGE('',*,*,#215,.T.);
#384=ORIENTED_EDGE('',*,*,#234,.F.);
#385=ORIENTED_EDGE('',*,*,#274,.F.);
#386=ORIENTED_EDGE('',*,*,#263,.T.);
#387=ORIENTED_EDGE('',*,*,#269,.T.);
#388=ORIENTED_EDGE('',*,*,#253,.T.);
#389=ORIENTED_EDGE('',*,*,#228,.F.);
#390=ORIENTED_EDGE('',*,*,#237,.F.);
#391=ORIENTED_EDGE('',*,*,#262,.T.);
#392=ORIENTED_EDGE('',*,*,#272,.T.);
#393=ORIENTED_EDGE('',*,*,#230,.F.);
#394=ORIENTED_EDGE('',*,*,#252,.F.);
#395=PLANE('',#450);
#396=PLANE('',#454);
#397=PLANE('',#455);
#398=PLANE('',#456);
#399=PLANE('',#459);
#400=PLANE('',#460);
#401=PLANE('',#461);
#402=PLANE('',#462);
#403=PLANE('',#463);
#404=PLANE('',#464);
#405=PLANE('',#466);
#406=PLANE('',#467);
#407=PLANE('',#468);
#408=PLANE('',#469);
#409=PLANE('',#474);
#410=PLANE('',#475);
#411=PLANE('',#477);
#412=PLANE('',#478);
#413=PLANE('',#479);
#414=ADVANCED_FACE('',(#27),#395,.T.);
#415=ADVANCED_FACE('',(#28),#24,.T.);
#416=ADVANCED_FACE('',(#29),#396,.T.);
#417=ADVANCED_FACE('',(#30),#397,.T.);
#418=ADVANCED_FACE('',(#31,#15),#398,.T.);
#419=ADVANCED_FACE('',(#32),#399,.T.);
#420=ADVANCED_FACE('',(#33),#400,.F.);
#421=ADVANCED_FACE('',(#34),#401,.F.);
#422=ADVANCED_FACE('',(#35),#402,.T.);
#423=ADVANCED_FACE('',(#36),#403,.T.);
#424=ADVANCED_FACE('',(#37),#404,.T.);
#425=ADVANCED_FACE('',(#38),#405,.T.);
#426=ADVANCED_FACE('',(#39),#406,.T.);
#427=ADVANCED_FACE('',(#40),#407,.F.);
#428=ADVANCED_FACE('',(#41),#408,.F.);
#429=ADVANCED_FACE('',(#42),#25,.F.);
#430=ADVANCED_FACE('',(#43),#409,.T.);
#431=ADVANCED_FACE('',(#44),#410,.T.);
#432=ADVANCED_FACE('',(#45),#26,.T.);
#433=ADVANCED_FACE('',(#46),#411,.T.);
#434=ADVANCED_FACE('',(#47),#412,.T.);
#435=ADVANCED_FACE('',(#48),#413,.T.);
#436=CLOSED_SHELL('',(#414,#415,#416,#417,#418,#419,#420,#421,#422,#423,
#424,#425,#426,#427,#428,#429,#430,#431,#432,#433,#434,#435));
#437=DERIVED_UNIT_ELEMENT(#439,1.);
#438=DERIVED_UNIT_ELEMENT(#721,-3.);
#439=(
MASS_UNIT()
NAMED_UNIT(*)
SI_UNIT(.KILO.,.GRAM.)
);
#440=DERIVED_UNIT((#437,#438));
#441=MEASURE_REPRESENTATION_ITEM('density measure',
POSITIVE_RATIO_MEASURE(7850.),#440);
#442=PROPERTY_DEFINITION_REPRESENTATION(#447,#444);
#443=PROPERTY_DEFINITION_REPRESENTATION(#448,#445);
#444=REPRESENTATION('material name',(#446),#718);
#445=REPRESENTATION('density',(#441),#718);
#446=DESCRIPTIVE_REPRESENTATION_ITEM('Steel','Steel');
#447=PROPERTY_DEFINITION('material property','material name',#728);
#448=PROPERTY_DEFINITION('material property','density of part',#728);
#449=AXIS2_PLACEMENT_3D('',#594,#480,#481);
#450=AXIS2_PLACEMENT_3D('',#595,#482,#483);
#451=AXIS2_PLACEMENT_3D('',#604,#488,#489);
#452=AXIS2_PLACEMENT_3D('',#607,#490,#491);
#453=AXIS2_PLACEMENT_3D('',#610,#493,#494);
#454=AXIS2_PLACEMENT_3D('',#612,#496,#497);
#455=AXIS2_PLACEMENT_3D('',#618,#501,#502);
#456=AXIS2_PLACEMENT_3D('',#620,#504,#505);
#457=AXIS2_PLACEMENT_3D('',#634,#512,#513);
#458=AXIS2_PLACEMENT_3D('',#637,#515,#516);
#459=AXIS2_PLACEMENT_3D('',#638,#517,#518);
#460=AXIS2_PLACEMENT_3D('',#642,#521,#522);
#461=AXIS2_PLACEMENT_3D('',#651,#527,#528);
#462=AXIS2_PLACEMENT_3D('',#657,#532,#533);
#463=AXIS2_PLACEMENT_3D('',#665,#538,#539);
#464=AXIS2_PLACEMENT_3D('',#678,#547,#548);
#465=AXIS2_PLACEMENT_3D('',#679,#549,#550);
#466=AXIS2_PLACEMENT_3D('',#680,#551,#552);
#467=AXIS2_PLACEMENT_3D('',#686,#556,#557);
#468=AXIS2_PLACEMENT_3D('',#688,#559,#560);
#469=AXIS2_PLACEMENT_3D('',#692,#563,#564);
#470=AXIS2_PLACEMENT_3D('',#696,#566,#567);
#471=AXIS2_PLACEMENT_3D('',#701,#570,#571);
#472=AXIS2_PLACEMENT_3D('',#702,#572,#573);
#473=AXIS2_PLACEMENT_3D('',#704,#575,#576);
#474=AXIS2_PLACEMENT_3D('',#706,#578,#579);
#475=AXIS2_PLACEMENT_3D('',#709,#582,#583);
#476=AXIS2_PLACEMENT_3D('',#711,#585,#586);
#477=AXIS2_PLACEMENT_3D('',#713,#588,#589);
#478=AXIS2_PLACEMENT_3D('',#714,#590,#591);
#479=AXIS2_PLACEMENT_3D('',#715,#592,#593);
#480=DIRECTION('axis',(0.,0.,1.));
#481=DIRECTION('refdir',(1.,0.,0.));
#482=DIRECTION('center_axis',(0.,1.,0.));
#483=DIRECTION('ref_axis',(-1.,0.,0.));
#484=DIRECTION('',(1.,0.,0.));
#485=DIRECTION('',(0.,0.,1.));
#486=DIRECTION('',(-1.,0.,0.));
#487=DIRECTION('',(0.,0.,1.));
#488=DIRECTION('center_axis',(0.,0.,1.));
#489=DIRECTION('ref_axis',(0.,-1.,0.));
#490=DIRECTION('center_axis',(0.,0.,1.));
#491=DIRECTION('ref_axis',(0.,-1.,0.));
#492=DIRECTION('',(0.,0.,-1.));
#493=DIRECTION('center_axis',(0.,0.,1.));
#494=DIRECTION('ref_axis',(0.,-1.,0.));
#495=DIRECTION('',(0.,0.,1.));
#496=DIRECTION('center_axis',(0.,-1.,0.));
#497=DIRECTION('ref_axis',(1.,0.,0.));
#498=DIRECTION('',(1.,0.,0.));
#499=DIRECTION('',(1.,0.,0.));
#500=DIRECTION('',(0.,0.,1.));
#501=DIRECTION('center_axis',(0.,0.,1.));
#502=DIRECTION('ref_axis',(1.,0.,0.));
#503=DIRECTION('',(0.,-1.,0.));
#504=DIRECTION('center_axis',(1.,0.,0.));
#505=DIRECTION('ref_axis',(0.,0.,-1.));
#506=DIRECTION('',(0.,1.,0.));
#507=DIRECTION('',(0.,0.,-1.));
#508=DIRECTION('',(0.,-1.,0.));
#509=DIRECTION('',(0.,0.,-1.));
#510=DIRECTION('',(0.,1.,0.));
#511=DIRECTION('',(0.,0.,1.));
#512=DIRECTION('center_axis',(1.,0.,0.));
#513=DIRECTION('ref_axis',(0.,0.,-1.));
#514=DIRECTION('',(0.,-0.993883734673619,0.110431526074847));
#515=DIRECTION('center_axis',(-1.,0.,0.));
#516=DIRECTION('ref_axis',(0.,0.,-1.));
#517=DIRECTION('center_axis',(0.,0.,-1.));
#518=DIRECTION('ref_axis',(0.,1.,0.));
#519=DIRECTION('',(0.,1.,0.));
#520=DIRECTION('',(1.,0.,0.));
#521=DIRECTION('center_axis',(1.,0.,0.));
#522=DIRECTION('ref_axis',(0.,1.,0.));
#523=DIRECTION('',(0.,1.,0.));
#524=DIRECTION('',(0.,0.,1.));
#525=DIRECTION('',(0.,-1.,0.));
#526=DIRECTION('',(0.,0.,1.));
#527=DIRECTION('center_axis',(0.,-1.,0.));
#528=DIRECTION('ref_axis',(1.,0.,0.));
#529=DIRECTION('',(1.,0.,0.));
#530=DIRECTION('',(0.,0.,-1.));
#531=DIRECTION('',(-1.,0.,0.));
#532=DIRECTION('center_axis',(0.,1.,0.));
#533=DIRECTION('ref_axis',(-1.,0.,0.));
#534=DIRECTION('',(-1.,0.,0.));
#535=DIRECTION('',(0.,0.,1.));
#536=DIRECTION('',(0.,0.,1.));
#537=DIRECTION('',(-1.,0.,0.));
#538=DIRECTION('center_axis',(0.,0.,1.));
#539=DIRECTION('ref_axis',(0.,-1.,0.));
#540=DIRECTION('',(0.,-1.,0.));
#541=DIRECTION('',(1.,0.,0.));
#542=DIRECTION('',(0.,-1.,0.));
#543=DIRECTION('',(1.,0.,0.));
#544=DIRECTION('',(1.,0.,0.));
#545=DIRECTION('',(0.,-1.,0.));
#546=DIRECTION('',(0.,1.,0.));
#547=DIRECTION('center_axis',(1.,0.,0.));
#548=DIRECTION('ref_axis',(0.,1.,0.));
#549=DIRECTION('center_axis',(1.,0.,0.));
#550=DIRECTION('ref_axis',(0.,0.,-1.));
#551=DIRECTION('center_axis',(0.,-1.,0.));
#552=DIRECTION('ref_axis',(1.,0.,0.));
#553=DIRECTION('',(1.,0.,0.));
#554=DIRECTION('',(0.,0.,-1.));
#555=DIRECTION('',(0.,0.,1.));
#556=DIRECTION('center_axis',(-1.,0.,0.));
#557=DIRECTION('ref_axis',(0.,-1.,0.));
#558=DIRECTION('',(0.,-1.,0.));
#559=DIRECTION('center_axis',(1.,0.,0.));
#560=DIRECTION('ref_axis',(0.,0.,-1.));
#561=DIRECTION('',(0.,1.,0.));
#562=DIRECTION('',(0.,0.,-1.));
#563=DIRECTION('center_axis',(1.,0.,0.));
#564=DIRECTION('ref_axis',(0.,0.,-1.));
#565=DIRECTION('',(0.,-0.993883734673619,0.110431526074847));
#566=DIRECTION('center_axis',(1.,0.,0.));
#567=DIRECTION('ref_axis',(0.,0.,-1.));
#568=DIRECTION('',(0.,0.,1.));
#569=DIRECTION('',(0.,1.,0.));
#570=DIRECTION('center_axis',(1.,0.,0.));
#571=DIRECTION('ref_axis',(0.,0.,-1.));
#572=DIRECTION('center_axis',(1.,0.,0.));
#573=DIRECTION('ref_axis',(0.,0.,-1.));
#574=DIRECTION('',(0.,0.,-1.));
#575=DIRECTION('center_axis',(1.,0.,0.));
#576=DIRECTION('ref_axis',(0.,0.,-1.));
#577=DIRECTION('',(1.,0.,0.));
#578=DIRECTION('center_axis',(0.,0.,-1.));
#579=DIRECTION('ref_axis',(0.,1.,0.));
#580=DIRECTION('',(1.,0.,0.));
#581=DIRECTION('',(1.,0.,0.));
#582=DIRECTION('center_axis',(0.,1.,0.));
#583=DIRECTION('ref_axis',(0.,0.,1.));
#584=DIRECTION('',(1.,0.,0.));
#585=DIRECTION('center_axis',(1.,0.,0.));
#586=DIRECTION('ref_axis',(0.,0.,-1.));
#587=DIRECTION('',(1.,0.,0.));
#588=DIRECTION('center_axis',(0.,0.110431526074847,0.993883734673619));
#589=DIRECTION('ref_axis',(0.,-0.993883734673619,0.110431526074847));
#590=DIRECTION('center_axis',(0.,-1.,0.));
#591=DIRECTION('ref_axis',(0.,0.,-1.));
#592=DIRECTION('center_axis',(0.,-1.,0.));
#593=DIRECTION('ref_axis',(0.,0.,-1.));
#594=CARTESIAN_POINT('',(0.,0.,0.));
#595=CARTESIAN_POINT('Origin',(10.5,2.,3.5));
#596=CARTESIAN_POINT('',(7.,2.,4.94444444444444));
#597=CARTESIAN_POINT('',(10.5,2.,4.94444444444444));
#598=CARTESIAN_POINT('',(5.25,2.,4.94444444444444));
#599=CARTESIAN_POINT('',(7.,2.,5.));
#600=CARTESIAN_POINT('',(7.,2.,3.5));
#601=CARTESIAN_POINT('',(10.5,2.,5.));
#602=CARTESIAN_POINT('',(10.5,2.,5.));
#603=CARTESIAN_POINT('',(10.5,2.,3.5));
#604=CARTESIAN_POINT('Origin',(10.5,1.,3.5));
#605=CARTESIAN_POINT('',(10.5,0.,3.5));
#606=CARTESIAN_POINT('',(10.5,2.,3.5));
#607=CARTESIAN_POINT('Origin',(10.5,1.,3.5));
#608=CARTESIAN_POINT('',(10.5,2.,3.));
#609=CARTESIAN_POINT('',(10.5,0.,5.));
#610=CARTESIAN_POINT('Origin',(10.5,1.,5.));
#611=CARTESIAN_POINT('',(10.5,0.,3.5));
#612=CARTESIAN_POINT('Origin',(7.,0.,3.5));
#613=CARTESIAN_POINT('',(7.,0.,3.5));
#614=CARTESIAN_POINT('',(7.,0.,3.5));
#615=CARTESIAN_POINT('',(7.,0.,5.));
#616=CARTESIAN_POINT('',(7.,0.,5.));
#617=CARTESIAN_POINT('',(7.,0.,3.5));
#618=CARTESIAN_POINT('Origin',(9.25,1.,5.));
#619=CARTESIAN_POINT('',(7.,2.,5.));
#620=CARTESIAN_POINT('Origin',(10.5,4.75,2.5));
#621=CARTESIAN_POINT('',(10.5,4.,3.5));
#622=CARTESIAN_POINT('',(10.5,1.5,3.5));
#623=CARTESIAN_POINT('',(10.5,4.,2.));
#624=CARTESIAN_POINT('',(10.5,4.,3.5));
#625=CARTESIAN_POINT('',(10.5,1.5,2.));
#626=CARTESIAN_POINT('',(10.5,4.,2.));
#627=CARTESIAN_POINT('',(10.5,1.5,0.));
#628=CARTESIAN_POINT('',(10.5,1.5,2.));
#629=CARTESIAN_POINT('',(10.5,6.,0.));
#630=CARTESIAN_POINT('',(10.5,1.5,0.));
#631=CARTESIAN_POINT('',(10.5,6.,0.5));
#632=CARTESIAN_POINT('',(10.5,6.,0.));
#633=CARTESIAN_POINT('',(10.5,6.,4.5));
#634=CARTESIAN_POINT('Origin',(10.5,6.,2.5));
#635=CARTESIAN_POINT('',(10.5,6.,4.5));
#636=CARTESIAN_POINT('',(10.5,6.,4.));
#637=CARTESIAN_POINT('Origin',(10.5,6.,2.5));
#638=CARTESIAN_POINT('Origin',(0.,1.5,3.5));
#639=CARTESIAN_POINT('',(7.,4.,3.5));
#640=CARTESIAN_POINT('',(7.,3.125,3.5));
#641=CARTESIAN_POINT('',(0.,4.,3.5));
#642=CARTESIAN_POINT('Origin',(1.5,5.,0.));
#643=CARTESIAN_POINT('',(1.5,5.,0.));
#644=CARTESIAN_POINT('',(1.5,5.8,0.));
#645=CARTESIAN_POINT('',(1.5,3.25,0.));
#646=CARTESIAN_POINT('',(1.5,5.,2.));
#647=CARTESIAN_POINT('',(1.5,5.,0.));
#648=CARTESIAN_POINT('',(1.5,5.8,2.));
#649=CARTESIAN_POINT('',(1.5,4.5,2.));
#650=CARTESIAN_POINT('',(1.5,5.8,0.));
#651=CARTESIAN_POINT('Origin',(0.,5.,0.));
#652=CARTESIAN_POINT('',(0.,5.,0.));
#653=CARTESIAN_POINT('',(0.,5.,0.));
#654=CARTESIAN_POINT('',(0.,5.,2.));
#655=CARTESIAN_POINT('',(0.,5.,0.));
#656=CARTESIAN_POINT('',(0.,5.,2.));
#657=CARTESIAN_POINT('Origin',(7.,5.8,0.));
#658=CARTESIAN_POINT('',(7.,5.8,2.));
#659=CARTESIAN_POINT('',(7.,5.8,2.));
#660=CARTESIAN_POINT('',(7.,5.8,1.01339312526815));
#661=CARTESIAN_POINT('',(7.,5.8,0.));
#662=CARTESIAN_POINT('',(7.,5.8,0.));
#663=CARTESIAN_POINT('',(7.,5.8,1.25));
#664=CARTESIAN_POINT('',(7.,5.8,0.));
#665=CARTESIAN_POINT('Origin',(0.,4.,2.));
#666=CARTESIAN_POINT('',(0.,3.,2.));
#667=CARTESIAN_POINT('',(0.,5.8,2.));
#668=CARTESIAN_POINT('',(7.,3.,2.));
#669=CARTESIAN_POINT('',(0.,3.,2.));
#670=CARTESIAN_POINT('',(7.,1.5,2.));
#671=CARTESIAN_POINT('',(7.,4.375,2.));
#672=CARTESIAN_POINT('',(0.,1.5,2.));
#673=CARTESIAN_POINT('',(7.,4.,2.));
#674=CARTESIAN_POINT('',(0.,4.,2.));
#675=CARTESIAN_POINT('',(7.,4.58578643762691,2.));
#676=CARTESIAN_POINT('',(7.,4.575,2.));
#677=CARTESIAN_POINT('',(7.,3.,2.));
#678=CARTESIAN_POINT('Origin',(7.,3.,0.));
#679=CARTESIAN_POINT('Origin',(7.,6.,2.5));
#680=CARTESIAN_POINT('Origin',(0.,3.,0.));
#681=CARTESIAN_POINT('',(0.,3.,0.));
#682=CARTESIAN_POINT('',(7.,3.,0.));
#683=CARTESIAN_POINT('',(0.,3.,0.));
#684=CARTESIAN_POINT('',(7.,3.,1.25));
#685=CARTESIAN_POINT('',(0.,3.,0.));
#686=CARTESIAN_POINT('Origin',(0.,5.8,0.));
#687=CARTESIAN_POINT('',(0.,5.8,0.));
#688=CARTESIAN_POINT('Origin',(7.,4.75,2.5));
#689=CARTESIAN_POINT('',(7.,1.5,0.));
#690=CARTESIAN_POINT('',(7.,3.125,0.));
#691=CARTESIAN_POINT('',(7.,1.5,2.25));
#692=CARTESIAN_POINT('Origin',(7.,4.75,2.5));
#693=CARTESIAN_POINT('',(7.,6.,4.5));
#694=CARTESIAN_POINT('',(7.,5.49237804878049,4.55640243902439));
#695=CARTESIAN_POINT('',(7.,6.,0.5));
#696=CARTESIAN_POINT('Origin',(7.,6.,2.5));
#697=CARTESIAN_POINT('',(7.,6.,0.));
#698=CARTESIAN_POINT('',(7.,6.,1.25));
#699=CARTESIAN_POINT('',(7.,3.125,0.));
#700=CARTESIAN_POINT('',(7.,6.,4.));
#701=CARTESIAN_POINT('Origin',(7.,6.,2.5));
#702=CARTESIAN_POINT('Origin',(7.,6.,2.5));
#703=CARTESIAN_POINT('',(7.,4.,3.));
#704=CARTESIAN_POINT('Origin',(0.,6.,2.5));
#705=CARTESIAN_POINT('',(0.,6.,4.));
#706=CARTESIAN_POINT('Origin',(0.,1.5,0.));
#707=CARTESIAN_POINT('',(0.,6.,0.));
#708=CARTESIAN_POINT('',(0.,1.5,0.));
#709=CARTESIAN_POINT('Origin',(0.,6.,0.));
#710=CARTESIAN_POINT('',(0.,6.,0.5));
#711=CARTESIAN_POINT('Origin',(0.,6.,2.5));
#712=CARTESIAN_POINT('',(0.,6.,4.5));
#713=CARTESIAN_POINT('Origin',(0.,6.,4.5));
#714=CARTESIAN_POINT('Origin',(0.,4.,3.5));
#715=CARTESIAN_POINT('Origin',(0.,1.5,2.));
#716=UNCERTAINTY_MEASURE_WITH_UNIT(LENGTH_MEASURE(0.001),#720,
'DISTANCE_ACCURACY_VALUE',
'Maximum model space distance between geometric entities at asserted c
onnectivities');
#717=UNCERTAINTY_MEASURE_WITH_UNIT(LENGTH_MEASURE(0.001),#720,
'DISTANCE_ACCURACY_VALUE',
'Maximum model space distance between geometric entities at asserted c
onnectivities');
#718=(
GEOMETRIC_REPRESENTATION_CONTEXT(3)
GLOBAL_UNCERTAINTY_ASSIGNED_CONTEXT((#716))
GLOBAL_UNIT_ASSIGNED_CONTEXT((#720,#722,#723))
REPRESENTATION_CONTEXT('','3D')
);
#719=(
GEOMETRIC_REPRESENTATION_CONTEXT(3)
GLOBAL_UNCERTAINTY_ASSIGNED_CONTEXT((#717))
GLOBAL_UNIT_ASSIGNED_CONTEXT((#720,#722,#723))
REPRESENTATION_CONTEXT('','3D')
);
#720=(
LENGTH_UNIT()
NAMED_UNIT(*)
SI_UNIT(.CENTI.,.METRE.)
);
#721=(
LENGTH_UNIT()
NAMED_UNIT(*)
SI_UNIT($,.METRE.)
);
#722=(
NAMED_UNIT(*)
PLANE_ANGLE_UNIT()
SI_UNIT($,.RADIAN.)
);
#723=(
NAMED_UNIT(*)
SI_UNIT($,.STERADIAN.)
SOLID_ANGLE_UNIT()
);
#724=SHAPE_DEFINITION_REPRESENTATION(#725,#726);
#725=PRODUCT_DEFINITION_SHAPE('',$,#728);
#726=SHAPE_REPRESENTATION('',(#449),#718);
#727=PRODUCT_DEFINITION_CONTEXT('part definition',#732,'design');
#728=PRODUCT_DEFINITION('(Unsaved)','(Unsaved)',#729,#727);
#729=PRODUCT_DEFINITION_FORMATION('',$,#734);
#730=PRODUCT_RELATED_PRODUCT_CATEGORY('(Unsaved)','(Unsaved)',(#734));
#731=APPLICATION_PROTOCOL_DEFINITION('international standard',
'automotive_design',2009,#732);
#732=APPLICATION_CONTEXT(
'Core Data for Automotive Mechanical Design Process');
#733=PRODUCT_CONTEXT('part definition',#732,'mechanical');
#734=PRODUCT('(Unsaved)','(Unsaved)',$,(#733));
#735=PRESENTATION_STYLE_ASSIGNMENT((#736));
#736=SURFACE_STYLE_USAGE(.BOTH.,#737);
#737=SURFACE_SIDE_STYLE('',(#738));
#738=SURFACE_STYLE_FILL_AREA(#739);
#739=FILL_AREA_STYLE('Steel - Satin',(#740));
#740=FILL_AREA_STYLE_COLOUR('Steel - Satin',#741);
#741=COLOUR_RGB('Steel - Satin',0.627450980392157,0.627450980392157,0.627450980392157);
ENDSEC;
END-ISO-10303-21;
